%TF.GenerationSoftware,KiCad,Pcbnew,9.0.6*%
%TF.CreationDate,2026-02-06T01:00:39-05:00*%
%TF.ProjectId,SteeringWheel,53746565-7269-46e6-9757-6865656c2e6b,rev?*%
%TF.SameCoordinates,Original*%
%TF.FileFunction,Legend,Top*%
%TF.FilePolarity,Positive*%
%FSLAX46Y46*%
G04 Gerber Fmt 4.6, Leading zero omitted, Abs format (unit mm)*
G04 Created by KiCad (PCBNEW 9.0.6) date 2026-02-06 01:00:39*
%MOMM*%
%LPD*%
G01*
G04 APERTURE LIST*
%ADD10C,0.300000*%
%ADD11C,1.000000*%
%ADD12C,0.150000*%
%ADD13C,0.120000*%
%ADD14C,0.000000*%
%ADD15C,0.127000*%
%ADD16C,0.200000*%
G04 APERTURE END LIST*
D10*
G36*
X179572801Y-70495535D02*
G01*
X179609805Y-70532539D01*
X179654511Y-70621951D01*
X179654511Y-70765418D01*
X179609804Y-70854831D01*
X179572799Y-70891836D01*
X179483387Y-70936542D01*
X179097368Y-70936542D01*
X179097368Y-70450828D01*
X179483387Y-70450828D01*
X179572801Y-70495535D01*
G37*
G36*
X180882113Y-71222257D02*
G01*
X180584054Y-71222257D01*
X180733083Y-70775169D01*
X180882113Y-71222257D01*
G37*
G36*
X182761153Y-72117495D02*
G01*
X172987843Y-72117495D01*
X172987843Y-70300828D01*
X173154510Y-70300828D01*
X173154510Y-71800828D01*
X173157392Y-71830092D01*
X173179790Y-71884164D01*
X173221174Y-71925548D01*
X173275246Y-71947946D01*
X173333774Y-71947946D01*
X173387846Y-71925548D01*
X173429230Y-71884164D01*
X173451628Y-71830092D01*
X173454510Y-71800828D01*
X173454510Y-70865661D01*
X174031417Y-71875249D01*
X174035794Y-71881416D01*
X174036933Y-71884164D01*
X174039732Y-71886963D01*
X174048438Y-71899227D01*
X174064211Y-71911442D01*
X174078317Y-71925548D01*
X174087150Y-71929206D01*
X174094712Y-71935063D01*
X174113960Y-71940312D01*
X174132389Y-71947946D01*
X174141951Y-71947946D01*
X174151176Y-71950462D01*
X174170967Y-71947946D01*
X174190917Y-71947946D01*
X174199750Y-71944286D01*
X174209236Y-71943081D01*
X174226558Y-71933182D01*
X174244989Y-71925548D01*
X174251749Y-71918787D01*
X174260052Y-71914043D01*
X174272265Y-71898271D01*
X174286373Y-71884164D01*
X174290032Y-71875328D01*
X174295887Y-71867769D01*
X174301135Y-71848524D01*
X174308771Y-71830092D01*
X174310244Y-71815127D01*
X174311287Y-71811306D01*
X174310911Y-71808354D01*
X174311653Y-71800828D01*
X174311653Y-70300828D01*
X174725939Y-70300828D01*
X174725939Y-71800828D01*
X174728821Y-71830092D01*
X174751219Y-71884164D01*
X174792603Y-71925548D01*
X174846675Y-71947946D01*
X174875939Y-71950828D01*
X175590225Y-71950828D01*
X175619489Y-71947946D01*
X175673561Y-71925548D01*
X175714945Y-71884164D01*
X175737343Y-71830092D01*
X175737343Y-71771564D01*
X175714945Y-71717492D01*
X175673561Y-71676108D01*
X175619489Y-71653710D01*
X175590225Y-71650828D01*
X175025939Y-71650828D01*
X175025939Y-71165114D01*
X175375939Y-71165114D01*
X175405203Y-71162232D01*
X175459275Y-71139834D01*
X175500659Y-71098450D01*
X175523057Y-71044378D01*
X175523057Y-70985850D01*
X175500659Y-70931778D01*
X175459275Y-70890394D01*
X175405203Y-70867996D01*
X175375939Y-70865114D01*
X175025939Y-70865114D01*
X175025939Y-70450828D01*
X175590225Y-70450828D01*
X175619489Y-70447946D01*
X175673561Y-70425548D01*
X175714945Y-70384164D01*
X175737343Y-70330092D01*
X175737343Y-70300828D01*
X176083082Y-70300828D01*
X176083082Y-71515114D01*
X176085964Y-71544378D01*
X176088027Y-71549358D01*
X176088409Y-71554733D01*
X176098918Y-71582196D01*
X176170347Y-71725053D01*
X176178274Y-71737646D01*
X176179790Y-71741306D01*
X176183171Y-71745425D01*
X176186012Y-71749939D01*
X176189005Y-71752535D01*
X176198445Y-71764037D01*
X176269874Y-71835466D01*
X176281378Y-71844907D01*
X176283973Y-71847899D01*
X176288482Y-71850737D01*
X176292605Y-71854121D01*
X176296266Y-71855637D01*
X176308858Y-71863564D01*
X176451716Y-71934992D01*
X176479179Y-71945502D01*
X176484554Y-71945883D01*
X176489533Y-71947946D01*
X176518797Y-71950828D01*
X176804511Y-71950828D01*
X176833775Y-71947946D01*
X176838753Y-71945883D01*
X176844129Y-71945502D01*
X176871593Y-71934992D01*
X177014450Y-71863564D01*
X177027043Y-71855636D01*
X177030703Y-71854121D01*
X177034822Y-71850739D01*
X177039336Y-71847899D01*
X177041932Y-71844905D01*
X177053434Y-71835466D01*
X177124863Y-71764037D01*
X177134304Y-71752532D01*
X177137296Y-71749938D01*
X177140134Y-71745428D01*
X177143518Y-71741306D01*
X177145034Y-71737644D01*
X177152961Y-71725053D01*
X177224389Y-71582195D01*
X177234899Y-71554732D01*
X177235280Y-71549356D01*
X177237343Y-71544378D01*
X177240225Y-71515114D01*
X177240225Y-70300828D01*
X177237343Y-70271564D01*
X177443108Y-70271564D01*
X177443108Y-70330092D01*
X177465506Y-70384164D01*
X177506890Y-70425548D01*
X177560962Y-70447946D01*
X177590226Y-70450828D01*
X177868797Y-70450828D01*
X177868797Y-71800828D01*
X177871679Y-71830092D01*
X177894077Y-71884164D01*
X177935461Y-71925548D01*
X177989533Y-71947946D01*
X178048061Y-71947946D01*
X178102133Y-71925548D01*
X178143517Y-71884164D01*
X178165915Y-71830092D01*
X178168797Y-71800828D01*
X178168797Y-70450828D01*
X178447369Y-70450828D01*
X178476633Y-70447946D01*
X178530705Y-70425548D01*
X178572089Y-70384164D01*
X178594487Y-70330092D01*
X178594487Y-70300828D01*
X178797368Y-70300828D01*
X178797368Y-71800828D01*
X178800250Y-71830092D01*
X178822648Y-71884164D01*
X178864032Y-71925548D01*
X178918104Y-71947946D01*
X178976632Y-71947946D01*
X179030704Y-71925548D01*
X179072088Y-71884164D01*
X179094486Y-71830092D01*
X179097368Y-71800828D01*
X179097368Y-71236542D01*
X179226413Y-71236542D01*
X179681626Y-71886847D01*
X179700769Y-71909169D01*
X179750126Y-71940622D01*
X179807762Y-71950793D01*
X179864904Y-71938134D01*
X179912852Y-71904570D01*
X179944305Y-71855213D01*
X179954476Y-71797577D01*
X179951040Y-71782067D01*
X180084261Y-71782067D01*
X180088410Y-71840448D01*
X180114584Y-71892795D01*
X180158798Y-71931142D01*
X180214322Y-71949650D01*
X180272703Y-71945501D01*
X180325050Y-71919327D01*
X180363397Y-71875113D01*
X180375385Y-71848262D01*
X180484054Y-71522257D01*
X180982113Y-71522257D01*
X181090781Y-71848262D01*
X181102769Y-71875113D01*
X181141116Y-71919328D01*
X181193464Y-71945501D01*
X181251844Y-71949651D01*
X181307368Y-71931142D01*
X181351582Y-71892795D01*
X181377756Y-71840448D01*
X181381906Y-71782068D01*
X181375386Y-71753394D01*
X180891196Y-70300828D01*
X181583082Y-70300828D01*
X181583082Y-71800828D01*
X181585964Y-71830092D01*
X181608362Y-71884164D01*
X181649746Y-71925548D01*
X181703818Y-71947946D01*
X181733082Y-71950828D01*
X182447368Y-71950828D01*
X182476632Y-71947946D01*
X182530704Y-71925548D01*
X182572088Y-71884164D01*
X182594486Y-71830092D01*
X182594486Y-71771564D01*
X182572088Y-71717492D01*
X182530704Y-71676108D01*
X182476632Y-71653710D01*
X182447368Y-71650828D01*
X181883082Y-71650828D01*
X181883082Y-70300828D01*
X181880200Y-70271564D01*
X181857802Y-70217492D01*
X181816418Y-70176108D01*
X181762346Y-70153710D01*
X181703818Y-70153710D01*
X181649746Y-70176108D01*
X181608362Y-70217492D01*
X181585964Y-70271564D01*
X181583082Y-70300828D01*
X180891196Y-70300828D01*
X180875385Y-70253394D01*
X180863397Y-70226543D01*
X180856374Y-70218446D01*
X180851582Y-70208861D01*
X180837373Y-70196537D01*
X180825050Y-70182329D01*
X180815464Y-70177536D01*
X180807368Y-70170514D01*
X180789524Y-70164565D01*
X180772703Y-70156155D01*
X180762014Y-70155395D01*
X180751844Y-70152005D01*
X180733078Y-70153338D01*
X180714322Y-70152006D01*
X180704154Y-70155395D01*
X180693464Y-70156155D01*
X180676640Y-70164566D01*
X180658798Y-70170514D01*
X180650703Y-70177534D01*
X180641116Y-70182328D01*
X180628790Y-70196539D01*
X180614584Y-70208861D01*
X180609791Y-70218445D01*
X180602769Y-70226543D01*
X180590781Y-70253394D01*
X180090781Y-71753394D01*
X180084261Y-71782067D01*
X179951040Y-71782067D01*
X179941817Y-71740435D01*
X179927396Y-71714809D01*
X179582444Y-71222020D01*
X179585879Y-71220706D01*
X179728736Y-71149278D01*
X179741329Y-71141350D01*
X179744989Y-71139835D01*
X179749108Y-71136453D01*
X179753622Y-71133613D01*
X179756218Y-71130619D01*
X179767720Y-71121180D01*
X179839149Y-71049751D01*
X179848590Y-71038246D01*
X179851582Y-71035652D01*
X179854420Y-71031142D01*
X179857804Y-71027020D01*
X179859320Y-71023358D01*
X179867247Y-71010767D01*
X179938675Y-70867909D01*
X179949185Y-70840446D01*
X179949566Y-70835070D01*
X179951629Y-70830092D01*
X179954511Y-70800828D01*
X179954511Y-70586542D01*
X179951629Y-70557278D01*
X179949566Y-70552299D01*
X179949185Y-70546924D01*
X179938675Y-70519461D01*
X179867247Y-70376603D01*
X179859318Y-70364008D01*
X179857803Y-70360349D01*
X179854421Y-70356228D01*
X179851582Y-70351718D01*
X179848590Y-70349123D01*
X179839148Y-70337618D01*
X179767719Y-70266190D01*
X179756219Y-70256752D01*
X179753622Y-70253758D01*
X179749105Y-70250915D01*
X179744988Y-70247536D01*
X179741331Y-70246021D01*
X179728736Y-70238093D01*
X179585879Y-70166664D01*
X179558416Y-70156155D01*
X179553041Y-70155773D01*
X179548061Y-70153710D01*
X179518797Y-70150828D01*
X178947368Y-70150828D01*
X178918104Y-70153710D01*
X178864032Y-70176108D01*
X178822648Y-70217492D01*
X178800250Y-70271564D01*
X178797368Y-70300828D01*
X178594487Y-70300828D01*
X178594487Y-70271564D01*
X178572089Y-70217492D01*
X178530705Y-70176108D01*
X178476633Y-70153710D01*
X178447369Y-70150828D01*
X177590226Y-70150828D01*
X177560962Y-70153710D01*
X177506890Y-70176108D01*
X177465506Y-70217492D01*
X177443108Y-70271564D01*
X177237343Y-70271564D01*
X177214945Y-70217492D01*
X177173561Y-70176108D01*
X177119489Y-70153710D01*
X177060961Y-70153710D01*
X177006889Y-70176108D01*
X176965505Y-70217492D01*
X176943107Y-70271564D01*
X176940225Y-70300828D01*
X176940225Y-71479704D01*
X176895518Y-71569117D01*
X176858513Y-71606122D01*
X176769101Y-71650828D01*
X176554207Y-71650828D01*
X176464793Y-71606121D01*
X176427789Y-71569117D01*
X176383082Y-71479703D01*
X176383082Y-70300828D01*
X176380200Y-70271564D01*
X176357802Y-70217492D01*
X176316418Y-70176108D01*
X176262346Y-70153710D01*
X176203818Y-70153710D01*
X176149746Y-70176108D01*
X176108362Y-70217492D01*
X176085964Y-70271564D01*
X176083082Y-70300828D01*
X175737343Y-70300828D01*
X175737343Y-70271564D01*
X175714945Y-70217492D01*
X175673561Y-70176108D01*
X175619489Y-70153710D01*
X175590225Y-70150828D01*
X174875939Y-70150828D01*
X174846675Y-70153710D01*
X174792603Y-70176108D01*
X174751219Y-70217492D01*
X174728821Y-70271564D01*
X174725939Y-70300828D01*
X174311653Y-70300828D01*
X174308771Y-70271564D01*
X174286373Y-70217492D01*
X174244989Y-70176108D01*
X174190917Y-70153710D01*
X174132389Y-70153710D01*
X174078317Y-70176108D01*
X174036933Y-70217492D01*
X174014535Y-70271564D01*
X174011653Y-70300828D01*
X174011653Y-71235992D01*
X173434746Y-70226407D01*
X173430368Y-70220239D01*
X173429230Y-70217492D01*
X173426430Y-70214692D01*
X173417725Y-70202429D01*
X173401953Y-70190215D01*
X173387846Y-70176108D01*
X173379010Y-70172448D01*
X173371451Y-70166594D01*
X173352206Y-70161345D01*
X173333774Y-70153710D01*
X173324212Y-70153710D01*
X173314987Y-70151194D01*
X173295196Y-70153710D01*
X173275246Y-70153710D01*
X173266412Y-70157369D01*
X173256927Y-70158575D01*
X173239604Y-70168473D01*
X173221174Y-70176108D01*
X173214413Y-70182868D01*
X173206111Y-70187613D01*
X173193897Y-70203384D01*
X173179790Y-70217492D01*
X173176130Y-70226327D01*
X173170276Y-70233887D01*
X173165027Y-70253131D01*
X173157392Y-70271564D01*
X173155918Y-70286530D01*
X173154876Y-70290351D01*
X173155251Y-70293302D01*
X173154510Y-70300828D01*
X172987843Y-70300828D01*
X172987843Y-69984161D01*
X182761153Y-69984161D01*
X182761153Y-72117495D01*
G37*
G36*
X178251372Y-54495535D02*
G01*
X178288376Y-54532539D01*
X178333082Y-54621951D01*
X178333082Y-54765418D01*
X178288375Y-54854831D01*
X178251370Y-54891836D01*
X178161958Y-54936542D01*
X177775939Y-54936542D01*
X177775939Y-54450828D01*
X178161958Y-54450828D01*
X178251372Y-54495535D01*
G37*
G36*
X184225439Y-56117495D02*
G01*
X170737843Y-56117495D01*
X170737843Y-54300828D01*
X170904510Y-54300828D01*
X170904510Y-55800828D01*
X170907392Y-55830092D01*
X170929790Y-55884164D01*
X170971174Y-55925548D01*
X171025246Y-55947946D01*
X171083774Y-55947946D01*
X171137846Y-55925548D01*
X171179230Y-55884164D01*
X171201628Y-55830092D01*
X171204510Y-55800828D01*
X171204510Y-55165114D01*
X171554510Y-55165114D01*
X171583774Y-55162232D01*
X171637846Y-55139834D01*
X171679230Y-55098450D01*
X171701628Y-55044378D01*
X171701628Y-54985850D01*
X171679230Y-54931778D01*
X171637846Y-54890394D01*
X171583774Y-54867996D01*
X171554510Y-54865114D01*
X171204510Y-54865114D01*
X171204510Y-54450828D01*
X171768796Y-54450828D01*
X171798060Y-54447946D01*
X171852132Y-54425548D01*
X171893516Y-54384164D01*
X171915914Y-54330092D01*
X171915914Y-54300828D01*
X172190224Y-54300828D01*
X172190224Y-55515114D01*
X172193106Y-55544378D01*
X172195169Y-55549358D01*
X172195551Y-55554733D01*
X172206060Y-55582196D01*
X172277489Y-55725053D01*
X172285416Y-55737646D01*
X172286932Y-55741306D01*
X172290313Y-55745425D01*
X172293154Y-55749939D01*
X172296147Y-55752535D01*
X172305587Y-55764037D01*
X172377016Y-55835466D01*
X172388520Y-55844907D01*
X172391115Y-55847899D01*
X172395624Y-55850737D01*
X172399747Y-55854121D01*
X172403408Y-55855637D01*
X172416000Y-55863564D01*
X172558858Y-55934992D01*
X172586321Y-55945502D01*
X172591696Y-55945883D01*
X172596675Y-55947946D01*
X172625939Y-55950828D01*
X172911653Y-55950828D01*
X172940917Y-55947946D01*
X172945895Y-55945883D01*
X172951271Y-55945502D01*
X172978735Y-55934992D01*
X173121592Y-55863564D01*
X173134185Y-55855636D01*
X173137845Y-55854121D01*
X173141964Y-55850739D01*
X173146478Y-55847899D01*
X173149074Y-55844905D01*
X173160576Y-55835466D01*
X173232005Y-55764037D01*
X173241446Y-55752532D01*
X173244438Y-55749938D01*
X173247276Y-55745428D01*
X173250660Y-55741306D01*
X173252176Y-55737644D01*
X173260103Y-55725053D01*
X173331531Y-55582195D01*
X173342041Y-55554732D01*
X173342422Y-55549356D01*
X173344485Y-55544378D01*
X173347367Y-55515114D01*
X173347367Y-54300828D01*
X173761653Y-54300828D01*
X173761653Y-55800828D01*
X173764535Y-55830092D01*
X173786933Y-55884164D01*
X173828317Y-55925548D01*
X173882389Y-55947946D01*
X173911653Y-55950828D01*
X174625939Y-55950828D01*
X174655203Y-55947946D01*
X174709275Y-55925548D01*
X174750659Y-55884164D01*
X174773057Y-55830092D01*
X174773057Y-55771564D01*
X174750659Y-55717492D01*
X174709275Y-55676108D01*
X174655203Y-55653710D01*
X174625939Y-55650828D01*
X174061653Y-55650828D01*
X174061653Y-55165114D01*
X174411653Y-55165114D01*
X174440917Y-55162232D01*
X174494989Y-55139834D01*
X174536373Y-55098450D01*
X174558771Y-55044378D01*
X174558771Y-54985850D01*
X174536373Y-54931778D01*
X174494989Y-54890394D01*
X174440917Y-54867996D01*
X174411653Y-54865114D01*
X174061653Y-54865114D01*
X174061653Y-54450828D01*
X174625939Y-54450828D01*
X174655203Y-54447946D01*
X174709275Y-54425548D01*
X174750659Y-54384164D01*
X174773057Y-54330092D01*
X174773057Y-54300828D01*
X175118796Y-54300828D01*
X175118796Y-55800828D01*
X175121678Y-55830092D01*
X175144076Y-55884164D01*
X175185460Y-55925548D01*
X175239532Y-55947946D01*
X175268796Y-55950828D01*
X175983082Y-55950828D01*
X176012346Y-55947946D01*
X176066418Y-55925548D01*
X176107802Y-55884164D01*
X176130200Y-55830092D01*
X176130200Y-55771564D01*
X176107802Y-55717492D01*
X176066418Y-55676108D01*
X176012346Y-55653710D01*
X175983082Y-55650828D01*
X175418796Y-55650828D01*
X175418796Y-54300828D01*
X177475939Y-54300828D01*
X177475939Y-55800828D01*
X177478821Y-55830092D01*
X177501219Y-55884164D01*
X177542603Y-55925548D01*
X177596675Y-55947946D01*
X177655203Y-55947946D01*
X177709275Y-55925548D01*
X177750659Y-55884164D01*
X177773057Y-55830092D01*
X177775939Y-55800828D01*
X177775939Y-55236542D01*
X177904984Y-55236542D01*
X178360197Y-55886847D01*
X178379340Y-55909169D01*
X178428697Y-55940622D01*
X178486333Y-55950793D01*
X178543475Y-55938134D01*
X178591423Y-55904570D01*
X178622876Y-55855213D01*
X178633047Y-55797577D01*
X178620388Y-55740435D01*
X178605967Y-55714809D01*
X178261015Y-55222020D01*
X178264450Y-55220706D01*
X178407307Y-55149278D01*
X178419900Y-55141350D01*
X178423560Y-55139835D01*
X178427679Y-55136453D01*
X178432193Y-55133613D01*
X178434789Y-55130619D01*
X178446291Y-55121180D01*
X178517720Y-55049751D01*
X178527161Y-55038246D01*
X178530153Y-55035652D01*
X178532991Y-55031142D01*
X178536375Y-55027020D01*
X178537891Y-55023358D01*
X178545818Y-55010767D01*
X178617246Y-54867909D01*
X178627756Y-54840446D01*
X178628137Y-54835070D01*
X178630200Y-54830092D01*
X178633082Y-54800828D01*
X178633082Y-54586542D01*
X178630200Y-54557278D01*
X178628137Y-54552299D01*
X178627756Y-54546924D01*
X178617246Y-54519461D01*
X178545818Y-54376603D01*
X178537889Y-54364008D01*
X178536374Y-54360349D01*
X178532992Y-54356228D01*
X178530153Y-54351718D01*
X178527161Y-54349123D01*
X178517719Y-54337618D01*
X178480928Y-54300828D01*
X178975939Y-54300828D01*
X178975939Y-55800828D01*
X178978821Y-55830092D01*
X179001219Y-55884164D01*
X179042603Y-55925548D01*
X179096675Y-55947946D01*
X179125939Y-55950828D01*
X179840225Y-55950828D01*
X179869489Y-55947946D01*
X179923561Y-55925548D01*
X179964945Y-55884164D01*
X179987343Y-55830092D01*
X179987343Y-55771564D01*
X179964945Y-55717492D01*
X179923561Y-55676108D01*
X179869489Y-55653710D01*
X179840225Y-55650828D01*
X179275939Y-55650828D01*
X179275939Y-55165114D01*
X179625939Y-55165114D01*
X179655203Y-55162232D01*
X179709275Y-55139834D01*
X179750659Y-55098450D01*
X179773057Y-55044378D01*
X179773057Y-54985850D01*
X179750659Y-54931778D01*
X179709275Y-54890394D01*
X179655203Y-54867996D01*
X179625939Y-54865114D01*
X179275939Y-54865114D01*
X179275939Y-54586542D01*
X180261654Y-54586542D01*
X180261654Y-54729400D01*
X180264536Y-54758664D01*
X180266598Y-54763642D01*
X180266980Y-54769018D01*
X180277490Y-54796482D01*
X180348918Y-54939339D01*
X180356846Y-54951934D01*
X180358362Y-54955593D01*
X180361741Y-54959710D01*
X180364583Y-54964225D01*
X180367577Y-54966821D01*
X180377017Y-54978324D01*
X180448446Y-55049752D01*
X180459946Y-55059190D01*
X180462543Y-55062184D01*
X180467055Y-55065024D01*
X180471176Y-55068406D01*
X180474835Y-55069921D01*
X180487429Y-55077849D01*
X180630285Y-55149278D01*
X180632427Y-55150097D01*
X180633297Y-55150742D01*
X180645568Y-55155126D01*
X180657749Y-55159787D01*
X180658829Y-55159863D01*
X180660988Y-55160635D01*
X180930726Y-55228069D01*
X181037085Y-55281248D01*
X181074089Y-55318253D01*
X181118797Y-55407667D01*
X181118797Y-55479703D01*
X181074089Y-55569117D01*
X181037086Y-55606121D01*
X180947673Y-55650828D01*
X180650283Y-55650828D01*
X180459088Y-55587097D01*
X180430414Y-55580577D01*
X180372034Y-55584727D01*
X180319687Y-55610901D01*
X180281339Y-55655115D01*
X180262831Y-55710640D01*
X180266981Y-55769020D01*
X180293155Y-55821367D01*
X180337369Y-55859715D01*
X180364220Y-55871703D01*
X180578506Y-55943131D01*
X180593018Y-55946430D01*
X180596676Y-55947946D01*
X180601978Y-55948468D01*
X180607180Y-55949651D01*
X180611134Y-55949369D01*
X180625940Y-55950828D01*
X180983082Y-55950828D01*
X181012346Y-55947946D01*
X181017324Y-55945883D01*
X181022700Y-55945502D01*
X181050163Y-55934992D01*
X181193022Y-55863564D01*
X181205616Y-55855635D01*
X181209276Y-55854120D01*
X181213396Y-55850738D01*
X181217907Y-55847899D01*
X181220501Y-55844907D01*
X181232007Y-55835465D01*
X181303435Y-55764036D01*
X181312873Y-55752535D01*
X181315867Y-55749939D01*
X181318707Y-55745426D01*
X181322089Y-55741306D01*
X181323604Y-55737646D01*
X181331532Y-55725053D01*
X181402961Y-55582197D01*
X181413470Y-55554733D01*
X181413851Y-55549358D01*
X181415915Y-55544378D01*
X181418797Y-55515114D01*
X181418797Y-55372257D01*
X181415915Y-55342993D01*
X181413851Y-55338012D01*
X181413470Y-55332638D01*
X181402961Y-55305174D01*
X181331532Y-55162318D01*
X181323604Y-55149724D01*
X181322089Y-55146065D01*
X181318707Y-55141944D01*
X181315867Y-55137432D01*
X181312873Y-55134835D01*
X181303435Y-55123335D01*
X181232007Y-55051906D01*
X181220504Y-55042466D01*
X181217908Y-55039472D01*
X181213393Y-55036630D01*
X181209276Y-55033251D01*
X181205617Y-55031735D01*
X181193022Y-55023807D01*
X181050164Y-54952378D01*
X181048023Y-54951558D01*
X181047153Y-54950914D01*
X181034897Y-54946535D01*
X181022701Y-54941868D01*
X181021617Y-54941791D01*
X181019462Y-54941021D01*
X180749724Y-54873586D01*
X180643364Y-54820406D01*
X180606359Y-54783401D01*
X180561654Y-54693990D01*
X180561654Y-54621951D01*
X180606359Y-54532540D01*
X180643364Y-54495535D01*
X180732778Y-54450828D01*
X181030171Y-54450828D01*
X181221362Y-54514559D01*
X181250036Y-54521079D01*
X181308416Y-54516930D01*
X181360763Y-54490756D01*
X181399111Y-54446542D01*
X181417619Y-54391018D01*
X181413470Y-54332638D01*
X181397565Y-54300828D01*
X181761653Y-54300828D01*
X181761653Y-55800828D01*
X181764535Y-55830092D01*
X181786933Y-55884164D01*
X181828317Y-55925548D01*
X181882389Y-55947946D01*
X181911653Y-55950828D01*
X182625939Y-55950828D01*
X182655203Y-55947946D01*
X182709275Y-55925548D01*
X182750659Y-55884164D01*
X182773057Y-55830092D01*
X182773057Y-55771564D01*
X182750659Y-55717492D01*
X182709275Y-55676108D01*
X182655203Y-55653710D01*
X182625939Y-55650828D01*
X182061653Y-55650828D01*
X182061653Y-55165114D01*
X182411653Y-55165114D01*
X182440917Y-55162232D01*
X182494989Y-55139834D01*
X182536373Y-55098450D01*
X182558771Y-55044378D01*
X182558771Y-54985850D01*
X182536373Y-54931778D01*
X182494989Y-54890394D01*
X182440917Y-54867996D01*
X182411653Y-54865114D01*
X182061653Y-54865114D01*
X182061653Y-54450828D01*
X182625939Y-54450828D01*
X182655203Y-54447946D01*
X182709275Y-54425548D01*
X182750659Y-54384164D01*
X182773057Y-54330092D01*
X182773057Y-54271564D01*
X182907393Y-54271564D01*
X182907393Y-54330092D01*
X182929791Y-54384164D01*
X182971175Y-54425548D01*
X183025247Y-54447946D01*
X183054511Y-54450828D01*
X183333082Y-54450828D01*
X183333082Y-55800828D01*
X183335964Y-55830092D01*
X183358362Y-55884164D01*
X183399746Y-55925548D01*
X183453818Y-55947946D01*
X183512346Y-55947946D01*
X183566418Y-55925548D01*
X183607802Y-55884164D01*
X183630200Y-55830092D01*
X183633082Y-55800828D01*
X183633082Y-54450828D01*
X183911654Y-54450828D01*
X183940918Y-54447946D01*
X183994990Y-54425548D01*
X184036374Y-54384164D01*
X184058772Y-54330092D01*
X184058772Y-54271564D01*
X184036374Y-54217492D01*
X183994990Y-54176108D01*
X183940918Y-54153710D01*
X183911654Y-54150828D01*
X183054511Y-54150828D01*
X183025247Y-54153710D01*
X182971175Y-54176108D01*
X182929791Y-54217492D01*
X182907393Y-54271564D01*
X182773057Y-54271564D01*
X182750659Y-54217492D01*
X182709275Y-54176108D01*
X182655203Y-54153710D01*
X182625939Y-54150828D01*
X181911653Y-54150828D01*
X181882389Y-54153710D01*
X181828317Y-54176108D01*
X181786933Y-54217492D01*
X181764535Y-54271564D01*
X181761653Y-54300828D01*
X181397565Y-54300828D01*
X181387296Y-54280290D01*
X181343082Y-54241943D01*
X181316231Y-54229954D01*
X181101945Y-54158526D01*
X181087437Y-54155227D01*
X181083775Y-54153710D01*
X181078466Y-54153187D01*
X181073272Y-54152006D01*
X181069322Y-54152286D01*
X181054511Y-54150828D01*
X180697368Y-54150828D01*
X180668104Y-54153710D01*
X180663123Y-54155773D01*
X180657749Y-54156155D01*
X180630285Y-54166664D01*
X180487429Y-54238093D01*
X180474835Y-54246020D01*
X180471176Y-54247536D01*
X180467055Y-54250917D01*
X180462543Y-54253758D01*
X180459946Y-54256751D01*
X180448446Y-54266190D01*
X180377017Y-54337618D01*
X180367577Y-54349120D01*
X180364583Y-54351717D01*
X180361741Y-54356231D01*
X180358362Y-54360349D01*
X180356846Y-54364007D01*
X180348918Y-54376603D01*
X180277490Y-54519460D01*
X180266980Y-54546924D01*
X180266598Y-54552299D01*
X180264536Y-54557278D01*
X180261654Y-54586542D01*
X179275939Y-54586542D01*
X179275939Y-54450828D01*
X179840225Y-54450828D01*
X179869489Y-54447946D01*
X179923561Y-54425548D01*
X179964945Y-54384164D01*
X179987343Y-54330092D01*
X179987343Y-54271564D01*
X179964945Y-54217492D01*
X179923561Y-54176108D01*
X179869489Y-54153710D01*
X179840225Y-54150828D01*
X179125939Y-54150828D01*
X179096675Y-54153710D01*
X179042603Y-54176108D01*
X179001219Y-54217492D01*
X178978821Y-54271564D01*
X178975939Y-54300828D01*
X178480928Y-54300828D01*
X178446290Y-54266190D01*
X178434790Y-54256752D01*
X178432193Y-54253758D01*
X178427676Y-54250915D01*
X178423559Y-54247536D01*
X178419902Y-54246021D01*
X178407307Y-54238093D01*
X178264450Y-54166664D01*
X178236987Y-54156155D01*
X178231612Y-54155773D01*
X178226632Y-54153710D01*
X178197368Y-54150828D01*
X177625939Y-54150828D01*
X177596675Y-54153710D01*
X177542603Y-54176108D01*
X177501219Y-54217492D01*
X177478821Y-54271564D01*
X177475939Y-54300828D01*
X175418796Y-54300828D01*
X175415914Y-54271564D01*
X175393516Y-54217492D01*
X175352132Y-54176108D01*
X175298060Y-54153710D01*
X175239532Y-54153710D01*
X175185460Y-54176108D01*
X175144076Y-54217492D01*
X175121678Y-54271564D01*
X175118796Y-54300828D01*
X174773057Y-54300828D01*
X174773057Y-54271564D01*
X174750659Y-54217492D01*
X174709275Y-54176108D01*
X174655203Y-54153710D01*
X174625939Y-54150828D01*
X173911653Y-54150828D01*
X173882389Y-54153710D01*
X173828317Y-54176108D01*
X173786933Y-54217492D01*
X173764535Y-54271564D01*
X173761653Y-54300828D01*
X173347367Y-54300828D01*
X173344485Y-54271564D01*
X173322087Y-54217492D01*
X173280703Y-54176108D01*
X173226631Y-54153710D01*
X173168103Y-54153710D01*
X173114031Y-54176108D01*
X173072647Y-54217492D01*
X173050249Y-54271564D01*
X173047367Y-54300828D01*
X173047367Y-55479704D01*
X173002660Y-55569117D01*
X172965655Y-55606122D01*
X172876243Y-55650828D01*
X172661349Y-55650828D01*
X172571935Y-55606121D01*
X172534931Y-55569117D01*
X172490224Y-55479703D01*
X172490224Y-54300828D01*
X172487342Y-54271564D01*
X172464944Y-54217492D01*
X172423560Y-54176108D01*
X172369488Y-54153710D01*
X172310960Y-54153710D01*
X172256888Y-54176108D01*
X172215504Y-54217492D01*
X172193106Y-54271564D01*
X172190224Y-54300828D01*
X171915914Y-54300828D01*
X171915914Y-54271564D01*
X171893516Y-54217492D01*
X171852132Y-54176108D01*
X171798060Y-54153710D01*
X171768796Y-54150828D01*
X171054510Y-54150828D01*
X171025246Y-54153710D01*
X170971174Y-54176108D01*
X170929790Y-54217492D01*
X170907392Y-54271564D01*
X170904510Y-54300828D01*
X170737843Y-54300828D01*
X170737843Y-53984161D01*
X184225439Y-53984161D01*
X184225439Y-56117495D01*
G37*
G36*
X104203541Y-71222257D02*
G01*
X103905482Y-71222257D01*
X104054511Y-70775169D01*
X104203541Y-71222257D01*
G37*
G36*
X105679943Y-70495535D02*
G01*
X105716947Y-70532539D01*
X105761653Y-70621951D01*
X105761653Y-70765418D01*
X105716946Y-70854831D01*
X105679941Y-70891836D01*
X105590529Y-70936542D01*
X105204510Y-70936542D01*
X105204510Y-70450828D01*
X105590529Y-70450828D01*
X105679943Y-70495535D01*
G37*
G36*
X106228320Y-72116318D02*
G01*
X101737843Y-72116318D01*
X101737843Y-70300828D01*
X101904510Y-70300828D01*
X101904510Y-71800828D01*
X101907392Y-71830092D01*
X101929790Y-71884164D01*
X101971174Y-71925548D01*
X102025246Y-71947946D01*
X102083774Y-71947946D01*
X102137846Y-71925548D01*
X102179230Y-71884164D01*
X102201628Y-71830092D01*
X102204510Y-71800828D01*
X102204510Y-70976961D01*
X102418583Y-71435690D01*
X102424929Y-71446403D01*
X102426250Y-71450035D01*
X102428601Y-71452603D01*
X102433570Y-71460990D01*
X102450375Y-71476380D01*
X102465777Y-71493198D01*
X102471820Y-71496018D01*
X102476733Y-71500517D01*
X102498153Y-71508306D01*
X102518815Y-71517948D01*
X102525472Y-71518240D01*
X102531735Y-71520518D01*
X102554514Y-71519517D01*
X102577285Y-71520518D01*
X102583544Y-71518241D01*
X102590206Y-71517949D01*
X102610873Y-71508304D01*
X102632288Y-71500517D01*
X102637201Y-71496017D01*
X102643243Y-71493198D01*
X102658638Y-71476385D01*
X102675451Y-71460990D01*
X102680419Y-71452601D01*
X102682770Y-71450035D01*
X102684089Y-71446405D01*
X102690437Y-71435690D01*
X102904510Y-70976962D01*
X102904510Y-71800828D01*
X102907392Y-71830092D01*
X102929790Y-71884164D01*
X102971174Y-71925548D01*
X103025246Y-71947946D01*
X103083774Y-71947946D01*
X103137846Y-71925548D01*
X103179230Y-71884164D01*
X103201628Y-71830092D01*
X103204510Y-71800828D01*
X103204510Y-71782067D01*
X103405689Y-71782067D01*
X103409838Y-71840448D01*
X103436012Y-71892795D01*
X103480226Y-71931142D01*
X103535750Y-71949650D01*
X103594131Y-71945501D01*
X103646478Y-71919327D01*
X103684825Y-71875113D01*
X103696813Y-71848262D01*
X103805482Y-71522257D01*
X104303541Y-71522257D01*
X104412209Y-71848262D01*
X104424197Y-71875113D01*
X104462544Y-71919328D01*
X104514892Y-71945501D01*
X104573272Y-71949651D01*
X104628796Y-71931142D01*
X104673010Y-71892795D01*
X104699184Y-71840448D01*
X104703334Y-71782068D01*
X104696814Y-71753394D01*
X104212624Y-70300828D01*
X104904510Y-70300828D01*
X104904510Y-71800828D01*
X104907392Y-71830092D01*
X104929790Y-71884164D01*
X104971174Y-71925548D01*
X105025246Y-71947946D01*
X105083774Y-71947946D01*
X105137846Y-71925548D01*
X105179230Y-71884164D01*
X105201628Y-71830092D01*
X105204510Y-71800828D01*
X105204510Y-71236542D01*
X105625939Y-71236542D01*
X105655203Y-71233660D01*
X105660181Y-71231597D01*
X105665557Y-71231216D01*
X105693021Y-71220706D01*
X105835878Y-71149278D01*
X105848471Y-71141350D01*
X105852131Y-71139835D01*
X105856250Y-71136453D01*
X105860764Y-71133613D01*
X105863360Y-71130619D01*
X105874862Y-71121180D01*
X105946291Y-71049751D01*
X105955732Y-71038246D01*
X105958724Y-71035652D01*
X105961562Y-71031142D01*
X105964946Y-71027020D01*
X105966462Y-71023358D01*
X105974389Y-71010767D01*
X106045817Y-70867909D01*
X106056327Y-70840446D01*
X106056708Y-70835070D01*
X106058771Y-70830092D01*
X106061653Y-70800828D01*
X106061653Y-70586542D01*
X106058771Y-70557278D01*
X106056708Y-70552299D01*
X106056327Y-70546924D01*
X106045817Y-70519461D01*
X105974389Y-70376603D01*
X105966460Y-70364008D01*
X105964945Y-70360349D01*
X105961563Y-70356228D01*
X105958724Y-70351718D01*
X105955732Y-70349123D01*
X105946290Y-70337618D01*
X105874861Y-70266190D01*
X105863361Y-70256752D01*
X105860764Y-70253758D01*
X105856247Y-70250915D01*
X105852130Y-70247536D01*
X105848473Y-70246021D01*
X105835878Y-70238093D01*
X105693021Y-70166664D01*
X105665558Y-70156155D01*
X105660183Y-70155773D01*
X105655203Y-70153710D01*
X105625939Y-70150828D01*
X105054510Y-70150828D01*
X105025246Y-70153710D01*
X104971174Y-70176108D01*
X104929790Y-70217492D01*
X104907392Y-70271564D01*
X104904510Y-70300828D01*
X104212624Y-70300828D01*
X104196813Y-70253394D01*
X104184825Y-70226543D01*
X104177802Y-70218446D01*
X104173010Y-70208861D01*
X104158801Y-70196537D01*
X104146478Y-70182329D01*
X104136892Y-70177536D01*
X104128796Y-70170514D01*
X104110952Y-70164565D01*
X104094131Y-70156155D01*
X104083442Y-70155395D01*
X104073272Y-70152005D01*
X104054506Y-70153338D01*
X104035750Y-70152006D01*
X104025582Y-70155395D01*
X104014892Y-70156155D01*
X103998068Y-70164566D01*
X103980226Y-70170514D01*
X103972131Y-70177534D01*
X103962544Y-70182328D01*
X103950218Y-70196539D01*
X103936012Y-70208861D01*
X103931219Y-70218445D01*
X103924197Y-70226543D01*
X103912209Y-70253394D01*
X103412209Y-71753394D01*
X103405689Y-71782067D01*
X103204510Y-71782067D01*
X103204510Y-70300828D01*
X103202615Y-70281590D01*
X103202771Y-70278052D01*
X103202079Y-70276151D01*
X103201628Y-70271564D01*
X103191667Y-70247518D01*
X103182770Y-70223050D01*
X103180510Y-70220582D01*
X103179230Y-70217492D01*
X103160832Y-70199094D01*
X103143243Y-70179887D01*
X103140209Y-70178471D01*
X103137846Y-70176108D01*
X103113815Y-70166154D01*
X103090206Y-70155136D01*
X103086861Y-70154989D01*
X103083774Y-70153710D01*
X103057750Y-70153710D01*
X103031735Y-70152567D01*
X103028592Y-70153710D01*
X103025246Y-70153710D01*
X103001193Y-70163673D01*
X102976733Y-70172568D01*
X102974265Y-70174827D01*
X102971174Y-70176108D01*
X102952765Y-70194516D01*
X102933570Y-70212095D01*
X102931220Y-70216061D01*
X102929790Y-70217492D01*
X102928434Y-70220764D01*
X102918583Y-70237395D01*
X102554510Y-71017551D01*
X102190437Y-70237395D01*
X102180583Y-70220760D01*
X102179230Y-70217492D01*
X102177801Y-70216063D01*
X102175451Y-70212095D01*
X102156243Y-70194505D01*
X102137846Y-70176108D01*
X102134755Y-70174827D01*
X102132288Y-70172568D01*
X102107822Y-70163671D01*
X102083774Y-70153710D01*
X102080428Y-70153710D01*
X102077285Y-70152567D01*
X102051281Y-70153710D01*
X102025246Y-70153710D01*
X102022155Y-70154990D01*
X102018815Y-70155137D01*
X101995219Y-70166147D01*
X101971174Y-70176108D01*
X101968810Y-70178471D01*
X101965777Y-70179887D01*
X101948187Y-70199094D01*
X101929790Y-70217492D01*
X101928509Y-70220582D01*
X101926250Y-70223050D01*
X101917353Y-70247515D01*
X101907392Y-70271564D01*
X101906940Y-70276152D01*
X101906249Y-70278053D01*
X101906404Y-70281591D01*
X101904510Y-70300828D01*
X101737843Y-70300828D01*
X101737843Y-69984161D01*
X106228320Y-69984161D01*
X106228320Y-72116318D01*
G37*
G36*
X99929943Y-54495535D02*
G01*
X99966947Y-54532539D01*
X100011653Y-54621951D01*
X100011653Y-54765418D01*
X99966946Y-54854831D01*
X99929941Y-54891836D01*
X99840529Y-54936542D01*
X99454510Y-54936542D01*
X99454510Y-54450828D01*
X99840529Y-54450828D01*
X99929943Y-54495535D01*
G37*
G36*
X109118297Y-56117495D02*
G01*
X98987843Y-56117495D01*
X98987843Y-54300828D01*
X99154510Y-54300828D01*
X99154510Y-55800828D01*
X99157392Y-55830092D01*
X99179790Y-55884164D01*
X99221174Y-55925548D01*
X99275246Y-55947946D01*
X99333774Y-55947946D01*
X99387846Y-55925548D01*
X99429230Y-55884164D01*
X99451628Y-55830092D01*
X99454510Y-55800828D01*
X99454510Y-55236542D01*
X99875939Y-55236542D01*
X99905203Y-55233660D01*
X99910181Y-55231597D01*
X99915557Y-55231216D01*
X99943021Y-55220706D01*
X100085878Y-55149278D01*
X100098471Y-55141350D01*
X100102131Y-55139835D01*
X100106250Y-55136453D01*
X100110764Y-55133613D01*
X100113360Y-55130619D01*
X100124862Y-55121180D01*
X100196291Y-55049751D01*
X100205732Y-55038246D01*
X100208724Y-55035652D01*
X100211562Y-55031142D01*
X100214946Y-55027020D01*
X100216462Y-55023358D01*
X100224389Y-55010767D01*
X100295817Y-54867909D01*
X100306327Y-54840446D01*
X100306708Y-54835070D01*
X100308771Y-54830092D01*
X100311653Y-54800828D01*
X100311653Y-54586542D01*
X100308771Y-54557278D01*
X100306708Y-54552299D01*
X100306327Y-54546924D01*
X100295817Y-54519461D01*
X100224389Y-54376603D01*
X100216460Y-54364008D01*
X100214945Y-54360349D01*
X100211563Y-54356228D01*
X100208724Y-54351718D01*
X100205732Y-54349123D01*
X100196290Y-54337618D01*
X100159499Y-54300828D01*
X100654510Y-54300828D01*
X100654510Y-55800828D01*
X100657392Y-55830092D01*
X100679790Y-55884164D01*
X100721174Y-55925548D01*
X100775246Y-55947946D01*
X100833774Y-55947946D01*
X100887846Y-55925548D01*
X100929230Y-55884164D01*
X100951628Y-55830092D01*
X100954510Y-55800828D01*
X100954510Y-54300828D01*
X100951628Y-54271564D01*
X101157393Y-54271564D01*
X101157393Y-54330092D01*
X101179791Y-54384164D01*
X101221175Y-54425548D01*
X101275247Y-54447946D01*
X101304511Y-54450828D01*
X101583082Y-54450828D01*
X101583082Y-55800828D01*
X101585964Y-55830092D01*
X101608362Y-55884164D01*
X101649746Y-55925548D01*
X101703818Y-55947946D01*
X101762346Y-55947946D01*
X101816418Y-55925548D01*
X101857802Y-55884164D01*
X101880200Y-55830092D01*
X101883082Y-55800828D01*
X101883082Y-54450828D01*
X102161654Y-54450828D01*
X102190918Y-54447946D01*
X102244990Y-54425548D01*
X102286374Y-54384164D01*
X102308772Y-54330092D01*
X102308772Y-54300828D01*
X103654510Y-54300828D01*
X103654510Y-55800828D01*
X103657392Y-55830092D01*
X103679790Y-55884164D01*
X103721174Y-55925548D01*
X103775246Y-55947946D01*
X103804510Y-55950828D01*
X104518796Y-55950828D01*
X104548060Y-55947946D01*
X104602132Y-55925548D01*
X104643516Y-55884164D01*
X104665914Y-55830092D01*
X104665914Y-55771564D01*
X104643516Y-55717492D01*
X104602132Y-55676108D01*
X104548060Y-55653710D01*
X104518796Y-55650828D01*
X103954510Y-55650828D01*
X103954510Y-54300828D01*
X104868796Y-54300828D01*
X104868796Y-55800828D01*
X104871678Y-55830092D01*
X104894076Y-55884164D01*
X104935460Y-55925548D01*
X104989532Y-55947946D01*
X105048060Y-55947946D01*
X105102132Y-55925548D01*
X105143516Y-55884164D01*
X105165914Y-55830092D01*
X105168796Y-55800828D01*
X105168796Y-54300828D01*
X105583082Y-54300828D01*
X105583082Y-55800828D01*
X105585964Y-55830092D01*
X105608362Y-55884164D01*
X105649746Y-55925548D01*
X105703818Y-55947946D01*
X105762346Y-55947946D01*
X105816418Y-55925548D01*
X105857802Y-55884164D01*
X105880200Y-55830092D01*
X105883082Y-55800828D01*
X105883082Y-54976961D01*
X106097155Y-55435690D01*
X106103501Y-55446403D01*
X106104822Y-55450035D01*
X106107173Y-55452603D01*
X106112142Y-55460990D01*
X106128947Y-55476380D01*
X106144349Y-55493198D01*
X106150392Y-55496018D01*
X106155305Y-55500517D01*
X106176725Y-55508306D01*
X106197387Y-55517948D01*
X106204044Y-55518240D01*
X106210307Y-55520518D01*
X106233086Y-55519517D01*
X106255857Y-55520518D01*
X106262116Y-55518241D01*
X106268778Y-55517949D01*
X106289445Y-55508304D01*
X106310860Y-55500517D01*
X106315773Y-55496017D01*
X106321815Y-55493198D01*
X106337210Y-55476385D01*
X106354023Y-55460990D01*
X106358991Y-55452601D01*
X106361342Y-55450035D01*
X106362661Y-55446405D01*
X106369009Y-55435690D01*
X106583082Y-54976962D01*
X106583082Y-55800828D01*
X106585964Y-55830092D01*
X106608362Y-55884164D01*
X106649746Y-55925548D01*
X106703818Y-55947946D01*
X106762346Y-55947946D01*
X106816418Y-55925548D01*
X106857802Y-55884164D01*
X106880200Y-55830092D01*
X106883082Y-55800828D01*
X106883082Y-54300828D01*
X107297368Y-54300828D01*
X107297368Y-55800828D01*
X107300250Y-55830092D01*
X107322648Y-55884164D01*
X107364032Y-55925548D01*
X107418104Y-55947946D01*
X107476632Y-55947946D01*
X107530704Y-55925548D01*
X107572088Y-55884164D01*
X107594486Y-55830092D01*
X107597368Y-55800828D01*
X107597368Y-54300828D01*
X107594486Y-54271564D01*
X107800251Y-54271564D01*
X107800251Y-54330092D01*
X107822649Y-54384164D01*
X107864033Y-54425548D01*
X107918105Y-54447946D01*
X107947369Y-54450828D01*
X108225940Y-54450828D01*
X108225940Y-55800828D01*
X108228822Y-55830092D01*
X108251220Y-55884164D01*
X108292604Y-55925548D01*
X108346676Y-55947946D01*
X108405204Y-55947946D01*
X108459276Y-55925548D01*
X108500660Y-55884164D01*
X108523058Y-55830092D01*
X108525940Y-55800828D01*
X108525940Y-54450828D01*
X108804512Y-54450828D01*
X108833776Y-54447946D01*
X108887848Y-54425548D01*
X108929232Y-54384164D01*
X108951630Y-54330092D01*
X108951630Y-54271564D01*
X108929232Y-54217492D01*
X108887848Y-54176108D01*
X108833776Y-54153710D01*
X108804512Y-54150828D01*
X107947369Y-54150828D01*
X107918105Y-54153710D01*
X107864033Y-54176108D01*
X107822649Y-54217492D01*
X107800251Y-54271564D01*
X107594486Y-54271564D01*
X107572088Y-54217492D01*
X107530704Y-54176108D01*
X107476632Y-54153710D01*
X107418104Y-54153710D01*
X107364032Y-54176108D01*
X107322648Y-54217492D01*
X107300250Y-54271564D01*
X107297368Y-54300828D01*
X106883082Y-54300828D01*
X106881187Y-54281590D01*
X106881343Y-54278052D01*
X106880651Y-54276151D01*
X106880200Y-54271564D01*
X106870239Y-54247518D01*
X106861342Y-54223050D01*
X106859082Y-54220582D01*
X106857802Y-54217492D01*
X106839404Y-54199094D01*
X106821815Y-54179887D01*
X106818781Y-54178471D01*
X106816418Y-54176108D01*
X106792387Y-54166154D01*
X106768778Y-54155136D01*
X106765433Y-54154989D01*
X106762346Y-54153710D01*
X106736322Y-54153710D01*
X106710307Y-54152567D01*
X106707164Y-54153710D01*
X106703818Y-54153710D01*
X106679765Y-54163673D01*
X106655305Y-54172568D01*
X106652837Y-54174827D01*
X106649746Y-54176108D01*
X106631337Y-54194516D01*
X106612142Y-54212095D01*
X106609792Y-54216061D01*
X106608362Y-54217492D01*
X106607006Y-54220764D01*
X106597155Y-54237395D01*
X106233082Y-55017551D01*
X105869009Y-54237395D01*
X105859155Y-54220760D01*
X105857802Y-54217492D01*
X105856373Y-54216063D01*
X105854023Y-54212095D01*
X105834815Y-54194505D01*
X105816418Y-54176108D01*
X105813327Y-54174827D01*
X105810860Y-54172568D01*
X105786394Y-54163671D01*
X105762346Y-54153710D01*
X105759000Y-54153710D01*
X105755857Y-54152567D01*
X105729853Y-54153710D01*
X105703818Y-54153710D01*
X105700727Y-54154990D01*
X105697387Y-54155137D01*
X105673791Y-54166147D01*
X105649746Y-54176108D01*
X105647382Y-54178471D01*
X105644349Y-54179887D01*
X105626759Y-54199094D01*
X105608362Y-54217492D01*
X105607081Y-54220582D01*
X105604822Y-54223050D01*
X105595925Y-54247515D01*
X105585964Y-54271564D01*
X105585512Y-54276152D01*
X105584821Y-54278053D01*
X105584976Y-54281591D01*
X105583082Y-54300828D01*
X105168796Y-54300828D01*
X105165914Y-54271564D01*
X105143516Y-54217492D01*
X105102132Y-54176108D01*
X105048060Y-54153710D01*
X104989532Y-54153710D01*
X104935460Y-54176108D01*
X104894076Y-54217492D01*
X104871678Y-54271564D01*
X104868796Y-54300828D01*
X103954510Y-54300828D01*
X103951628Y-54271564D01*
X103929230Y-54217492D01*
X103887846Y-54176108D01*
X103833774Y-54153710D01*
X103775246Y-54153710D01*
X103721174Y-54176108D01*
X103679790Y-54217492D01*
X103657392Y-54271564D01*
X103654510Y-54300828D01*
X102308772Y-54300828D01*
X102308772Y-54271564D01*
X102286374Y-54217492D01*
X102244990Y-54176108D01*
X102190918Y-54153710D01*
X102161654Y-54150828D01*
X101304511Y-54150828D01*
X101275247Y-54153710D01*
X101221175Y-54176108D01*
X101179791Y-54217492D01*
X101157393Y-54271564D01*
X100951628Y-54271564D01*
X100929230Y-54217492D01*
X100887846Y-54176108D01*
X100833774Y-54153710D01*
X100775246Y-54153710D01*
X100721174Y-54176108D01*
X100679790Y-54217492D01*
X100657392Y-54271564D01*
X100654510Y-54300828D01*
X100159499Y-54300828D01*
X100124861Y-54266190D01*
X100113361Y-54256752D01*
X100110764Y-54253758D01*
X100106247Y-54250915D01*
X100102130Y-54247536D01*
X100098473Y-54246021D01*
X100085878Y-54238093D01*
X99943021Y-54166664D01*
X99915558Y-54156155D01*
X99910183Y-54155773D01*
X99905203Y-54153710D01*
X99875939Y-54150828D01*
X99304510Y-54150828D01*
X99275246Y-54153710D01*
X99221174Y-54176108D01*
X99179790Y-54217492D01*
X99157392Y-54271564D01*
X99154510Y-54300828D01*
X98987843Y-54300828D01*
X98987843Y-53984161D01*
X109118297Y-53984161D01*
X109118297Y-56117495D01*
G37*
G36*
X164179942Y-60995535D02*
G01*
X164276208Y-61091801D01*
X164333082Y-61319292D01*
X164333082Y-61782363D01*
X164276208Y-62009854D01*
X164179941Y-62106122D01*
X164090529Y-62150828D01*
X163875635Y-62150828D01*
X163786221Y-62106121D01*
X163689954Y-62009854D01*
X163633082Y-61782364D01*
X163633082Y-61319291D01*
X163689954Y-61091802D01*
X163786221Y-60995534D01*
X163875635Y-60950828D01*
X164090529Y-60950828D01*
X164179942Y-60995535D01*
G37*
G36*
X166299749Y-62617495D02*
G01*
X163166415Y-62617495D01*
X163166415Y-61300828D01*
X163333082Y-61300828D01*
X163333082Y-61800828D01*
X163333584Y-61805931D01*
X163333259Y-61808119D01*
X163334878Y-61819069D01*
X163335964Y-61830092D01*
X163336811Y-61832136D01*
X163337561Y-61837208D01*
X163408989Y-62122922D01*
X163418882Y-62150613D01*
X163425521Y-62159573D01*
X163429789Y-62169877D01*
X163448444Y-62192608D01*
X163591302Y-62335466D01*
X163602806Y-62344907D01*
X163605401Y-62347899D01*
X163609910Y-62350737D01*
X163614033Y-62354121D01*
X163617694Y-62355637D01*
X163630286Y-62363564D01*
X163773144Y-62434992D01*
X163800607Y-62445502D01*
X163805982Y-62445883D01*
X163810961Y-62447946D01*
X163840225Y-62450828D01*
X164125939Y-62450828D01*
X164155203Y-62447946D01*
X164160181Y-62445883D01*
X164165557Y-62445502D01*
X164193021Y-62434992D01*
X164335878Y-62363564D01*
X164348469Y-62355637D01*
X164352132Y-62354121D01*
X164356254Y-62350737D01*
X164360764Y-62347899D01*
X164363359Y-62344906D01*
X164374862Y-62335466D01*
X164517719Y-62192608D01*
X164536374Y-62169877D01*
X164540640Y-62159575D01*
X164547281Y-62150614D01*
X164557174Y-62122923D01*
X164628603Y-61837209D01*
X164629353Y-61832136D01*
X164630200Y-61830092D01*
X164631285Y-61819072D01*
X164632905Y-61808120D01*
X164632579Y-61805931D01*
X164633082Y-61800828D01*
X164633082Y-61300828D01*
X164632579Y-61295724D01*
X164632905Y-61293536D01*
X164631285Y-61282583D01*
X164630200Y-61271564D01*
X164629353Y-61269519D01*
X164628603Y-61264447D01*
X164557174Y-60978733D01*
X164547281Y-60951042D01*
X164540641Y-60942081D01*
X164536374Y-60931778D01*
X164517719Y-60909048D01*
X164409499Y-60800828D01*
X164975939Y-60800828D01*
X164975939Y-62300828D01*
X164978821Y-62330092D01*
X165001219Y-62384164D01*
X165042603Y-62425548D01*
X165096675Y-62447946D01*
X165155203Y-62447946D01*
X165209275Y-62425548D01*
X165250659Y-62384164D01*
X165273057Y-62330092D01*
X165275939Y-62300828D01*
X165275939Y-61365661D01*
X165852846Y-62375249D01*
X165857223Y-62381416D01*
X165858362Y-62384164D01*
X165861161Y-62386963D01*
X165869867Y-62399227D01*
X165885640Y-62411442D01*
X165899746Y-62425548D01*
X165908579Y-62429206D01*
X165916141Y-62435063D01*
X165935389Y-62440312D01*
X165953818Y-62447946D01*
X165963380Y-62447946D01*
X165972605Y-62450462D01*
X165992396Y-62447946D01*
X166012346Y-62447946D01*
X166021179Y-62444286D01*
X166030665Y-62443081D01*
X166047987Y-62433182D01*
X166066418Y-62425548D01*
X166073178Y-62418787D01*
X166081481Y-62414043D01*
X166093694Y-62398271D01*
X166107802Y-62384164D01*
X166111461Y-62375328D01*
X166117316Y-62367769D01*
X166122564Y-62348524D01*
X166130200Y-62330092D01*
X166131673Y-62315127D01*
X166132716Y-62311306D01*
X166132340Y-62308354D01*
X166133082Y-62300828D01*
X166133082Y-60800828D01*
X166130200Y-60771564D01*
X166107802Y-60717492D01*
X166066418Y-60676108D01*
X166012346Y-60653710D01*
X165953818Y-60653710D01*
X165899746Y-60676108D01*
X165858362Y-60717492D01*
X165835964Y-60771564D01*
X165833082Y-60800828D01*
X165833082Y-61735992D01*
X165256175Y-60726407D01*
X165251797Y-60720239D01*
X165250659Y-60717492D01*
X165247859Y-60714692D01*
X165239154Y-60702429D01*
X165223382Y-60690215D01*
X165209275Y-60676108D01*
X165200439Y-60672448D01*
X165192880Y-60666594D01*
X165173635Y-60661345D01*
X165155203Y-60653710D01*
X165145641Y-60653710D01*
X165136416Y-60651194D01*
X165116625Y-60653710D01*
X165096675Y-60653710D01*
X165087841Y-60657369D01*
X165078356Y-60658575D01*
X165061033Y-60668473D01*
X165042603Y-60676108D01*
X165035842Y-60682868D01*
X165027540Y-60687613D01*
X165015326Y-60703384D01*
X165001219Y-60717492D01*
X164997559Y-60726327D01*
X164991705Y-60733887D01*
X164986456Y-60753131D01*
X164978821Y-60771564D01*
X164977347Y-60786530D01*
X164976305Y-60790351D01*
X164976680Y-60793302D01*
X164975939Y-60800828D01*
X164409499Y-60800828D01*
X164374862Y-60766191D01*
X164363360Y-60756751D01*
X164360764Y-60753758D01*
X164356250Y-60750917D01*
X164352131Y-60747536D01*
X164348471Y-60746020D01*
X164335878Y-60738093D01*
X164193021Y-60666664D01*
X164165558Y-60656155D01*
X164160183Y-60655773D01*
X164155203Y-60653710D01*
X164125939Y-60650828D01*
X163840225Y-60650828D01*
X163810961Y-60653710D01*
X163805980Y-60655773D01*
X163800606Y-60656155D01*
X163773142Y-60666664D01*
X163630286Y-60738093D01*
X163617692Y-60746020D01*
X163614033Y-60747536D01*
X163609913Y-60750917D01*
X163605400Y-60753758D01*
X163602803Y-60756752D01*
X163591302Y-60766191D01*
X163448444Y-60909048D01*
X163429789Y-60931778D01*
X163425520Y-60942083D01*
X163418882Y-60951043D01*
X163408989Y-60978734D01*
X163337561Y-61264448D01*
X163336811Y-61269519D01*
X163335964Y-61271564D01*
X163334878Y-61282586D01*
X163333259Y-61293537D01*
X163333584Y-61295724D01*
X163333082Y-61300828D01*
X163166415Y-61300828D01*
X163166415Y-60484161D01*
X166299749Y-60484161D01*
X166299749Y-62617495D01*
G37*
D11*
X102000000Y-118000000D02*
G75*
G02*
X112000000Y-128000000I0J-10000000D01*
G01*
X115000000Y-131000000D02*
G75*
G02*
X112000000Y-128000000I0J3000000D01*
G01*
X98000000Y-39000000D02*
X184000000Y-39000000D01*
X170000000Y-128000000D02*
G75*
G02*
X180000000Y-118000000I10000000J0D01*
G01*
X102000000Y-118000000D02*
X98000000Y-118000000D01*
X98000000Y-118000000D02*
G75*
G02*
X95000000Y-115000000I0J3000000D01*
G01*
X184000000Y-118000000D02*
X180000000Y-118000000D01*
X184000000Y-39000000D02*
G75*
G02*
X187000000Y-42000000I0J-3000000D01*
G01*
X95000000Y-115000000D02*
X95000000Y-42000000D01*
X95000000Y-42000000D02*
G75*
G02*
X98000000Y-39000000I3000000J0D01*
G01*
X167000000Y-131000000D02*
X115000000Y-131000000D01*
X187000000Y-42000000D02*
X187000000Y-115000000D01*
X170000000Y-128000000D02*
G75*
G02*
X167000000Y-131000000I-3000000J0D01*
G01*
X187000000Y-115000000D02*
G75*
G02*
X184000000Y-118000000I-3000000J0D01*
G01*
D12*
X164666666Y-120279819D02*
X164666666Y-120994104D01*
X164666666Y-120994104D02*
X164619047Y-121136961D01*
X164619047Y-121136961D02*
X164523809Y-121232200D01*
X164523809Y-121232200D02*
X164380952Y-121279819D01*
X164380952Y-121279819D02*
X164285714Y-121279819D01*
X165619047Y-120279819D02*
X165142857Y-120279819D01*
X165142857Y-120279819D02*
X165095238Y-120756009D01*
X165095238Y-120756009D02*
X165142857Y-120708390D01*
X165142857Y-120708390D02*
X165238095Y-120660771D01*
X165238095Y-120660771D02*
X165476190Y-120660771D01*
X165476190Y-120660771D02*
X165571428Y-120708390D01*
X165571428Y-120708390D02*
X165619047Y-120756009D01*
X165619047Y-120756009D02*
X165666666Y-120851247D01*
X165666666Y-120851247D02*
X165666666Y-121089342D01*
X165666666Y-121089342D02*
X165619047Y-121184580D01*
X165619047Y-121184580D02*
X165571428Y-121232200D01*
X165571428Y-121232200D02*
X165476190Y-121279819D01*
X165476190Y-121279819D02*
X165238095Y-121279819D01*
X165238095Y-121279819D02*
X165142857Y-121232200D01*
X165142857Y-121232200D02*
X165095238Y-121184580D01*
X117666666Y-120779819D02*
X117666666Y-121494104D01*
X117666666Y-121494104D02*
X117619047Y-121636961D01*
X117619047Y-121636961D02*
X117523809Y-121732200D01*
X117523809Y-121732200D02*
X117380952Y-121779819D01*
X117380952Y-121779819D02*
X117285714Y-121779819D01*
X118571428Y-121113152D02*
X118571428Y-121779819D01*
X118333333Y-120732200D02*
X118095238Y-121446485D01*
X118095238Y-121446485D02*
X118714285Y-121446485D01*
X122166666Y-120779819D02*
X122166666Y-121494104D01*
X122166666Y-121494104D02*
X122119047Y-121636961D01*
X122119047Y-121636961D02*
X122023809Y-121732200D01*
X122023809Y-121732200D02*
X121880952Y-121779819D01*
X121880952Y-121779819D02*
X121785714Y-121779819D01*
X122547619Y-120779819D02*
X123166666Y-120779819D01*
X123166666Y-120779819D02*
X122833333Y-121160771D01*
X122833333Y-121160771D02*
X122976190Y-121160771D01*
X122976190Y-121160771D02*
X123071428Y-121208390D01*
X123071428Y-121208390D02*
X123119047Y-121256009D01*
X123119047Y-121256009D02*
X123166666Y-121351247D01*
X123166666Y-121351247D02*
X123166666Y-121589342D01*
X123166666Y-121589342D02*
X123119047Y-121684580D01*
X123119047Y-121684580D02*
X123071428Y-121732200D01*
X123071428Y-121732200D02*
X122976190Y-121779819D01*
X122976190Y-121779819D02*
X122690476Y-121779819D01*
X122690476Y-121779819D02*
X122595238Y-121732200D01*
X122595238Y-121732200D02*
X122547619Y-121684580D01*
X160166666Y-120254819D02*
X160166666Y-120969104D01*
X160166666Y-120969104D02*
X160119047Y-121111961D01*
X160119047Y-121111961D02*
X160023809Y-121207200D01*
X160023809Y-121207200D02*
X159880952Y-121254819D01*
X159880952Y-121254819D02*
X159785714Y-121254819D01*
X160595238Y-120350057D02*
X160642857Y-120302438D01*
X160642857Y-120302438D02*
X160738095Y-120254819D01*
X160738095Y-120254819D02*
X160976190Y-120254819D01*
X160976190Y-120254819D02*
X161071428Y-120302438D01*
X161071428Y-120302438D02*
X161119047Y-120350057D01*
X161119047Y-120350057D02*
X161166666Y-120445295D01*
X161166666Y-120445295D02*
X161166666Y-120540533D01*
X161166666Y-120540533D02*
X161119047Y-120683390D01*
X161119047Y-120683390D02*
X160547619Y-121254819D01*
X160547619Y-121254819D02*
X161166666Y-121254819D01*
D13*
%TO.C,J5*%
X166110000Y-117365000D02*
X166110000Y-107735000D01*
X163890000Y-117365000D02*
X163890000Y-107735000D01*
%TO.C,J4*%
X119110000Y-117865000D02*
X119110000Y-108235000D01*
X116890000Y-117865000D02*
X116890000Y-108235000D01*
%TO.C,J3*%
X123610000Y-117865000D02*
X123610000Y-108235000D01*
X121390000Y-117865000D02*
X121390000Y-108235000D01*
%TO.C,J2*%
X161610000Y-117340000D02*
X161610000Y-107710000D01*
X159390000Y-117340000D02*
X159390000Y-107710000D01*
D14*
%TO.C,G\u002A\u002A\u002A*%
G36*
X111403702Y-82421250D02*
G01*
X111403702Y-83746202D01*
X110078750Y-83746202D01*
X108753798Y-83746202D01*
X108753798Y-83343221D01*
X109156779Y-83343221D01*
X110078750Y-83343221D01*
X111000721Y-83343221D01*
X111000721Y-82421250D01*
X111000721Y-81499279D01*
X110078750Y-81499279D01*
X109156779Y-81499279D01*
X109156779Y-82421250D01*
X109156779Y-83343221D01*
X108753798Y-83343221D01*
X108753798Y-82421250D01*
X108753798Y-81096298D01*
X110078750Y-81096298D01*
X111403702Y-81096298D01*
X111403702Y-82421250D01*
G37*
G36*
X112160817Y-83556923D02*
G01*
X112160817Y-83746202D01*
X111971538Y-83746202D01*
X111782259Y-83746202D01*
X111782259Y-83556923D01*
X111782259Y-83367644D01*
X111971538Y-83367644D01*
X112160817Y-83367644D01*
X112160817Y-83556923D01*
G37*
G36*
X114053606Y-83367644D02*
G01*
X114053606Y-83746202D01*
X113485769Y-83746202D01*
X112917933Y-83746202D01*
X112917933Y-83367644D01*
X112917933Y-82989086D01*
X113485769Y-82989086D01*
X114053606Y-82989086D01*
X114053606Y-83367644D01*
G37*
G36*
X117460625Y-73903702D02*
G01*
X117460625Y-74282259D01*
X117271346Y-74282259D01*
X117082067Y-74282259D01*
X117082067Y-74471538D01*
X117082067Y-74660817D01*
X116514231Y-74660817D01*
X115946394Y-74660817D01*
X115946394Y-74850096D01*
X115946394Y-75039375D01*
X115757115Y-75039375D01*
X115567836Y-75039375D01*
X115567836Y-75228654D01*
X115567836Y-75417933D01*
X115946394Y-75417933D01*
X116324952Y-75417933D01*
X116324952Y-75228654D01*
X116324952Y-75039375D01*
X116703509Y-75039375D01*
X117082067Y-75039375D01*
X117082067Y-75417933D01*
X117082067Y-75796490D01*
X117271346Y-75796490D01*
X117460625Y-75796490D01*
X117460625Y-75228654D01*
X117460625Y-74660817D01*
X117649904Y-74660817D01*
X117839183Y-74660817D01*
X117839183Y-75417933D01*
X117839183Y-76175048D01*
X117460625Y-76175048D01*
X117082067Y-76175048D01*
X117082067Y-76364327D01*
X117082067Y-76553606D01*
X116892788Y-76553606D01*
X116703509Y-76553606D01*
X116703509Y-76364327D01*
X116703509Y-76175048D01*
X116514231Y-76175048D01*
X116324952Y-76175048D01*
X116324952Y-76553606D01*
X116324952Y-76932163D01*
X116892788Y-76932163D01*
X117460625Y-76932163D01*
X117460625Y-76742884D01*
X117460625Y-76553606D01*
X118217740Y-76553606D01*
X118974856Y-76553606D01*
X118974856Y-76364327D01*
X118974856Y-76175048D01*
X118785577Y-76175048D01*
X118596298Y-76175048D01*
X118596298Y-75985769D01*
X118596298Y-75796490D01*
X118785577Y-75796490D01*
X118974856Y-75796490D01*
X118974856Y-75985769D01*
X118974856Y-76175048D01*
X119164134Y-76175048D01*
X119353413Y-76175048D01*
X119353413Y-75985769D01*
X119353413Y-75796490D01*
X119731971Y-75796490D01*
X120110529Y-75796490D01*
X120110529Y-76175048D01*
X120110529Y-76553606D01*
X120489086Y-76553606D01*
X120867644Y-76553606D01*
X120867644Y-76742884D01*
X120867644Y-76932163D01*
X120489086Y-76932163D01*
X120110529Y-76932163D01*
X120110529Y-77121442D01*
X120110529Y-77310721D01*
X119921250Y-77310721D01*
X119731971Y-77310721D01*
X119731971Y-77500000D01*
X119731971Y-77689279D01*
X120110529Y-77689279D01*
X120489086Y-77689279D01*
X120489086Y-77500000D01*
X120489086Y-77310721D01*
X120678365Y-77310721D01*
X120867644Y-77310721D01*
X120867644Y-77878558D01*
X120867644Y-78446394D01*
X120678365Y-78446394D01*
X120489086Y-78446394D01*
X120489086Y-78257115D01*
X120489086Y-78067836D01*
X120299808Y-78067836D01*
X120110529Y-78067836D01*
X120110529Y-78257115D01*
X120110529Y-78446394D01*
X119921250Y-78446394D01*
X119731971Y-78446394D01*
X119731971Y-78067836D01*
X119731971Y-77689279D01*
X119542692Y-77689279D01*
X119353413Y-77689279D01*
X119353413Y-77121442D01*
X119353413Y-76553606D01*
X119542692Y-76553606D01*
X119731971Y-76553606D01*
X119731971Y-76364327D01*
X119731971Y-76175048D01*
X119542692Y-76175048D01*
X119353413Y-76175048D01*
X119353413Y-76364327D01*
X119353413Y-76553606D01*
X119164134Y-76553606D01*
X118974856Y-76553606D01*
X118974856Y-77121442D01*
X118974856Y-77689279D01*
X118785577Y-77689279D01*
X118596298Y-77689279D01*
X118596298Y-77878558D01*
X118596298Y-78067836D01*
X118407019Y-78067836D01*
X118217740Y-78067836D01*
X118217740Y-77878558D01*
X118217740Y-77689279D01*
X118407019Y-77689279D01*
X118596298Y-77689279D01*
X118596298Y-77500000D01*
X118596298Y-77310721D01*
X118407019Y-77310721D01*
X118217740Y-77310721D01*
X118217740Y-77500000D01*
X118217740Y-77689279D01*
X118028461Y-77689279D01*
X117839183Y-77689279D01*
X117839183Y-78067836D01*
X117839183Y-78446394D01*
X118028461Y-78446394D01*
X118217740Y-78446394D01*
X118217740Y-78824952D01*
X118217740Y-79203509D01*
X118407019Y-79203509D01*
X118596298Y-79203509D01*
X118596298Y-78824952D01*
X118596298Y-78446394D01*
X118785577Y-78446394D01*
X118974856Y-78446394D01*
X118974856Y-78257115D01*
X118974856Y-78067836D01*
X119164134Y-78067836D01*
X119353413Y-78067836D01*
X119353413Y-78446394D01*
X119353413Y-78824952D01*
X119164134Y-78824952D01*
X118974856Y-78824952D01*
X118974856Y-79014231D01*
X118974856Y-79203509D01*
X118785577Y-79203509D01*
X118596298Y-79203509D01*
X118596298Y-79582067D01*
X118596298Y-79960625D01*
X118785577Y-79960625D01*
X118974856Y-79960625D01*
X118974856Y-79582067D01*
X119353413Y-79582067D01*
X119542692Y-79582067D01*
X119731971Y-79582067D01*
X119731971Y-79392788D01*
X119731971Y-79203509D01*
X119542692Y-79203509D01*
X119353413Y-79203509D01*
X119353413Y-79392788D01*
X119353413Y-79582067D01*
X118974856Y-79582067D01*
X118974856Y-79392788D01*
X118974856Y-79203509D01*
X119164134Y-79203509D01*
X119353413Y-79203509D01*
X119353413Y-79014231D01*
X119353413Y-78824952D01*
X119731971Y-78824952D01*
X120110529Y-78824952D01*
X120110529Y-79203509D01*
X120110529Y-79582067D01*
X120299808Y-79582067D01*
X120489086Y-79582067D01*
X120489086Y-79392788D01*
X120489086Y-79203509D01*
X120678365Y-79203509D01*
X120867644Y-79203509D01*
X120867644Y-79582067D01*
X120867644Y-79960625D01*
X120489086Y-79960625D01*
X120110529Y-79960625D01*
X120110529Y-79771346D01*
X120110529Y-79582067D01*
X119921250Y-79582067D01*
X119731971Y-79582067D01*
X119731971Y-79960625D01*
X119731971Y-80339183D01*
X120489086Y-80339183D01*
X121246202Y-80339183D01*
X121246202Y-80528461D01*
X121246202Y-80717740D01*
X121056923Y-80717740D01*
X120867644Y-80717740D01*
X120867644Y-81096298D01*
X120867644Y-81474856D01*
X120678365Y-81474856D01*
X120489086Y-81474856D01*
X120489086Y-81285577D01*
X120489086Y-81096298D01*
X120299808Y-81096298D01*
X120110529Y-81096298D01*
X120110529Y-81285577D01*
X120110529Y-81474856D01*
X119921250Y-81474856D01*
X119731971Y-81474856D01*
X119731971Y-81664134D01*
X119731971Y-81853413D01*
X119921250Y-81853413D01*
X120110529Y-81853413D01*
X120110529Y-82042692D01*
X120110529Y-82231971D01*
X119921250Y-82231971D01*
X119731971Y-82231971D01*
X119731971Y-82610529D01*
X119731971Y-82989086D01*
X119353413Y-82989086D01*
X118974856Y-82989086D01*
X118974856Y-83367644D01*
X118974856Y-83746202D01*
X118785577Y-83746202D01*
X118596298Y-83746202D01*
X118596298Y-82989086D01*
X118596298Y-82231971D01*
X118407019Y-82231971D01*
X118217740Y-82231971D01*
X118217740Y-82989086D01*
X118217740Y-83746202D01*
X117271346Y-83746202D01*
X116324952Y-83746202D01*
X116324952Y-83556923D01*
X116324952Y-83367644D01*
X116135673Y-83367644D01*
X115946394Y-83367644D01*
X115946394Y-83178365D01*
X115946394Y-82989086D01*
X115757115Y-82989086D01*
X115567836Y-82989086D01*
X115567836Y-83178365D01*
X115567836Y-83367644D01*
X115378558Y-83367644D01*
X115189279Y-83367644D01*
X115189279Y-83178365D01*
X115189279Y-82989086D01*
X115000000Y-82989086D01*
X114810721Y-82989086D01*
X114810721Y-82610529D01*
X114810721Y-82231971D01*
X115189279Y-82231971D01*
X115567836Y-82231971D01*
X115567836Y-82421250D01*
X115567836Y-82610529D01*
X115378558Y-82610529D01*
X115189279Y-82610529D01*
X115189279Y-82799808D01*
X115189279Y-82989086D01*
X115378558Y-82989086D01*
X115567836Y-82989086D01*
X115567836Y-82799808D01*
X115567836Y-82610529D01*
X115757115Y-82610529D01*
X115946394Y-82610529D01*
X115946394Y-82421250D01*
X115946394Y-82231971D01*
X116135673Y-82231971D01*
X116324952Y-82231971D01*
X116324952Y-82610529D01*
X116324952Y-82989086D01*
X116703509Y-82989086D01*
X117082067Y-82989086D01*
X117082067Y-83178365D01*
X117082067Y-83367644D01*
X117271346Y-83367644D01*
X117460625Y-83367644D01*
X117460625Y-82799808D01*
X117460625Y-82231971D01*
X117649904Y-82231971D01*
X117839183Y-82231971D01*
X117839183Y-81853413D01*
X118217740Y-81853413D01*
X118785577Y-81853413D01*
X119353413Y-81853413D01*
X119353413Y-81285577D01*
X119353413Y-81096298D01*
X119731971Y-81096298D01*
X119921250Y-81096298D01*
X120110529Y-81096298D01*
X120110529Y-80907019D01*
X120110529Y-80717740D01*
X119921250Y-80717740D01*
X119731971Y-80717740D01*
X119731971Y-80907019D01*
X119731971Y-81096298D01*
X119353413Y-81096298D01*
X119353413Y-80907019D01*
X119353413Y-80717740D01*
X118785577Y-80717740D01*
X118217740Y-80717740D01*
X118217740Y-81285577D01*
X118217740Y-81853413D01*
X117839183Y-81853413D01*
X117839183Y-81664134D01*
X117839183Y-81285577D01*
X117839183Y-81096298D01*
X117649904Y-81096298D01*
X117460625Y-81096298D01*
X117460625Y-80907019D01*
X117460625Y-80717740D01*
X117271346Y-80717740D01*
X117082067Y-80717740D01*
X117082067Y-81096298D01*
X117082067Y-81474856D01*
X117271346Y-81474856D01*
X117460625Y-81474856D01*
X117460625Y-81664134D01*
X117460625Y-81853413D01*
X117082067Y-81853413D01*
X116703509Y-81853413D01*
X116703509Y-82042692D01*
X116703509Y-82231971D01*
X116514231Y-82231971D01*
X116324952Y-82231971D01*
X116324952Y-81474856D01*
X116324952Y-80717740D01*
X116135673Y-80717740D01*
X115946394Y-80717740D01*
X115946394Y-80528461D01*
X115946394Y-80339183D01*
X116324952Y-80339183D01*
X116703509Y-80339183D01*
X116703509Y-80149904D01*
X116703509Y-79960625D01*
X116892788Y-79960625D01*
X117082067Y-79960625D01*
X117082067Y-80149904D01*
X117082067Y-80339183D01*
X117460625Y-80339183D01*
X117839183Y-80339183D01*
X118974856Y-80339183D01*
X119164134Y-80339183D01*
X119353413Y-80339183D01*
X119353413Y-80149904D01*
X119353413Y-79960625D01*
X119164134Y-79960625D01*
X118974856Y-79960625D01*
X118974856Y-80149904D01*
X118974856Y-80339183D01*
X117839183Y-80339183D01*
X117839183Y-80149904D01*
X117839183Y-79960625D01*
X118028461Y-79960625D01*
X118217740Y-79960625D01*
X118217740Y-79582067D01*
X118217740Y-79203509D01*
X118028461Y-79203509D01*
X117839183Y-79203509D01*
X117839183Y-79014231D01*
X117839183Y-78824952D01*
X117649904Y-78824952D01*
X117460625Y-78824952D01*
X117460625Y-78257115D01*
X117460625Y-77689279D01*
X117649904Y-77689279D01*
X117839183Y-77689279D01*
X117839183Y-77500000D01*
X117839183Y-77310721D01*
X117839183Y-76932163D01*
X117649904Y-76932163D01*
X117460625Y-76932163D01*
X117460625Y-77310721D01*
X117460625Y-77689279D01*
X116892788Y-77689279D01*
X116324952Y-77689279D01*
X116324952Y-77500000D01*
X116324952Y-77310721D01*
X115946394Y-77310721D01*
X115567836Y-77310721D01*
X115567836Y-77500000D01*
X115567836Y-77689279D01*
X115946394Y-77689279D01*
X116324952Y-77689279D01*
X116324952Y-77878558D01*
X116324952Y-78067836D01*
X116135673Y-78067836D01*
X115946394Y-78067836D01*
X115946394Y-78257115D01*
X115946394Y-78446394D01*
X115757115Y-78446394D01*
X115567836Y-78446394D01*
X115567836Y-78257115D01*
X115567836Y-78067836D01*
X115189279Y-78067836D01*
X114810721Y-78067836D01*
X114810721Y-78257115D01*
X114810721Y-78446394D01*
X115000000Y-78446394D01*
X115189279Y-78446394D01*
X115189279Y-78824952D01*
X115189279Y-79203509D01*
X115000000Y-79203509D01*
X114810721Y-79203509D01*
X114810721Y-79014231D01*
X114810721Y-78824952D01*
X114621442Y-78824952D01*
X114432163Y-78824952D01*
X114432163Y-78635673D01*
X114432163Y-78446394D01*
X114053606Y-78446394D01*
X113675048Y-78446394D01*
X113675048Y-78635673D01*
X113675048Y-78824952D01*
X112917933Y-78824952D01*
X112160817Y-78824952D01*
X112160817Y-79582067D01*
X112160817Y-80339183D01*
X112350096Y-80339183D01*
X112539375Y-80339183D01*
X112539375Y-80717740D01*
X112539375Y-81096298D01*
X112728654Y-81096298D01*
X112917933Y-81096298D01*
X112917933Y-80907019D01*
X112917933Y-80717740D01*
X113107211Y-80717740D01*
X113296490Y-80717740D01*
X113296490Y-80528461D01*
X113296490Y-80339183D01*
X113485769Y-80339183D01*
X113675048Y-80339183D01*
X113675048Y-80149904D01*
X113675048Y-79960625D01*
X113107211Y-79960625D01*
X112539375Y-79960625D01*
X112539375Y-79582067D01*
X112539375Y-79203509D01*
X112728654Y-79203509D01*
X112917933Y-79203509D01*
X112917933Y-79392788D01*
X112917933Y-79582067D01*
X113296490Y-79582067D01*
X113675048Y-79582067D01*
X113675048Y-79392788D01*
X113675048Y-79203509D01*
X113864327Y-79203509D01*
X114053606Y-79203509D01*
X114053606Y-79392788D01*
X114053606Y-79582067D01*
X114432163Y-79582067D01*
X114810721Y-79582067D01*
X114810721Y-79771346D01*
X114810721Y-79960625D01*
X115000000Y-79960625D01*
X115189279Y-79960625D01*
X115189279Y-79771346D01*
X115189279Y-79582067D01*
X115378558Y-79582067D01*
X115567836Y-79582067D01*
X115567836Y-79771346D01*
X115567836Y-79960625D01*
X115757115Y-79960625D01*
X115946394Y-79960625D01*
X115946394Y-80149904D01*
X115946394Y-80339183D01*
X115757115Y-80339183D01*
X115567836Y-80339183D01*
X115567836Y-80528461D01*
X115567836Y-80717740D01*
X115378558Y-80717740D01*
X115189279Y-80717740D01*
X115189279Y-80907019D01*
X115189279Y-81096298D01*
X115000000Y-81096298D01*
X114810721Y-81096298D01*
X114810721Y-81664134D01*
X114810721Y-82231971D01*
X114621442Y-82231971D01*
X114432163Y-82231971D01*
X114432163Y-81853413D01*
X114432163Y-81474856D01*
X114242884Y-81474856D01*
X114053606Y-81474856D01*
X114053606Y-81285577D01*
X114053606Y-81096298D01*
X114242884Y-81096298D01*
X114432163Y-81096298D01*
X114432163Y-80907019D01*
X114432163Y-80717740D01*
X114810721Y-80717740D01*
X115189279Y-80717740D01*
X115189279Y-80528461D01*
X115189279Y-80339183D01*
X114810721Y-80339183D01*
X114432163Y-80339183D01*
X114432163Y-80149904D01*
X114432163Y-79960625D01*
X114242884Y-79960625D01*
X114053606Y-79960625D01*
X114053606Y-80149904D01*
X114053606Y-80339183D01*
X113864327Y-80339183D01*
X113675048Y-80339183D01*
X113675048Y-80528461D01*
X113675048Y-80717740D01*
X113485769Y-80717740D01*
X113296490Y-80717740D01*
X113296490Y-81096298D01*
X113296490Y-81474856D01*
X112539375Y-81474856D01*
X111782259Y-81474856D01*
X111782259Y-81096298D01*
X111782259Y-80717740D01*
X111403702Y-80717740D01*
X111025144Y-80717740D01*
X111025144Y-80528461D01*
X111025144Y-80339183D01*
X111403702Y-80339183D01*
X111782259Y-80339183D01*
X111782259Y-80149904D01*
X111782259Y-79960625D01*
X111403702Y-79960625D01*
X111025144Y-79960625D01*
X111025144Y-79771346D01*
X111025144Y-79582067D01*
X111214423Y-79582067D01*
X111403702Y-79582067D01*
X111403702Y-79392788D01*
X111403702Y-79203509D01*
X111214423Y-79203509D01*
X111025144Y-79203509D01*
X111025144Y-79014231D01*
X111025144Y-78824952D01*
X111214423Y-78824952D01*
X111403702Y-78824952D01*
X111403702Y-78635673D01*
X111403702Y-78446394D01*
X111214423Y-78446394D01*
X111025144Y-78446394D01*
X111025144Y-78257115D01*
X111025144Y-78067836D01*
X111214423Y-78067836D01*
X111403702Y-78067836D01*
X111403702Y-77878558D01*
X111403702Y-77689279D01*
X111592981Y-77689279D01*
X111782259Y-77689279D01*
X111782259Y-78067836D01*
X111782259Y-78446394D01*
X112160817Y-78446394D01*
X112539375Y-78446394D01*
X112917933Y-78446394D01*
X113107211Y-78446394D01*
X113296490Y-78446394D01*
X113296490Y-78257115D01*
X113296490Y-78067836D01*
X113107211Y-78067836D01*
X112917933Y-78067836D01*
X112917933Y-78257115D01*
X112917933Y-78446394D01*
X112539375Y-78446394D01*
X112539375Y-78257115D01*
X112539375Y-78067836D01*
X112350096Y-78067836D01*
X112160817Y-78067836D01*
X112160817Y-77689279D01*
X112160817Y-77310721D01*
X112350096Y-77310721D01*
X112539375Y-77310721D01*
X112539375Y-77121442D01*
X112539375Y-76932163D01*
X112350096Y-76932163D01*
X112160817Y-76932163D01*
X112160817Y-77121442D01*
X112160817Y-77310721D01*
X111971538Y-77310721D01*
X111782259Y-77310721D01*
X111782259Y-77121442D01*
X111782259Y-76932163D01*
X111971538Y-76932163D01*
X112160817Y-76932163D01*
X112160817Y-76742884D01*
X112160817Y-76553606D01*
X111971538Y-76553606D01*
X111782259Y-76553606D01*
X111782259Y-76742884D01*
X111782259Y-76932163D01*
X111214423Y-76932163D01*
X110646586Y-76932163D01*
X110646586Y-76742884D01*
X110646586Y-76553606D01*
X111214423Y-76553606D01*
X111782259Y-76553606D01*
X111782259Y-75985769D01*
X111782259Y-75417933D01*
X111971538Y-75417933D01*
X112160817Y-75417933D01*
X112160817Y-75796490D01*
X112160817Y-76175048D01*
X112350096Y-76175048D01*
X112539375Y-76175048D01*
X112539375Y-75985769D01*
X112539375Y-75796490D01*
X112728654Y-75796490D01*
X112917933Y-75796490D01*
X112917933Y-76364327D01*
X112917933Y-76932163D01*
X113107211Y-76932163D01*
X113296490Y-76932163D01*
X113296490Y-77121442D01*
X113296490Y-77310721D01*
X113107211Y-77310721D01*
X112917933Y-77310721D01*
X112917933Y-77500000D01*
X112917933Y-77689279D01*
X112728654Y-77689279D01*
X112539375Y-77689279D01*
X112539375Y-77878558D01*
X112539375Y-78067836D01*
X112728654Y-78067836D01*
X112917933Y-78067836D01*
X112917933Y-77878558D01*
X112917933Y-77689279D01*
X113107211Y-77689279D01*
X113296490Y-77689279D01*
X113296490Y-77878558D01*
X113296490Y-78067836D01*
X113864327Y-78067836D01*
X114432163Y-78067836D01*
X114432163Y-77878558D01*
X114432163Y-77689279D01*
X114242884Y-77689279D01*
X114053606Y-77689279D01*
X114053606Y-77500000D01*
X114053606Y-77310721D01*
X114432163Y-77310721D01*
X114810721Y-77310721D01*
X114810721Y-77500000D01*
X114810721Y-77689279D01*
X115000000Y-77689279D01*
X115189279Y-77689279D01*
X115189279Y-77310721D01*
X115189279Y-76932163D01*
X115378558Y-76932163D01*
X115567836Y-76932163D01*
X115567836Y-76742884D01*
X115567836Y-76553606D01*
X115757115Y-76553606D01*
X115946394Y-76553606D01*
X115946394Y-76364327D01*
X115946394Y-76175048D01*
X116135673Y-76175048D01*
X116324952Y-76175048D01*
X116324952Y-75985769D01*
X116324952Y-75796490D01*
X116514231Y-75796490D01*
X116703509Y-75796490D01*
X116703509Y-75607211D01*
X116703509Y-75417933D01*
X116514231Y-75417933D01*
X116324952Y-75417933D01*
X116324952Y-75607211D01*
X116324952Y-75796490D01*
X116135673Y-75796490D01*
X115946394Y-75796490D01*
X115946394Y-75985769D01*
X115946394Y-76175048D01*
X115757115Y-76175048D01*
X115567836Y-76175048D01*
X115567836Y-75985769D01*
X115567836Y-75796490D01*
X115189279Y-75796490D01*
X114810721Y-75796490D01*
X114810721Y-75607211D01*
X114810721Y-75417933D01*
X115000000Y-75417933D01*
X115189279Y-75417933D01*
X115189279Y-75228654D01*
X115189279Y-75039375D01*
X115378558Y-75039375D01*
X115567836Y-75039375D01*
X115567836Y-74850096D01*
X115567836Y-74660817D01*
X115757115Y-74660817D01*
X115946394Y-74660817D01*
X115946394Y-74471538D01*
X115946394Y-74282259D01*
X116324952Y-74282259D01*
X116703509Y-74282259D01*
X116703509Y-74092981D01*
X116703509Y-73903702D01*
X116892788Y-73903702D01*
X117082067Y-73903702D01*
X117082067Y-73714423D01*
X117082067Y-73525144D01*
X117271346Y-73525144D01*
X117460625Y-73525144D01*
X117460625Y-73903702D01*
G37*
G36*
X113675048Y-81664134D02*
G01*
X113675048Y-81853413D01*
X113485769Y-81853413D01*
X113296490Y-81853413D01*
X113296490Y-82231971D01*
X113296490Y-82610529D01*
X113107211Y-82610529D01*
X112917933Y-82610529D01*
X112917933Y-82799808D01*
X112917933Y-82989086D01*
X112539375Y-82989086D01*
X112160817Y-82989086D01*
X112160817Y-82799808D01*
X112160817Y-82610529D01*
X112539375Y-82610529D01*
X112917933Y-82610529D01*
X112917933Y-82231971D01*
X112917933Y-81853413D01*
X113107211Y-81853413D01*
X113296490Y-81853413D01*
X113296490Y-81664134D01*
X113296490Y-81474856D01*
X113485769Y-81474856D01*
X113675048Y-81474856D01*
X113675048Y-81664134D01*
G37*
G36*
X120489086Y-82610529D02*
G01*
X120489086Y-82989086D01*
X120299808Y-82989086D01*
X120110529Y-82989086D01*
X120110529Y-82610529D01*
X120110529Y-82231971D01*
X120299808Y-82231971D01*
X120489086Y-82231971D01*
X120489086Y-82610529D01*
G37*
G36*
X114053606Y-82231971D02*
G01*
X114053606Y-82610529D01*
X113864327Y-82610529D01*
X113675048Y-82610529D01*
X113675048Y-82231971D01*
X113675048Y-81853413D01*
X113864327Y-81853413D01*
X114053606Y-81853413D01*
X114053606Y-82231971D01*
G37*
G36*
X121246202Y-81664134D02*
G01*
X121246202Y-81853413D01*
X121056923Y-81853413D01*
X120867644Y-81853413D01*
X120867644Y-81664134D01*
X120867644Y-81474856D01*
X121056923Y-81474856D01*
X121246202Y-81474856D01*
X121246202Y-81664134D01*
G37*
G36*
X121246202Y-78635673D02*
G01*
X121246202Y-78824952D01*
X121056923Y-78824952D01*
X120867644Y-78824952D01*
X120867644Y-78635673D01*
X120867644Y-78446394D01*
X121056923Y-78446394D01*
X121246202Y-78446394D01*
X121246202Y-78635673D01*
G37*
G36*
X111403702Y-77500000D02*
G01*
X111403702Y-77689279D01*
X111214423Y-77689279D01*
X111025144Y-77689279D01*
X111025144Y-77500000D01*
X111025144Y-77310721D01*
X111214423Y-77310721D01*
X111403702Y-77310721D01*
X111403702Y-77500000D01*
G37*
G36*
X114432163Y-76742884D02*
G01*
X114432163Y-76932163D01*
X114242884Y-76932163D01*
X114053606Y-76932163D01*
X114053606Y-77121442D01*
X114053606Y-77310721D01*
X113864327Y-77310721D01*
X113675048Y-77310721D01*
X113675048Y-77121442D01*
X113675048Y-76932163D01*
X113864327Y-76932163D01*
X114053606Y-76932163D01*
X114053606Y-76742884D01*
X114053606Y-76553606D01*
X114242884Y-76553606D01*
X114432163Y-76553606D01*
X114432163Y-76742884D01*
G37*
G36*
X118217740Y-72200192D02*
G01*
X118217740Y-72389471D01*
X118028461Y-72389471D01*
X117839183Y-72389471D01*
X117839183Y-72768029D01*
X117839183Y-73146586D01*
X117649904Y-73146586D01*
X117460625Y-73146586D01*
X117460625Y-72768029D01*
X117460625Y-72389471D01*
X117082067Y-72389471D01*
X116703509Y-72389471D01*
X116703509Y-72768029D01*
X116703509Y-73146586D01*
X116514231Y-73146586D01*
X116324952Y-73146586D01*
X116324952Y-73335865D01*
X116324952Y-73525144D01*
X116135673Y-73525144D01*
X115946394Y-73525144D01*
X115946394Y-73903702D01*
X115946394Y-74282259D01*
X115757115Y-74282259D01*
X115567836Y-74282259D01*
X115567836Y-74471538D01*
X115567836Y-74660817D01*
X115378558Y-74660817D01*
X115189279Y-74660817D01*
X115189279Y-74471538D01*
X115189279Y-74282259D01*
X114621442Y-74282259D01*
X114053606Y-74282259D01*
X114053606Y-73903702D01*
X114053606Y-73525144D01*
X113864327Y-73525144D01*
X113675048Y-73525144D01*
X113675048Y-73714423D01*
X113675048Y-73903702D01*
X113485769Y-73903702D01*
X113296490Y-73903702D01*
X113296490Y-74282259D01*
X113296490Y-74660817D01*
X114242884Y-74660817D01*
X115189279Y-74660817D01*
X115189279Y-74850096D01*
X115189279Y-75039375D01*
X115000000Y-75039375D01*
X114810721Y-75039375D01*
X114810721Y-75228654D01*
X114810721Y-75417933D01*
X114621442Y-75417933D01*
X114432163Y-75417933D01*
X114432163Y-75796490D01*
X114432163Y-76175048D01*
X114242884Y-76175048D01*
X114053606Y-76175048D01*
X114053606Y-76364327D01*
X114053606Y-76553606D01*
X113675048Y-76553606D01*
X113296490Y-76553606D01*
X113296490Y-76364327D01*
X113296490Y-76175048D01*
X113485769Y-76175048D01*
X113675048Y-76175048D01*
X113675048Y-75985769D01*
X113675048Y-75796490D01*
X113485769Y-75796490D01*
X113296490Y-75796490D01*
X113296490Y-75607211D01*
X113296490Y-75417933D01*
X113485769Y-75417933D01*
X113675048Y-75417933D01*
X113675048Y-75607211D01*
X113675048Y-75796490D01*
X113864327Y-75796490D01*
X114053606Y-75796490D01*
X114053606Y-75607211D01*
X114053606Y-75417933D01*
X114242884Y-75417933D01*
X114432163Y-75417933D01*
X114432163Y-75228654D01*
X114432163Y-75039375D01*
X113675048Y-75039375D01*
X112917933Y-75039375D01*
X112917933Y-75228654D01*
X112917933Y-75417933D01*
X112728654Y-75417933D01*
X112539375Y-75417933D01*
X112539375Y-75228654D01*
X112539375Y-75039375D01*
X112728654Y-75039375D01*
X112917933Y-75039375D01*
X112917933Y-74850096D01*
X112917933Y-74660817D01*
X111971538Y-74660817D01*
X111025144Y-74660817D01*
X111025144Y-74850096D01*
X111025144Y-75039375D01*
X111214423Y-75039375D01*
X111403702Y-75039375D01*
X111403702Y-75228654D01*
X111403702Y-75417933D01*
X111214423Y-75417933D01*
X111025144Y-75417933D01*
X111025144Y-75607211D01*
X111025144Y-75796490D01*
X111214423Y-75796490D01*
X111403702Y-75796490D01*
X111403702Y-75985769D01*
X111403702Y-76175048D01*
X111025144Y-76175048D01*
X110646586Y-76175048D01*
X110646586Y-75985769D01*
X110646586Y-75796490D01*
X110268029Y-75796490D01*
X109889471Y-75796490D01*
X109889471Y-75417933D01*
X110268029Y-75417933D01*
X110457308Y-75417933D01*
X110646586Y-75417933D01*
X110646586Y-75228654D01*
X110646586Y-75039375D01*
X110457308Y-75039375D01*
X110268029Y-75039375D01*
X110268029Y-75228654D01*
X110268029Y-75417933D01*
X109889471Y-75417933D01*
X109889471Y-75228654D01*
X109889471Y-74660817D01*
X110078750Y-74660817D01*
X110268029Y-74660817D01*
X110268029Y-74471538D01*
X110268029Y-74282259D01*
X110457308Y-74282259D01*
X110646586Y-74282259D01*
X110646586Y-74471538D01*
X110646586Y-74660817D01*
X110835865Y-74660817D01*
X111025144Y-74660817D01*
X111025144Y-74471538D01*
X111025144Y-74282259D01*
X111403702Y-74282259D01*
X111782259Y-74282259D01*
X111782259Y-73335865D01*
X111782259Y-72389471D01*
X112160817Y-72389471D01*
X112539375Y-72389471D01*
X112539375Y-72768029D01*
X112539375Y-73146586D01*
X112350096Y-73146586D01*
X112160817Y-73146586D01*
X112160817Y-73525144D01*
X112160817Y-73903702D01*
X112350096Y-73903702D01*
X112539375Y-73903702D01*
X112539375Y-73714423D01*
X112539375Y-73525144D01*
X112728654Y-73525144D01*
X112917933Y-73525144D01*
X112917933Y-73714423D01*
X112917933Y-73903702D01*
X113107211Y-73903702D01*
X113296490Y-73903702D01*
X113296490Y-73714423D01*
X113296490Y-73525144D01*
X113485769Y-73525144D01*
X113675048Y-73525144D01*
X113675048Y-73335865D01*
X113675048Y-73146586D01*
X113864327Y-73146586D01*
X114053606Y-73146586D01*
X114053606Y-72768029D01*
X114053606Y-72389471D01*
X114242884Y-72389471D01*
X114432163Y-72389471D01*
X114432163Y-73146586D01*
X114432163Y-73903702D01*
X114621442Y-73903702D01*
X114810721Y-73903702D01*
X114810721Y-73525144D01*
X114810721Y-73146586D01*
X115000000Y-73146586D01*
X115189279Y-73146586D01*
X115189279Y-73525144D01*
X115189279Y-73903702D01*
X115378558Y-73903702D01*
X115567836Y-73903702D01*
X115567836Y-73714423D01*
X115567836Y-73525144D01*
X115757115Y-73525144D01*
X115946394Y-73525144D01*
X115946394Y-73335865D01*
X115946394Y-73146586D01*
X115757115Y-73146586D01*
X115567836Y-73146586D01*
X115567836Y-72957308D01*
X115567836Y-72768029D01*
X115378558Y-72768029D01*
X115189279Y-72768029D01*
X115189279Y-72578750D01*
X115189279Y-72389471D01*
X115567836Y-72389471D01*
X115946394Y-72389471D01*
X115946394Y-72578750D01*
X115946394Y-72768029D01*
X116135673Y-72768029D01*
X116324952Y-72768029D01*
X116324952Y-72389471D01*
X116324952Y-72010913D01*
X117271346Y-72010913D01*
X118217740Y-72010913D01*
X118217740Y-72200192D01*
G37*
G36*
X120110529Y-74471538D02*
G01*
X120110529Y-74660817D01*
X120489086Y-74660817D01*
X120867644Y-74660817D01*
X120867644Y-74471538D01*
X120867644Y-74282259D01*
X121056923Y-74282259D01*
X121246202Y-74282259D01*
X121246202Y-74471538D01*
X121246202Y-74660817D01*
X121056923Y-74660817D01*
X120867644Y-74660817D01*
X120867644Y-75039375D01*
X120867644Y-75417933D01*
X121056923Y-75417933D01*
X121246202Y-75417933D01*
X121246202Y-75607211D01*
X121246202Y-75796490D01*
X120867644Y-75796490D01*
X120489086Y-75796490D01*
X120489086Y-75417933D01*
X120489086Y-75039375D01*
X120299808Y-75039375D01*
X120110529Y-75039375D01*
X120110529Y-75228654D01*
X120110529Y-75417933D01*
X119921250Y-75417933D01*
X119731971Y-75417933D01*
X119731971Y-75039375D01*
X119731971Y-74660817D01*
X119164134Y-74660817D01*
X118596298Y-74660817D01*
X118596298Y-75228654D01*
X118596298Y-75796490D01*
X118407019Y-75796490D01*
X118217740Y-75796490D01*
X118217740Y-75039375D01*
X118217740Y-74282259D01*
X119164134Y-74282259D01*
X120110529Y-74282259D01*
X120110529Y-74471538D01*
G37*
G36*
X118217740Y-73903702D02*
G01*
X118217740Y-74282259D01*
X118028461Y-74282259D01*
X117839183Y-74282259D01*
X117839183Y-73903702D01*
X117839183Y-73525144D01*
X118028461Y-73525144D01*
X118217740Y-73525144D01*
X118217740Y-73903702D01*
G37*
G36*
X117082067Y-73335865D02*
G01*
X117082067Y-73525144D01*
X116892788Y-73525144D01*
X116703509Y-73525144D01*
X116703509Y-73335865D01*
X116703509Y-73146586D01*
X116892788Y-73146586D01*
X117082067Y-73146586D01*
X117082067Y-73335865D01*
G37*
G36*
X114053606Y-72200192D02*
G01*
X114053606Y-72389471D01*
X113864327Y-72389471D01*
X113675048Y-72389471D01*
X113675048Y-72578750D01*
X113675048Y-72768029D01*
X113485769Y-72768029D01*
X113296490Y-72768029D01*
X113296490Y-72578750D01*
X113296490Y-72389471D01*
X113107211Y-72389471D01*
X112917933Y-72389471D01*
X112917933Y-72200192D01*
X112917933Y-72010913D01*
X113485769Y-72010913D01*
X114053606Y-72010913D01*
X114053606Y-72200192D01*
G37*
G36*
X115946394Y-71443077D02*
G01*
X115946394Y-71632356D01*
X115757115Y-71632356D01*
X115567836Y-71632356D01*
X115567836Y-71821634D01*
X115567836Y-72010913D01*
X115378558Y-72010913D01*
X115189279Y-72010913D01*
X115189279Y-72200192D01*
X115189279Y-72389471D01*
X115000000Y-72389471D01*
X114810721Y-72389471D01*
X114810721Y-72010913D01*
X114810721Y-71632356D01*
X114432163Y-71632356D01*
X114053606Y-71632356D01*
X114053606Y-71443077D01*
X114053606Y-71253798D01*
X115000000Y-71253798D01*
X115946394Y-71253798D01*
X115946394Y-71443077D01*
G37*
G36*
X116324952Y-71821634D02*
G01*
X116324952Y-72010913D01*
X116135673Y-72010913D01*
X115946394Y-72010913D01*
X115946394Y-71821634D01*
X115946394Y-71632356D01*
X116135673Y-71632356D01*
X116324952Y-71632356D01*
X116324952Y-71821634D01*
G37*
G36*
X114810721Y-83556923D02*
G01*
X114810721Y-83746202D01*
X114621442Y-83746202D01*
X114432163Y-83746202D01*
X114432163Y-83556923D01*
X114432163Y-83367644D01*
X114621442Y-83367644D01*
X114810721Y-83367644D01*
X114810721Y-83556923D01*
G37*
G36*
X120110529Y-83556923D02*
G01*
X120110529Y-83746202D01*
X119921250Y-83746202D01*
X119731971Y-83746202D01*
X119731971Y-83556923D01*
X119731971Y-83367644D01*
X119921250Y-83367644D01*
X120110529Y-83367644D01*
X120110529Y-83556923D01*
G37*
G36*
X121246202Y-83556923D02*
G01*
X121246202Y-83746202D01*
X121056923Y-83746202D01*
X120867644Y-83746202D01*
X120867644Y-83556923D01*
X120867644Y-83367644D01*
X121056923Y-83367644D01*
X121246202Y-83367644D01*
X121246202Y-83556923D01*
G37*
G36*
X112539375Y-82042692D02*
G01*
X112539375Y-82231971D01*
X112160817Y-82231971D01*
X111782259Y-82231971D01*
X111782259Y-82042692D01*
X111782259Y-81853413D01*
X112160817Y-81853413D01*
X112539375Y-81853413D01*
X112539375Y-82042692D01*
G37*
G36*
X109510913Y-78635673D02*
G01*
X109510913Y-78824952D01*
X109321634Y-78824952D01*
X109132356Y-78824952D01*
X109132356Y-79014231D01*
X109132356Y-79203509D01*
X109321634Y-79203509D01*
X109510913Y-79203509D01*
X109510913Y-79014231D01*
X109510913Y-78824952D01*
X109700192Y-78824952D01*
X109889471Y-78824952D01*
X109889471Y-79203509D01*
X109889471Y-79582067D01*
X110078750Y-79582067D01*
X110268029Y-79582067D01*
X110268029Y-79203509D01*
X110268029Y-78824952D01*
X110457308Y-78824952D01*
X110646586Y-78824952D01*
X110646586Y-79203509D01*
X110646586Y-79582067D01*
X110457308Y-79582067D01*
X110268029Y-79582067D01*
X110268029Y-79960625D01*
X110268029Y-80339183D01*
X110078750Y-80339183D01*
X109889471Y-80339183D01*
X109889471Y-80528461D01*
X109889471Y-80717740D01*
X109321634Y-80717740D01*
X108753798Y-80717740D01*
X108753798Y-80528461D01*
X108753798Y-80339183D01*
X109132356Y-80339183D01*
X109510913Y-80339183D01*
X109510913Y-79960625D01*
X109510913Y-79582067D01*
X109132356Y-79582067D01*
X108753798Y-79582067D01*
X108753798Y-79203509D01*
X108753798Y-78824952D01*
X108943077Y-78824952D01*
X109132356Y-78824952D01*
X109132356Y-78635673D01*
X109132356Y-78446394D01*
X109321634Y-78446394D01*
X109510913Y-78446394D01*
X109510913Y-78635673D01*
G37*
G36*
X110646586Y-80528461D02*
G01*
X110646586Y-80717740D01*
X110457308Y-80717740D01*
X110268029Y-80717740D01*
X110268029Y-80528461D01*
X110268029Y-80339183D01*
X110457308Y-80339183D01*
X110646586Y-80339183D01*
X110646586Y-80528461D01*
G37*
G36*
X110268029Y-77310721D02*
G01*
X110268029Y-77689279D01*
X110457308Y-77689279D01*
X110646586Y-77689279D01*
X110646586Y-78067836D01*
X110646586Y-78446394D01*
X110268029Y-78446394D01*
X109889471Y-78446394D01*
X109889471Y-78067836D01*
X109889471Y-77689279D01*
X109700192Y-77689279D01*
X109510913Y-77689279D01*
X109510913Y-77500000D01*
X109510913Y-77310721D01*
X109700192Y-77310721D01*
X109889471Y-77310721D01*
X109889471Y-77121442D01*
X109889471Y-76932163D01*
X110078750Y-76932163D01*
X110268029Y-76932163D01*
X110268029Y-77310721D01*
G37*
G36*
X109510913Y-76742884D02*
G01*
X109510913Y-76932163D01*
X109321634Y-76932163D01*
X109132356Y-76932163D01*
X109132356Y-77121442D01*
X109132356Y-77310721D01*
X108943077Y-77310721D01*
X108753798Y-77310721D01*
X108753798Y-77121442D01*
X108753798Y-76932163D01*
X108943077Y-76932163D01*
X109132356Y-76932163D01*
X109132356Y-76742884D01*
X109132356Y-76553606D01*
X109321634Y-76553606D01*
X109510913Y-76553606D01*
X109510913Y-76742884D01*
G37*
G36*
X109510913Y-75985769D02*
G01*
X109510913Y-76175048D01*
X109321634Y-76175048D01*
X109132356Y-76175048D01*
X109132356Y-76364327D01*
X109132356Y-76553606D01*
X108943077Y-76553606D01*
X108753798Y-76553606D01*
X108753798Y-76364327D01*
X108753798Y-76175048D01*
X108943077Y-76175048D01*
X109132356Y-76175048D01*
X109132356Y-75985769D01*
X109132356Y-75796490D01*
X109321634Y-75796490D01*
X109510913Y-75796490D01*
X109510913Y-75985769D01*
G37*
G36*
X110268029Y-76364327D02*
G01*
X110268029Y-76553606D01*
X110078750Y-76553606D01*
X109889471Y-76553606D01*
X109889471Y-76364327D01*
X109889471Y-76175048D01*
X110078750Y-76175048D01*
X110268029Y-76175048D01*
X110268029Y-76364327D01*
G37*
G36*
X109510913Y-75228654D02*
G01*
X109510913Y-75417933D01*
X109321634Y-75417933D01*
X109132356Y-75417933D01*
X109132356Y-75228654D01*
X109132356Y-75039375D01*
X109321634Y-75039375D01*
X109510913Y-75039375D01*
X109510913Y-75228654D01*
G37*
G36*
X109132356Y-74660817D02*
G01*
X109132356Y-75039375D01*
X108943077Y-75039375D01*
X108753798Y-75039375D01*
X108753798Y-74660817D01*
X108753798Y-74282259D01*
X108943077Y-74282259D01*
X109132356Y-74282259D01*
X109132356Y-74660817D01*
G37*
G36*
X111403702Y-72578750D02*
G01*
X111403702Y-73903702D01*
X110078750Y-73903702D01*
X108753798Y-73903702D01*
X108753798Y-73500721D01*
X109156779Y-73500721D01*
X110078750Y-73500721D01*
X111000721Y-73500721D01*
X111000721Y-72578750D01*
X111000721Y-71656779D01*
X110078750Y-71656779D01*
X109156779Y-71656779D01*
X109156779Y-72578750D01*
X109156779Y-73500721D01*
X108753798Y-73500721D01*
X108753798Y-72578750D01*
X108753798Y-71253798D01*
X110078750Y-71253798D01*
X111403702Y-71253798D01*
X111403702Y-72578750D01*
G37*
G36*
X121246202Y-72578750D02*
G01*
X121246202Y-73903702D01*
X119921250Y-73903702D01*
X118596298Y-73903702D01*
X118596298Y-73500721D01*
X118999279Y-73500721D01*
X119921250Y-73500721D01*
X120843221Y-73500721D01*
X120843221Y-72578750D01*
X120843221Y-71656779D01*
X119921250Y-71656779D01*
X118999279Y-71656779D01*
X118999279Y-72578750D01*
X118999279Y-73500721D01*
X118596298Y-73500721D01*
X118596298Y-72578750D01*
X118596298Y-71253798D01*
X119921250Y-71253798D01*
X121246202Y-71253798D01*
X121246202Y-72578750D01*
G37*
G36*
X112160817Y-71443077D02*
G01*
X112160817Y-71632356D01*
X112350096Y-71632356D01*
X112539375Y-71632356D01*
X112539375Y-71443077D01*
X112539375Y-71253798D01*
X112917933Y-71253798D01*
X113296490Y-71253798D01*
X113296490Y-71443077D01*
X113296490Y-71632356D01*
X112917933Y-71632356D01*
X112539375Y-71632356D01*
X112539375Y-71821634D01*
X112539375Y-72010913D01*
X112350096Y-72010913D01*
X112160817Y-72010913D01*
X112160817Y-71821634D01*
X112160817Y-71632356D01*
X111971538Y-71632356D01*
X111782259Y-71632356D01*
X111782259Y-71443077D01*
X111782259Y-71253798D01*
X111971538Y-71253798D01*
X112160817Y-71253798D01*
X112160817Y-71443077D01*
G37*
G36*
X117082067Y-71443077D02*
G01*
X117082067Y-71632356D01*
X116892788Y-71632356D01*
X116703509Y-71632356D01*
X116703509Y-71443077D01*
X116703509Y-71253798D01*
X116892788Y-71253798D01*
X117082067Y-71253798D01*
X117082067Y-71443077D01*
G37*
G36*
X117839183Y-71443077D02*
G01*
X117839183Y-71632356D01*
X117649904Y-71632356D01*
X117460625Y-71632356D01*
X117460625Y-71443077D01*
X117460625Y-71253798D01*
X117649904Y-71253798D01*
X117839183Y-71253798D01*
X117839183Y-71443077D01*
G37*
G36*
X110646586Y-82421250D02*
G01*
X110646586Y-82989086D01*
X110078750Y-82989086D01*
X109510913Y-82989086D01*
X109510913Y-82421250D01*
X109510913Y-81853413D01*
X110078750Y-81853413D01*
X110646586Y-81853413D01*
X110646586Y-82421250D01*
G37*
G36*
X117082067Y-82421250D02*
G01*
X117082067Y-82610529D01*
X116892788Y-82610529D01*
X116703509Y-82610529D01*
X116703509Y-82421250D01*
X116703509Y-82231971D01*
X116892788Y-82231971D01*
X117082067Y-82231971D01*
X117082067Y-82421250D01*
G37*
G36*
X115946394Y-80907019D02*
G01*
X115946394Y-81096298D01*
X115757115Y-81096298D01*
X115567836Y-81096298D01*
X115567836Y-81285577D01*
X115567836Y-81474856D01*
X115757115Y-81474856D01*
X115946394Y-81474856D01*
X115946394Y-81853413D01*
X115946394Y-82231971D01*
X115757115Y-82231971D01*
X115567836Y-82231971D01*
X115567836Y-82042692D01*
X115567836Y-81853413D01*
X115378558Y-81853413D01*
X115189279Y-81853413D01*
X115189279Y-81474856D01*
X115189279Y-81096298D01*
X115378558Y-81096298D01*
X115567836Y-81096298D01*
X115567836Y-80907019D01*
X115567836Y-80717740D01*
X115757115Y-80717740D01*
X115946394Y-80717740D01*
X115946394Y-80907019D01*
G37*
G36*
X117082067Y-78446394D02*
G01*
X117082067Y-78824952D01*
X117271346Y-78824952D01*
X117460625Y-78824952D01*
X117460625Y-79014231D01*
X117460625Y-79203509D01*
X117082067Y-79203509D01*
X116703509Y-79203509D01*
X116703509Y-79582067D01*
X116703509Y-79960625D01*
X116514231Y-79960625D01*
X116324952Y-79960625D01*
X116324952Y-79771346D01*
X116324952Y-79582067D01*
X115946394Y-79582067D01*
X115567836Y-79582067D01*
X115567836Y-79392788D01*
X115567836Y-79203509D01*
X116135673Y-79203509D01*
X116703509Y-79203509D01*
X116703509Y-79014231D01*
X116703509Y-78824952D01*
X116324952Y-78824952D01*
X115946394Y-78824952D01*
X115946394Y-78635673D01*
X115946394Y-78446394D01*
X116135673Y-78446394D01*
X116324952Y-78446394D01*
X116324952Y-78257115D01*
X116324952Y-78067836D01*
X116703509Y-78067836D01*
X117082067Y-78067836D01*
X117082067Y-78446394D01*
G37*
G36*
X117839183Y-79582067D02*
G01*
X117839183Y-79960625D01*
X117460625Y-79960625D01*
X117082067Y-79960625D01*
X117082067Y-79771346D01*
X117082067Y-79582067D01*
X117271346Y-79582067D01*
X117460625Y-79582067D01*
X117460625Y-79392788D01*
X117460625Y-79203509D01*
X117649904Y-79203509D01*
X117839183Y-79203509D01*
X117839183Y-79582067D01*
G37*
G36*
X114432163Y-79014231D02*
G01*
X114432163Y-79203509D01*
X114242884Y-79203509D01*
X114053606Y-79203509D01*
X114053606Y-79014231D01*
X114053606Y-78824952D01*
X114242884Y-78824952D01*
X114432163Y-78824952D01*
X114432163Y-79014231D01*
G37*
G36*
X118974856Y-81285577D02*
G01*
X118974856Y-81474856D01*
X118785577Y-81474856D01*
X118596298Y-81474856D01*
X118596298Y-81285577D01*
X118596298Y-81096298D01*
X118785577Y-81096298D01*
X118974856Y-81096298D01*
X118974856Y-81285577D01*
G37*
G36*
X115189279Y-76553606D02*
G01*
X115189279Y-76932163D01*
X115000000Y-76932163D01*
X114810721Y-76932163D01*
X114810721Y-76553606D01*
X114810721Y-76175048D01*
X115000000Y-76175048D01*
X115189279Y-76175048D01*
X115189279Y-76553606D01*
G37*
G36*
X116703509Y-73714423D02*
G01*
X116703509Y-73903702D01*
X116514231Y-73903702D01*
X116324952Y-73903702D01*
X116324952Y-73714423D01*
X116324952Y-73525144D01*
X116514231Y-73525144D01*
X116703509Y-73525144D01*
X116703509Y-73714423D01*
G37*
G36*
X110646586Y-72578750D02*
G01*
X110646586Y-73146586D01*
X110078750Y-73146586D01*
X109510913Y-73146586D01*
X109510913Y-72578750D01*
X109510913Y-72010913D01*
X110078750Y-72010913D01*
X110646586Y-72010913D01*
X110646586Y-72578750D01*
G37*
G36*
X120489086Y-72578750D02*
G01*
X120489086Y-73146586D01*
X119921250Y-73146586D01*
X119353413Y-73146586D01*
X119353413Y-72578750D01*
X119353413Y-72010913D01*
X119921250Y-72010913D01*
X120489086Y-72010913D01*
X120489086Y-72578750D01*
G37*
D13*
%TO.C,U1*%
X134810000Y-50670000D02*
G75*
G02*
X132810000Y-50670000I-1000000J0D01*
G01*
X136460000Y-68570000D02*
X136460000Y-50670000D01*
X136460000Y-50670000D02*
X134810000Y-50670000D01*
X132810000Y-50670000D02*
X131160000Y-50670000D01*
X131160000Y-68570000D02*
X136460000Y-68570000D01*
X131160000Y-50670000D02*
X131160000Y-68570000D01*
%TO.C,R6*%
X107350000Y-107370000D02*
X100810000Y-107370000D01*
X100810000Y-104630000D01*
X107350000Y-104630000D01*
X107350000Y-107370000D01*
X108120000Y-106000000D02*
X107350000Y-106000000D01*
X100040000Y-106000000D02*
X100810000Y-106000000D01*
%TO.C,R10*%
X107430000Y-87370000D02*
X100890000Y-87370000D01*
X100890000Y-84630000D01*
X107430000Y-84630000D01*
X107430000Y-87370000D01*
X108200000Y-86000000D02*
X107430000Y-86000000D01*
X100120000Y-86000000D02*
X100890000Y-86000000D01*
%TO.C,R7*%
X107350000Y-102370000D02*
X100810000Y-102370000D01*
X100810000Y-99630000D01*
X107350000Y-99630000D01*
X107350000Y-102370000D01*
X108120000Y-101000000D02*
X107350000Y-101000000D01*
X100040000Y-101000000D02*
X100810000Y-101000000D01*
%TO.C,R5*%
X107350000Y-112370000D02*
X100810000Y-112370000D01*
X100810000Y-109630000D01*
X107350000Y-109630000D01*
X107350000Y-112370000D01*
X108120000Y-111000000D02*
X107350000Y-111000000D01*
X100040000Y-111000000D02*
X100810000Y-111000000D01*
%TO.C,R8*%
X107350000Y-97370000D02*
X100810000Y-97370000D01*
X100810000Y-94630000D01*
X107350000Y-94630000D01*
X107350000Y-97370000D01*
X108120000Y-96000000D02*
X107350000Y-96000000D01*
X100040000Y-96000000D02*
X100810000Y-96000000D01*
%TO.C,R9*%
X107350000Y-92370000D02*
X100810000Y-92370000D01*
X100810000Y-89630000D01*
X107350000Y-89630000D01*
X107350000Y-92370000D01*
X108120000Y-91000000D02*
X107350000Y-91000000D01*
X100040000Y-91000000D02*
X100810000Y-91000000D01*
%TO.C,U2*%
X122660000Y-82110000D02*
X122660000Y-71890000D01*
X138530000Y-82110000D02*
X122660000Y-82110000D01*
X138530000Y-82110000D02*
X138530000Y-71890000D01*
X138530000Y-80025000D02*
X140970000Y-80025000D01*
X138530000Y-79055000D02*
X140970000Y-79055000D01*
X138530000Y-77485000D02*
X140970000Y-77485000D01*
X138530000Y-76515000D02*
X140970000Y-76515000D01*
X138530000Y-74945000D02*
X140970000Y-74945000D01*
X138530000Y-73975000D02*
X140970000Y-73975000D01*
X138530000Y-71890000D02*
X122660000Y-71890000D01*
%TO.C,R17*%
X158000000Y-59040000D02*
X158000000Y-59810000D01*
X158000000Y-67120000D02*
X158000000Y-66350000D01*
X159370000Y-59810000D02*
X156630000Y-59810000D01*
X156630000Y-66350000D01*
X159370000Y-66350000D01*
X159370000Y-59810000D01*
%TO.C,D1*%
X166290000Y-59236000D02*
X166290000Y-59080000D01*
X166290000Y-56920000D02*
X166290000Y-56764000D01*
X166290000Y-59235516D02*
G75*
G02*
X163058563Y-59080000I-1560000J1235516D01*
G01*
X165770961Y-59080000D02*
G75*
G02*
X163689039Y-59080000I-1040961J1080000D01*
G01*
X163689039Y-56920000D02*
G75*
G02*
X165770961Y-56920000I1040961J-1080000D01*
G01*
X163058563Y-56920000D02*
G75*
G02*
X166290000Y-56764484I1671437J-1080000D01*
G01*
%TO.C,C8*%
X147290000Y-74500000D02*
X147980000Y-74500000D01*
X152710000Y-74500000D02*
X152020000Y-74500000D01*
X147980000Y-73080000D02*
X152020000Y-73080000D01*
X152020000Y-75920000D01*
X147980000Y-75920000D01*
X147980000Y-73080000D01*
%TO.C,C7*%
X147290000Y-79500000D02*
X147980000Y-79500000D01*
X152710000Y-79500000D02*
X152020000Y-79500000D01*
X147980000Y-78080000D02*
X152020000Y-78080000D01*
X152020000Y-80920000D01*
X147980000Y-80920000D01*
X147980000Y-78080000D01*
%TO.C,C3*%
X126250000Y-61540000D02*
X126250000Y-62230000D01*
X126250000Y-66960000D02*
X126250000Y-66270000D01*
X124830000Y-66270000D02*
X127670000Y-66270000D01*
X127670000Y-62230000D01*
X124830000Y-62230000D01*
X124830000Y-66270000D01*
%TO.C,R13*%
X173960000Y-96000000D02*
X174730000Y-96000000D01*
X182040000Y-96000000D02*
X181270000Y-96000000D01*
X174730000Y-94630000D02*
X181270000Y-94630000D01*
X181270000Y-97370000D01*
X174730000Y-97370000D01*
X174730000Y-94630000D01*
%TO.C,C1*%
X126000000Y-45540000D02*
X126000000Y-46230000D01*
X126000000Y-50960000D02*
X126000000Y-50270000D01*
X124580000Y-50270000D02*
X127420000Y-50270000D01*
X127420000Y-46230000D01*
X124580000Y-46230000D01*
X124580000Y-50270000D01*
D15*
%TO.C,S1*%
X98000000Y-41000000D02*
X110000000Y-41000000D01*
X98000000Y-43000000D02*
X98000000Y-41000000D01*
X98000000Y-51000000D02*
X98000000Y-53000000D01*
X98000000Y-53000000D02*
X110000000Y-53000000D01*
X110000000Y-41000000D02*
X110000000Y-43000000D01*
X110000000Y-53000000D02*
X110000000Y-51000000D01*
D16*
X96300000Y-44400000D02*
G75*
G02*
X96100000Y-44400000I-100000J0D01*
G01*
X96100000Y-44400000D02*
G75*
G02*
X96300000Y-44400000I100000J0D01*
G01*
D13*
%TO.C,R16*%
X173880000Y-111000000D02*
X174650000Y-111000000D01*
X181960000Y-111000000D02*
X181190000Y-111000000D01*
X174650000Y-109630000D02*
X181190000Y-109630000D01*
X181190000Y-112370000D01*
X174650000Y-112370000D01*
X174650000Y-109630000D01*
%TO.C,R15*%
X173960000Y-106000000D02*
X174730000Y-106000000D01*
X182040000Y-106000000D02*
X181270000Y-106000000D01*
X174730000Y-104630000D02*
X181270000Y-104630000D01*
X181270000Y-107370000D01*
X174730000Y-107370000D01*
X174730000Y-104630000D01*
%TO.C,R3*%
X114000000Y-58960000D02*
X114000000Y-59730000D01*
X114000000Y-67040000D02*
X114000000Y-66270000D01*
X115370000Y-59730000D02*
X112630000Y-59730000D01*
X112630000Y-66270000D01*
X115370000Y-66270000D01*
X115370000Y-59730000D01*
%TO.C,R2*%
X118000000Y-42960000D02*
X118000000Y-43730000D01*
X118000000Y-51040000D02*
X118000000Y-50270000D01*
X119370000Y-43730000D02*
X116630000Y-43730000D01*
X116630000Y-50270000D01*
X119370000Y-50270000D01*
X119370000Y-43730000D01*
%TO.C,R1*%
X114000000Y-42960000D02*
X114000000Y-43730000D01*
X114000000Y-51040000D02*
X114000000Y-50270000D01*
X115370000Y-43730000D02*
X112630000Y-43730000D01*
X112630000Y-50270000D01*
X115370000Y-50270000D01*
X115370000Y-43730000D01*
%TO.C,R12*%
X173960000Y-91000000D02*
X174730000Y-91000000D01*
X182040000Y-91000000D02*
X181270000Y-91000000D01*
X174730000Y-89630000D02*
X181270000Y-89630000D01*
X181270000Y-92370000D01*
X174730000Y-92370000D01*
X174730000Y-89630000D01*
%TO.C,C2*%
X122000000Y-45540000D02*
X122000000Y-46230000D01*
X122000000Y-50960000D02*
X122000000Y-50270000D01*
X120580000Y-50270000D02*
X123420000Y-50270000D01*
X123420000Y-46230000D01*
X120580000Y-46230000D01*
X120580000Y-50270000D01*
%TO.C,U3*%
X147160000Y-50670000D02*
X147160000Y-68570000D01*
X147160000Y-68570000D02*
X152460000Y-68570000D01*
X148810000Y-50670000D02*
X147160000Y-50670000D01*
X152460000Y-50670000D02*
X150810000Y-50670000D01*
X152460000Y-68570000D02*
X152460000Y-50670000D01*
X150810000Y-50670000D02*
G75*
G02*
X148810000Y-50670000I-1000000J0D01*
G01*
%TO.C,C5*%
X142000000Y-45290000D02*
X142000000Y-45980000D01*
X142000000Y-50710000D02*
X142000000Y-50020000D01*
X140580000Y-50020000D02*
X143420000Y-50020000D01*
X143420000Y-45980000D01*
X140580000Y-45980000D01*
X140580000Y-50020000D01*
%TO.C,C4*%
X122000000Y-61540000D02*
X122000000Y-62230000D01*
X122000000Y-66960000D02*
X122000000Y-66270000D01*
X120580000Y-66270000D02*
X123420000Y-66270000D01*
X123420000Y-62230000D01*
X120580000Y-62230000D01*
X120580000Y-66270000D01*
D15*
%TO.C,S2*%
X98000000Y-57000000D02*
X110000000Y-57000000D01*
X98000000Y-59000000D02*
X98000000Y-57000000D01*
X98000000Y-67000000D02*
X98000000Y-69000000D01*
X98000000Y-69000000D02*
X110000000Y-69000000D01*
X110000000Y-57000000D02*
X110000000Y-59000000D01*
X110000000Y-69000000D02*
X110000000Y-67000000D01*
D16*
X96300000Y-60400000D02*
G75*
G02*
X96100000Y-60400000I-100000J0D01*
G01*
X96100000Y-60400000D02*
G75*
G02*
X96300000Y-60400000I100000J0D01*
G01*
D13*
%TO.C,C6*%
X158000000Y-45290000D02*
X158000000Y-45980000D01*
X158000000Y-50710000D02*
X158000000Y-50020000D01*
X156580000Y-50020000D02*
X159420000Y-50020000D01*
X159420000Y-45980000D01*
X156580000Y-45980000D01*
X156580000Y-50020000D01*
D16*
%TO.C,S3*%
X137300000Y-103000000D02*
G75*
G02*
X137100000Y-103000000I-100000J0D01*
G01*
X137100000Y-103000000D02*
G75*
G02*
X137300000Y-103000000I100000J0D01*
G01*
D15*
%TO.C,S5*%
X172000000Y-57000000D02*
X184000000Y-57000000D01*
X172000000Y-59000000D02*
X172000000Y-57000000D01*
X172000000Y-67000000D02*
X172000000Y-69000000D01*
X172000000Y-69000000D02*
X184000000Y-69000000D01*
X184000000Y-57000000D02*
X184000000Y-59000000D01*
X184000000Y-69000000D02*
X184000000Y-67000000D01*
D16*
X170300000Y-60400000D02*
G75*
G02*
X170100000Y-60400000I-100000J0D01*
G01*
X170100000Y-60400000D02*
G75*
G02*
X170300000Y-60400000I100000J0D01*
G01*
D13*
%TO.C,R14*%
X173960000Y-101000000D02*
X174730000Y-101000000D01*
X182040000Y-101000000D02*
X181270000Y-101000000D01*
X174730000Y-99630000D02*
X181270000Y-99630000D01*
X181270000Y-102370000D01*
X174730000Y-102370000D01*
X174730000Y-99630000D01*
%TO.C,R11*%
X173960000Y-86000000D02*
X174730000Y-86000000D01*
X182040000Y-86000000D02*
X181270000Y-86000000D01*
X174730000Y-84630000D02*
X181270000Y-84630000D01*
X181270000Y-87370000D01*
X174730000Y-87370000D01*
X174730000Y-84630000D01*
D15*
%TO.C,S4*%
X172000000Y-41000000D02*
X184000000Y-41000000D01*
X172000000Y-43000000D02*
X172000000Y-41000000D01*
X172000000Y-51000000D02*
X172000000Y-53000000D01*
X172000000Y-53000000D02*
X184000000Y-53000000D01*
X184000000Y-41000000D02*
X184000000Y-43000000D01*
X184000000Y-53000000D02*
X184000000Y-51000000D01*
D16*
X170300000Y-44400000D02*
G75*
G02*
X170100000Y-44400000I-100000J0D01*
G01*
X170100000Y-44400000D02*
G75*
G02*
X170300000Y-44400000I100000J0D01*
G01*
D13*
%TO.C,R4*%
X118000000Y-58960000D02*
X118000000Y-59730000D01*
X118000000Y-67040000D02*
X118000000Y-66270000D01*
X119370000Y-59730000D02*
X116630000Y-59730000D01*
X116630000Y-66270000D01*
X119370000Y-66270000D01*
X119370000Y-59730000D01*
%TD*%
M02*
