%TF.GenerationSoftware,KiCad,Pcbnew,9.0.6*%
%TF.CreationDate,2026-02-06T01:00:39-05:00*%
%TF.ProjectId,SteeringWheel,53746565-7269-46e6-9757-6865656c2e6b,rev?*%
%TF.SameCoordinates,Original*%
%TF.FileFunction,Legend,Bot*%
%TF.FilePolarity,Positive*%
%FSLAX46Y46*%
G04 Gerber Fmt 4.6, Leading zero omitted, Abs format (unit mm)*
G04 Created by KiCad (PCBNEW 9.0.6) date 2026-02-06 01:00:39*
%MOMM*%
%LPD*%
G01*
G04 APERTURE LIST*
%ADD10C,0.300000*%
%ADD11C,0.250000*%
%ADD12C,0.150000*%
%ADD13C,0.127000*%
%ADD14C,0.500000*%
G04 APERTURE END LIST*
D10*
X154659774Y-121800828D02*
X155516917Y-121800828D01*
X155088346Y-121800828D02*
X155088346Y-120300828D01*
X155088346Y-120300828D02*
X155231203Y-120515114D01*
X155231203Y-120515114D02*
X155374060Y-120657971D01*
X155374060Y-120657971D02*
X155516917Y-120729400D01*
X154088346Y-120443685D02*
X154016918Y-120372257D01*
X154016918Y-120372257D02*
X153874061Y-120300828D01*
X153874061Y-120300828D02*
X153516918Y-120300828D01*
X153516918Y-120300828D02*
X153374061Y-120372257D01*
X153374061Y-120372257D02*
X153302632Y-120443685D01*
X153302632Y-120443685D02*
X153231203Y-120586542D01*
X153231203Y-120586542D02*
X153231203Y-120729400D01*
X153231203Y-120729400D02*
X153302632Y-120943685D01*
X153302632Y-120943685D02*
X154159775Y-121800828D01*
X154159775Y-121800828D02*
X153231203Y-121800828D01*
X153659774Y-109800828D02*
X154516917Y-109800828D01*
X154088346Y-109800828D02*
X154088346Y-108300828D01*
X154088346Y-108300828D02*
X154231203Y-108515114D01*
X154231203Y-108515114D02*
X154374060Y-108657971D01*
X154374060Y-108657971D02*
X154516917Y-108729400D01*
D11*
X101710500Y-72797312D02*
X101639071Y-72583027D01*
X101639071Y-72583027D02*
X101639071Y-72225884D01*
X101639071Y-72225884D02*
X101710500Y-72083027D01*
X101710500Y-72083027D02*
X101781928Y-72011598D01*
X101781928Y-72011598D02*
X101924785Y-71940169D01*
X101924785Y-71940169D02*
X102067642Y-71940169D01*
X102067642Y-71940169D02*
X102210500Y-72011598D01*
X102210500Y-72011598D02*
X102281928Y-72083027D01*
X102281928Y-72083027D02*
X102353357Y-72225884D01*
X102353357Y-72225884D02*
X102424785Y-72511598D01*
X102424785Y-72511598D02*
X102496214Y-72654455D01*
X102496214Y-72654455D02*
X102567642Y-72725884D01*
X102567642Y-72725884D02*
X102710500Y-72797312D01*
X102710500Y-72797312D02*
X102853357Y-72797312D01*
X102853357Y-72797312D02*
X102996214Y-72725884D01*
X102996214Y-72725884D02*
X103067642Y-72654455D01*
X103067642Y-72654455D02*
X103139071Y-72511598D01*
X103139071Y-72511598D02*
X103139071Y-72154455D01*
X103139071Y-72154455D02*
X103067642Y-71940169D01*
X102639071Y-71511598D02*
X102639071Y-70940170D01*
X103139071Y-71297313D02*
X101853357Y-71297313D01*
X101853357Y-71297313D02*
X101710500Y-71225884D01*
X101710500Y-71225884D02*
X101639071Y-71083027D01*
X101639071Y-71083027D02*
X101639071Y-70940170D01*
X101710500Y-69868741D02*
X101639071Y-70011598D01*
X101639071Y-70011598D02*
X101639071Y-70297313D01*
X101639071Y-70297313D02*
X101710500Y-70440170D01*
X101710500Y-70440170D02*
X101853357Y-70511598D01*
X101853357Y-70511598D02*
X102424785Y-70511598D01*
X102424785Y-70511598D02*
X102567642Y-70440170D01*
X102567642Y-70440170D02*
X102639071Y-70297313D01*
X102639071Y-70297313D02*
X102639071Y-70011598D01*
X102639071Y-70011598D02*
X102567642Y-69868741D01*
X102567642Y-69868741D02*
X102424785Y-69797313D01*
X102424785Y-69797313D02*
X102281928Y-69797313D01*
X102281928Y-69797313D02*
X102139071Y-70511598D01*
X101710500Y-68583027D02*
X101639071Y-68725884D01*
X101639071Y-68725884D02*
X101639071Y-69011599D01*
X101639071Y-69011599D02*
X101710500Y-69154456D01*
X101710500Y-69154456D02*
X101853357Y-69225884D01*
X101853357Y-69225884D02*
X102424785Y-69225884D01*
X102424785Y-69225884D02*
X102567642Y-69154456D01*
X102567642Y-69154456D02*
X102639071Y-69011599D01*
X102639071Y-69011599D02*
X102639071Y-68725884D01*
X102639071Y-68725884D02*
X102567642Y-68583027D01*
X102567642Y-68583027D02*
X102424785Y-68511599D01*
X102424785Y-68511599D02*
X102281928Y-68511599D01*
X102281928Y-68511599D02*
X102139071Y-69225884D01*
X101639071Y-67868742D02*
X102639071Y-67868742D01*
X102353357Y-67868742D02*
X102496214Y-67797313D01*
X102496214Y-67797313D02*
X102567642Y-67725885D01*
X102567642Y-67725885D02*
X102639071Y-67583027D01*
X102639071Y-67583027D02*
X102639071Y-67440170D01*
X101639071Y-66940171D02*
X102639071Y-66940171D01*
X103139071Y-66940171D02*
X103067642Y-67011599D01*
X103067642Y-67011599D02*
X102996214Y-66940171D01*
X102996214Y-66940171D02*
X103067642Y-66868742D01*
X103067642Y-66868742D02*
X103139071Y-66940171D01*
X103139071Y-66940171D02*
X102996214Y-66940171D01*
X102639071Y-66225885D02*
X101639071Y-66225885D01*
X102496214Y-66225885D02*
X102567642Y-66154456D01*
X102567642Y-66154456D02*
X102639071Y-66011599D01*
X102639071Y-66011599D02*
X102639071Y-65797313D01*
X102639071Y-65797313D02*
X102567642Y-65654456D01*
X102567642Y-65654456D02*
X102424785Y-65583028D01*
X102424785Y-65583028D02*
X101639071Y-65583028D01*
X102639071Y-64225885D02*
X101424785Y-64225885D01*
X101424785Y-64225885D02*
X101281928Y-64297313D01*
X101281928Y-64297313D02*
X101210500Y-64368742D01*
X101210500Y-64368742D02*
X101139071Y-64511599D01*
X101139071Y-64511599D02*
X101139071Y-64725885D01*
X101139071Y-64725885D02*
X101210500Y-64868742D01*
X101710500Y-64225885D02*
X101639071Y-64368742D01*
X101639071Y-64368742D02*
X101639071Y-64654456D01*
X101639071Y-64654456D02*
X101710500Y-64797313D01*
X101710500Y-64797313D02*
X101781928Y-64868742D01*
X101781928Y-64868742D02*
X101924785Y-64940170D01*
X101924785Y-64940170D02*
X102353357Y-64940170D01*
X102353357Y-64940170D02*
X102496214Y-64868742D01*
X102496214Y-64868742D02*
X102567642Y-64797313D01*
X102567642Y-64797313D02*
X102639071Y-64654456D01*
X102639071Y-64654456D02*
X102639071Y-64368742D01*
X102639071Y-64368742D02*
X102567642Y-64225885D01*
X103139071Y-62511599D02*
X101639071Y-62154456D01*
X101639071Y-62154456D02*
X102710500Y-61868742D01*
X102710500Y-61868742D02*
X101639071Y-61583027D01*
X101639071Y-61583027D02*
X103139071Y-61225885D01*
X101639071Y-60654456D02*
X103139071Y-60654456D01*
X101639071Y-60011599D02*
X102424785Y-60011599D01*
X102424785Y-60011599D02*
X102567642Y-60083027D01*
X102567642Y-60083027D02*
X102639071Y-60225884D01*
X102639071Y-60225884D02*
X102639071Y-60440170D01*
X102639071Y-60440170D02*
X102567642Y-60583027D01*
X102567642Y-60583027D02*
X102496214Y-60654456D01*
X101710500Y-58725884D02*
X101639071Y-58868741D01*
X101639071Y-58868741D02*
X101639071Y-59154456D01*
X101639071Y-59154456D02*
X101710500Y-59297313D01*
X101710500Y-59297313D02*
X101853357Y-59368741D01*
X101853357Y-59368741D02*
X102424785Y-59368741D01*
X102424785Y-59368741D02*
X102567642Y-59297313D01*
X102567642Y-59297313D02*
X102639071Y-59154456D01*
X102639071Y-59154456D02*
X102639071Y-58868741D01*
X102639071Y-58868741D02*
X102567642Y-58725884D01*
X102567642Y-58725884D02*
X102424785Y-58654456D01*
X102424785Y-58654456D02*
X102281928Y-58654456D01*
X102281928Y-58654456D02*
X102139071Y-59368741D01*
X101710500Y-57440170D02*
X101639071Y-57583027D01*
X101639071Y-57583027D02*
X101639071Y-57868742D01*
X101639071Y-57868742D02*
X101710500Y-58011599D01*
X101710500Y-58011599D02*
X101853357Y-58083027D01*
X101853357Y-58083027D02*
X102424785Y-58083027D01*
X102424785Y-58083027D02*
X102567642Y-58011599D01*
X102567642Y-58011599D02*
X102639071Y-57868742D01*
X102639071Y-57868742D02*
X102639071Y-57583027D01*
X102639071Y-57583027D02*
X102567642Y-57440170D01*
X102567642Y-57440170D02*
X102424785Y-57368742D01*
X102424785Y-57368742D02*
X102281928Y-57368742D01*
X102281928Y-57368742D02*
X102139071Y-58083027D01*
X101639071Y-56511599D02*
X101710500Y-56654456D01*
X101710500Y-56654456D02*
X101853357Y-56725885D01*
X101853357Y-56725885D02*
X103139071Y-56725885D01*
X101639071Y-54797314D02*
X103139071Y-54797314D01*
X102639071Y-54083028D02*
X101639071Y-54083028D01*
X102496214Y-54083028D02*
X102567642Y-54011599D01*
X102567642Y-54011599D02*
X102639071Y-53868742D01*
X102639071Y-53868742D02*
X102639071Y-53654456D01*
X102639071Y-53654456D02*
X102567642Y-53511599D01*
X102567642Y-53511599D02*
X102424785Y-53440171D01*
X102424785Y-53440171D02*
X101639071Y-53440171D01*
X102639071Y-52940170D02*
X102639071Y-52368742D01*
X103139071Y-52725885D02*
X101853357Y-52725885D01*
X101853357Y-52725885D02*
X101710500Y-52654456D01*
X101710500Y-52654456D02*
X101639071Y-52511599D01*
X101639071Y-52511599D02*
X101639071Y-52368742D01*
X101710500Y-51297313D02*
X101639071Y-51440170D01*
X101639071Y-51440170D02*
X101639071Y-51725885D01*
X101639071Y-51725885D02*
X101710500Y-51868742D01*
X101710500Y-51868742D02*
X101853357Y-51940170D01*
X101853357Y-51940170D02*
X102424785Y-51940170D01*
X102424785Y-51940170D02*
X102567642Y-51868742D01*
X102567642Y-51868742D02*
X102639071Y-51725885D01*
X102639071Y-51725885D02*
X102639071Y-51440170D01*
X102639071Y-51440170D02*
X102567642Y-51297313D01*
X102567642Y-51297313D02*
X102424785Y-51225885D01*
X102424785Y-51225885D02*
X102281928Y-51225885D01*
X102281928Y-51225885D02*
X102139071Y-51940170D01*
X101639071Y-50583028D02*
X102639071Y-50583028D01*
X102353357Y-50583028D02*
X102496214Y-50511599D01*
X102496214Y-50511599D02*
X102567642Y-50440171D01*
X102567642Y-50440171D02*
X102639071Y-50297313D01*
X102639071Y-50297313D02*
X102639071Y-50154456D01*
X102639071Y-49868742D02*
X102639071Y-49297314D01*
X101639071Y-49654457D02*
X102924785Y-49654457D01*
X102924785Y-49654457D02*
X103067642Y-49583028D01*
X103067642Y-49583028D02*
X103139071Y-49440171D01*
X103139071Y-49440171D02*
X103139071Y-49297314D01*
X101639071Y-48154457D02*
X102424785Y-48154457D01*
X102424785Y-48154457D02*
X102567642Y-48225885D01*
X102567642Y-48225885D02*
X102639071Y-48368742D01*
X102639071Y-48368742D02*
X102639071Y-48654457D01*
X102639071Y-48654457D02*
X102567642Y-48797314D01*
X101710500Y-48154457D02*
X101639071Y-48297314D01*
X101639071Y-48297314D02*
X101639071Y-48654457D01*
X101639071Y-48654457D02*
X101710500Y-48797314D01*
X101710500Y-48797314D02*
X101853357Y-48868742D01*
X101853357Y-48868742D02*
X101996214Y-48868742D01*
X101996214Y-48868742D02*
X102139071Y-48797314D01*
X102139071Y-48797314D02*
X102210500Y-48654457D01*
X102210500Y-48654457D02*
X102210500Y-48297314D01*
X102210500Y-48297314D02*
X102281928Y-48154457D01*
X101710500Y-46797314D02*
X101639071Y-46940171D01*
X101639071Y-46940171D02*
X101639071Y-47225885D01*
X101639071Y-47225885D02*
X101710500Y-47368742D01*
X101710500Y-47368742D02*
X101781928Y-47440171D01*
X101781928Y-47440171D02*
X101924785Y-47511599D01*
X101924785Y-47511599D02*
X102353357Y-47511599D01*
X102353357Y-47511599D02*
X102496214Y-47440171D01*
X102496214Y-47440171D02*
X102567642Y-47368742D01*
X102567642Y-47368742D02*
X102639071Y-47225885D01*
X102639071Y-47225885D02*
X102639071Y-46940171D01*
X102639071Y-46940171D02*
X102567642Y-46797314D01*
X101710500Y-45583028D02*
X101639071Y-45725885D01*
X101639071Y-45725885D02*
X101639071Y-46011600D01*
X101639071Y-46011600D02*
X101710500Y-46154457D01*
X101710500Y-46154457D02*
X101853357Y-46225885D01*
X101853357Y-46225885D02*
X102424785Y-46225885D01*
X102424785Y-46225885D02*
X102567642Y-46154457D01*
X102567642Y-46154457D02*
X102639071Y-46011600D01*
X102639071Y-46011600D02*
X102639071Y-45725885D01*
X102639071Y-45725885D02*
X102567642Y-45583028D01*
X102567642Y-45583028D02*
X102424785Y-45511600D01*
X102424785Y-45511600D02*
X102281928Y-45511600D01*
X102281928Y-45511600D02*
X102139071Y-46225885D01*
X100009869Y-72225884D02*
X99938441Y-72011598D01*
X99938441Y-72011598D02*
X99867012Y-71940169D01*
X99867012Y-71940169D02*
X99724155Y-71868741D01*
X99724155Y-71868741D02*
X99509869Y-71868741D01*
X99509869Y-71868741D02*
X99367012Y-71940169D01*
X99367012Y-71940169D02*
X99295584Y-72011598D01*
X99295584Y-72011598D02*
X99224155Y-72154455D01*
X99224155Y-72154455D02*
X99224155Y-72725884D01*
X99224155Y-72725884D02*
X100724155Y-72725884D01*
X100724155Y-72725884D02*
X100724155Y-72225884D01*
X100724155Y-72225884D02*
X100652726Y-72083027D01*
X100652726Y-72083027D02*
X100581298Y-72011598D01*
X100581298Y-72011598D02*
X100438441Y-71940169D01*
X100438441Y-71940169D02*
X100295584Y-71940169D01*
X100295584Y-71940169D02*
X100152726Y-72011598D01*
X100152726Y-72011598D02*
X100081298Y-72083027D01*
X100081298Y-72083027D02*
X100009869Y-72225884D01*
X100009869Y-72225884D02*
X100009869Y-72725884D01*
X100224155Y-71368741D02*
X99224155Y-71011598D01*
X100224155Y-70654455D02*
X99224155Y-71011598D01*
X99224155Y-71011598D02*
X98867012Y-71154455D01*
X98867012Y-71154455D02*
X98795584Y-71225884D01*
X98795584Y-71225884D02*
X98724155Y-71368741D01*
X99367012Y-70083027D02*
X99295584Y-70011598D01*
X99295584Y-70011598D02*
X99224155Y-70083027D01*
X99224155Y-70083027D02*
X99295584Y-70154455D01*
X99295584Y-70154455D02*
X99367012Y-70083027D01*
X99367012Y-70083027D02*
X99224155Y-70083027D01*
X100152726Y-70083027D02*
X100081298Y-70011598D01*
X100081298Y-70011598D02*
X100009869Y-70083027D01*
X100009869Y-70083027D02*
X100081298Y-70154455D01*
X100081298Y-70154455D02*
X100152726Y-70083027D01*
X100152726Y-70083027D02*
X100009869Y-70083027D01*
X99224155Y-68225884D02*
X100724155Y-68225884D01*
X99224155Y-67368741D02*
X100081298Y-68011598D01*
X100724155Y-67368741D02*
X99867012Y-68225884D01*
X99295584Y-66154455D02*
X99224155Y-66297312D01*
X99224155Y-66297312D02*
X99224155Y-66583027D01*
X99224155Y-66583027D02*
X99295584Y-66725884D01*
X99295584Y-66725884D02*
X99438441Y-66797312D01*
X99438441Y-66797312D02*
X100009869Y-66797312D01*
X100009869Y-66797312D02*
X100152726Y-66725884D01*
X100152726Y-66725884D02*
X100224155Y-66583027D01*
X100224155Y-66583027D02*
X100224155Y-66297312D01*
X100224155Y-66297312D02*
X100152726Y-66154455D01*
X100152726Y-66154455D02*
X100009869Y-66083027D01*
X100009869Y-66083027D02*
X99867012Y-66083027D01*
X99867012Y-66083027D02*
X99724155Y-66797312D01*
X99295584Y-64868741D02*
X99224155Y-65011598D01*
X99224155Y-65011598D02*
X99224155Y-65297313D01*
X99224155Y-65297313D02*
X99295584Y-65440170D01*
X99295584Y-65440170D02*
X99438441Y-65511598D01*
X99438441Y-65511598D02*
X100009869Y-65511598D01*
X100009869Y-65511598D02*
X100152726Y-65440170D01*
X100152726Y-65440170D02*
X100224155Y-65297313D01*
X100224155Y-65297313D02*
X100224155Y-65011598D01*
X100224155Y-65011598D02*
X100152726Y-64868741D01*
X100152726Y-64868741D02*
X100009869Y-64797313D01*
X100009869Y-64797313D02*
X99867012Y-64797313D01*
X99867012Y-64797313D02*
X99724155Y-65511598D01*
X100224155Y-63511599D02*
X99009869Y-63511599D01*
X99009869Y-63511599D02*
X98867012Y-63583027D01*
X98867012Y-63583027D02*
X98795584Y-63654456D01*
X98795584Y-63654456D02*
X98724155Y-63797313D01*
X98724155Y-63797313D02*
X98724155Y-64011599D01*
X98724155Y-64011599D02*
X98795584Y-64154456D01*
X99295584Y-63511599D02*
X99224155Y-63654456D01*
X99224155Y-63654456D02*
X99224155Y-63940170D01*
X99224155Y-63940170D02*
X99295584Y-64083027D01*
X99295584Y-64083027D02*
X99367012Y-64154456D01*
X99367012Y-64154456D02*
X99509869Y-64225884D01*
X99509869Y-64225884D02*
X99938441Y-64225884D01*
X99938441Y-64225884D02*
X100081298Y-64154456D01*
X100081298Y-64154456D02*
X100152726Y-64083027D01*
X100152726Y-64083027D02*
X100224155Y-63940170D01*
X100224155Y-63940170D02*
X100224155Y-63654456D01*
X100224155Y-63654456D02*
X100152726Y-63511599D01*
X99224155Y-62154456D02*
X100009869Y-62154456D01*
X100009869Y-62154456D02*
X100152726Y-62225884D01*
X100152726Y-62225884D02*
X100224155Y-62368741D01*
X100224155Y-62368741D02*
X100224155Y-62654456D01*
X100224155Y-62654456D02*
X100152726Y-62797313D01*
X99295584Y-62154456D02*
X99224155Y-62297313D01*
X99224155Y-62297313D02*
X99224155Y-62654456D01*
X99224155Y-62654456D02*
X99295584Y-62797313D01*
X99295584Y-62797313D02*
X99438441Y-62868741D01*
X99438441Y-62868741D02*
X99581298Y-62868741D01*
X99581298Y-62868741D02*
X99724155Y-62797313D01*
X99724155Y-62797313D02*
X99795584Y-62654456D01*
X99795584Y-62654456D02*
X99795584Y-62297313D01*
X99795584Y-62297313D02*
X99867012Y-62154456D01*
X100224155Y-61440170D02*
X99224155Y-61440170D01*
X100081298Y-61440170D02*
X100152726Y-61368741D01*
X100152726Y-61368741D02*
X100224155Y-61225884D01*
X100224155Y-61225884D02*
X100224155Y-61011598D01*
X100224155Y-61011598D02*
X100152726Y-60868741D01*
X100152726Y-60868741D02*
X100009869Y-60797313D01*
X100009869Y-60797313D02*
X99224155Y-60797313D01*
X99224155Y-58940170D02*
X100724155Y-58940170D01*
X100724155Y-58940170D02*
X99652726Y-58440170D01*
X99652726Y-58440170D02*
X100724155Y-57940170D01*
X100724155Y-57940170D02*
X99224155Y-57940170D01*
X99224155Y-56583027D02*
X100009869Y-56583027D01*
X100009869Y-56583027D02*
X100152726Y-56654455D01*
X100152726Y-56654455D02*
X100224155Y-56797312D01*
X100224155Y-56797312D02*
X100224155Y-57083027D01*
X100224155Y-57083027D02*
X100152726Y-57225884D01*
X99295584Y-56583027D02*
X99224155Y-56725884D01*
X99224155Y-56725884D02*
X99224155Y-57083027D01*
X99224155Y-57083027D02*
X99295584Y-57225884D01*
X99295584Y-57225884D02*
X99438441Y-57297312D01*
X99438441Y-57297312D02*
X99581298Y-57297312D01*
X99581298Y-57297312D02*
X99724155Y-57225884D01*
X99724155Y-57225884D02*
X99795584Y-57083027D01*
X99795584Y-57083027D02*
X99795584Y-56725884D01*
X99795584Y-56725884D02*
X99867012Y-56583027D01*
X99295584Y-55225884D02*
X99224155Y-55368741D01*
X99224155Y-55368741D02*
X99224155Y-55654455D01*
X99224155Y-55654455D02*
X99295584Y-55797312D01*
X99295584Y-55797312D02*
X99367012Y-55868741D01*
X99367012Y-55868741D02*
X99509869Y-55940169D01*
X99509869Y-55940169D02*
X99938441Y-55940169D01*
X99938441Y-55940169D02*
X100081298Y-55868741D01*
X100081298Y-55868741D02*
X100152726Y-55797312D01*
X100152726Y-55797312D02*
X100224155Y-55654455D01*
X100224155Y-55654455D02*
X100224155Y-55368741D01*
X100224155Y-55368741D02*
X100152726Y-55225884D01*
X99224155Y-54583027D02*
X100724155Y-54583027D01*
X99795584Y-54440170D02*
X99224155Y-54011598D01*
X100224155Y-54011598D02*
X99652726Y-54583027D01*
X99224155Y-53368741D02*
X100224155Y-53368741D01*
X100724155Y-53368741D02*
X100652726Y-53440169D01*
X100652726Y-53440169D02*
X100581298Y-53368741D01*
X100581298Y-53368741D02*
X100652726Y-53297312D01*
X100652726Y-53297312D02*
X100724155Y-53368741D01*
X100724155Y-53368741D02*
X100581298Y-53368741D01*
X100224155Y-52654455D02*
X99224155Y-52654455D01*
X100081298Y-52654455D02*
X100152726Y-52583026D01*
X100152726Y-52583026D02*
X100224155Y-52440169D01*
X100224155Y-52440169D02*
X100224155Y-52225883D01*
X100224155Y-52225883D02*
X100152726Y-52083026D01*
X100152726Y-52083026D02*
X100009869Y-52011598D01*
X100009869Y-52011598D02*
X99224155Y-52011598D01*
X100224155Y-51297312D02*
X99224155Y-51297312D01*
X100081298Y-51297312D02*
X100152726Y-51225883D01*
X100152726Y-51225883D02*
X100224155Y-51083026D01*
X100224155Y-51083026D02*
X100224155Y-50868740D01*
X100224155Y-50868740D02*
X100152726Y-50725883D01*
X100152726Y-50725883D02*
X100009869Y-50654455D01*
X100009869Y-50654455D02*
X99224155Y-50654455D01*
X99224155Y-49725883D02*
X99295584Y-49868740D01*
X99295584Y-49868740D02*
X99367012Y-49940169D01*
X99367012Y-49940169D02*
X99509869Y-50011597D01*
X99509869Y-50011597D02*
X99938441Y-50011597D01*
X99938441Y-50011597D02*
X100081298Y-49940169D01*
X100081298Y-49940169D02*
X100152726Y-49868740D01*
X100152726Y-49868740D02*
X100224155Y-49725883D01*
X100224155Y-49725883D02*
X100224155Y-49511597D01*
X100224155Y-49511597D02*
X100152726Y-49368740D01*
X100152726Y-49368740D02*
X100081298Y-49297312D01*
X100081298Y-49297312D02*
X99938441Y-49225883D01*
X99938441Y-49225883D02*
X99509869Y-49225883D01*
X99509869Y-49225883D02*
X99367012Y-49297312D01*
X99367012Y-49297312D02*
X99295584Y-49368740D01*
X99295584Y-49368740D02*
X99224155Y-49511597D01*
X99224155Y-49511597D02*
X99224155Y-49725883D01*
X100224155Y-48583026D02*
X99224155Y-48583026D01*
X100081298Y-48583026D02*
X100152726Y-48511597D01*
X100152726Y-48511597D02*
X100224155Y-48368740D01*
X100224155Y-48368740D02*
X100224155Y-48154454D01*
X100224155Y-48154454D02*
X100152726Y-48011597D01*
X100152726Y-48011597D02*
X100009869Y-47940169D01*
X100009869Y-47940169D02*
X99224155Y-47940169D01*
D10*
X178659774Y-85300828D02*
X178516917Y-85300828D01*
X178516917Y-85300828D02*
X178374060Y-85372257D01*
X178374060Y-85372257D02*
X178302632Y-85443685D01*
X178302632Y-85443685D02*
X178231203Y-85586542D01*
X178231203Y-85586542D02*
X178159774Y-85872257D01*
X178159774Y-85872257D02*
X178159774Y-86229400D01*
X178159774Y-86229400D02*
X178231203Y-86515114D01*
X178231203Y-86515114D02*
X178302632Y-86657971D01*
X178302632Y-86657971D02*
X178374060Y-86729400D01*
X178374060Y-86729400D02*
X178516917Y-86800828D01*
X178516917Y-86800828D02*
X178659774Y-86800828D01*
X178659774Y-86800828D02*
X178802632Y-86729400D01*
X178802632Y-86729400D02*
X178874060Y-86657971D01*
X178874060Y-86657971D02*
X178945489Y-86515114D01*
X178945489Y-86515114D02*
X179016917Y-86229400D01*
X179016917Y-86229400D02*
X179016917Y-85872257D01*
X179016917Y-85872257D02*
X178945489Y-85586542D01*
X178945489Y-85586542D02*
X178874060Y-85443685D01*
X178874060Y-85443685D02*
X178802632Y-85372257D01*
X178802632Y-85372257D02*
X178659774Y-85300828D01*
X176874061Y-85300828D02*
X177159775Y-85300828D01*
X177159775Y-85300828D02*
X177302632Y-85372257D01*
X177302632Y-85372257D02*
X177374061Y-85443685D01*
X177374061Y-85443685D02*
X177516918Y-85657971D01*
X177516918Y-85657971D02*
X177588346Y-85943685D01*
X177588346Y-85943685D02*
X177588346Y-86515114D01*
X177588346Y-86515114D02*
X177516918Y-86657971D01*
X177516918Y-86657971D02*
X177445489Y-86729400D01*
X177445489Y-86729400D02*
X177302632Y-86800828D01*
X177302632Y-86800828D02*
X177016918Y-86800828D01*
X177016918Y-86800828D02*
X176874061Y-86729400D01*
X176874061Y-86729400D02*
X176802632Y-86657971D01*
X176802632Y-86657971D02*
X176731203Y-86515114D01*
X176731203Y-86515114D02*
X176731203Y-86157971D01*
X176731203Y-86157971D02*
X176802632Y-86015114D01*
X176802632Y-86015114D02*
X176874061Y-85943685D01*
X176874061Y-85943685D02*
X177016918Y-85872257D01*
X177016918Y-85872257D02*
X177302632Y-85872257D01*
X177302632Y-85872257D02*
X177445489Y-85943685D01*
X177445489Y-85943685D02*
X177516918Y-86015114D01*
X177516918Y-86015114D02*
X177588346Y-86157971D01*
X178659774Y-90300828D02*
X178516917Y-90300828D01*
X178516917Y-90300828D02*
X178374060Y-90372257D01*
X178374060Y-90372257D02*
X178302632Y-90443685D01*
X178302632Y-90443685D02*
X178231203Y-90586542D01*
X178231203Y-90586542D02*
X178159774Y-90872257D01*
X178159774Y-90872257D02*
X178159774Y-91229400D01*
X178159774Y-91229400D02*
X178231203Y-91515114D01*
X178231203Y-91515114D02*
X178302632Y-91657971D01*
X178302632Y-91657971D02*
X178374060Y-91729400D01*
X178374060Y-91729400D02*
X178516917Y-91800828D01*
X178516917Y-91800828D02*
X178659774Y-91800828D01*
X178659774Y-91800828D02*
X178802632Y-91729400D01*
X178802632Y-91729400D02*
X178874060Y-91657971D01*
X178874060Y-91657971D02*
X178945489Y-91515114D01*
X178945489Y-91515114D02*
X179016917Y-91229400D01*
X179016917Y-91229400D02*
X179016917Y-90872257D01*
X179016917Y-90872257D02*
X178945489Y-90586542D01*
X178945489Y-90586542D02*
X178874060Y-90443685D01*
X178874060Y-90443685D02*
X178802632Y-90372257D01*
X178802632Y-90372257D02*
X178659774Y-90300828D01*
X177659775Y-90300828D02*
X176659775Y-90300828D01*
X176659775Y-90300828D02*
X177302632Y-91800828D01*
X178659774Y-95300828D02*
X178516917Y-95300828D01*
X178516917Y-95300828D02*
X178374060Y-95372257D01*
X178374060Y-95372257D02*
X178302632Y-95443685D01*
X178302632Y-95443685D02*
X178231203Y-95586542D01*
X178231203Y-95586542D02*
X178159774Y-95872257D01*
X178159774Y-95872257D02*
X178159774Y-96229400D01*
X178159774Y-96229400D02*
X178231203Y-96515114D01*
X178231203Y-96515114D02*
X178302632Y-96657971D01*
X178302632Y-96657971D02*
X178374060Y-96729400D01*
X178374060Y-96729400D02*
X178516917Y-96800828D01*
X178516917Y-96800828D02*
X178659774Y-96800828D01*
X178659774Y-96800828D02*
X178802632Y-96729400D01*
X178802632Y-96729400D02*
X178874060Y-96657971D01*
X178874060Y-96657971D02*
X178945489Y-96515114D01*
X178945489Y-96515114D02*
X179016917Y-96229400D01*
X179016917Y-96229400D02*
X179016917Y-95872257D01*
X179016917Y-95872257D02*
X178945489Y-95586542D01*
X178945489Y-95586542D02*
X178874060Y-95443685D01*
X178874060Y-95443685D02*
X178802632Y-95372257D01*
X178802632Y-95372257D02*
X178659774Y-95300828D01*
X177302632Y-95943685D02*
X177445489Y-95872257D01*
X177445489Y-95872257D02*
X177516918Y-95800828D01*
X177516918Y-95800828D02*
X177588346Y-95657971D01*
X177588346Y-95657971D02*
X177588346Y-95586542D01*
X177588346Y-95586542D02*
X177516918Y-95443685D01*
X177516918Y-95443685D02*
X177445489Y-95372257D01*
X177445489Y-95372257D02*
X177302632Y-95300828D01*
X177302632Y-95300828D02*
X177016918Y-95300828D01*
X177016918Y-95300828D02*
X176874061Y-95372257D01*
X176874061Y-95372257D02*
X176802632Y-95443685D01*
X176802632Y-95443685D02*
X176731203Y-95586542D01*
X176731203Y-95586542D02*
X176731203Y-95657971D01*
X176731203Y-95657971D02*
X176802632Y-95800828D01*
X176802632Y-95800828D02*
X176874061Y-95872257D01*
X176874061Y-95872257D02*
X177016918Y-95943685D01*
X177016918Y-95943685D02*
X177302632Y-95943685D01*
X177302632Y-95943685D02*
X177445489Y-96015114D01*
X177445489Y-96015114D02*
X177516918Y-96086542D01*
X177516918Y-96086542D02*
X177588346Y-96229400D01*
X177588346Y-96229400D02*
X177588346Y-96515114D01*
X177588346Y-96515114D02*
X177516918Y-96657971D01*
X177516918Y-96657971D02*
X177445489Y-96729400D01*
X177445489Y-96729400D02*
X177302632Y-96800828D01*
X177302632Y-96800828D02*
X177016918Y-96800828D01*
X177016918Y-96800828D02*
X176874061Y-96729400D01*
X176874061Y-96729400D02*
X176802632Y-96657971D01*
X176802632Y-96657971D02*
X176731203Y-96515114D01*
X176731203Y-96515114D02*
X176731203Y-96229400D01*
X176731203Y-96229400D02*
X176802632Y-96086542D01*
X176802632Y-96086542D02*
X176874061Y-96015114D01*
X176874061Y-96015114D02*
X177016918Y-95943685D01*
X178659774Y-100300828D02*
X178516917Y-100300828D01*
X178516917Y-100300828D02*
X178374060Y-100372257D01*
X178374060Y-100372257D02*
X178302632Y-100443685D01*
X178302632Y-100443685D02*
X178231203Y-100586542D01*
X178231203Y-100586542D02*
X178159774Y-100872257D01*
X178159774Y-100872257D02*
X178159774Y-101229400D01*
X178159774Y-101229400D02*
X178231203Y-101515114D01*
X178231203Y-101515114D02*
X178302632Y-101657971D01*
X178302632Y-101657971D02*
X178374060Y-101729400D01*
X178374060Y-101729400D02*
X178516917Y-101800828D01*
X178516917Y-101800828D02*
X178659774Y-101800828D01*
X178659774Y-101800828D02*
X178802632Y-101729400D01*
X178802632Y-101729400D02*
X178874060Y-101657971D01*
X178874060Y-101657971D02*
X178945489Y-101515114D01*
X178945489Y-101515114D02*
X179016917Y-101229400D01*
X179016917Y-101229400D02*
X179016917Y-100872257D01*
X179016917Y-100872257D02*
X178945489Y-100586542D01*
X178945489Y-100586542D02*
X178874060Y-100443685D01*
X178874060Y-100443685D02*
X178802632Y-100372257D01*
X178802632Y-100372257D02*
X178659774Y-100300828D01*
X177445489Y-101800828D02*
X177159775Y-101800828D01*
X177159775Y-101800828D02*
X177016918Y-101729400D01*
X177016918Y-101729400D02*
X176945489Y-101657971D01*
X176945489Y-101657971D02*
X176802632Y-101443685D01*
X176802632Y-101443685D02*
X176731203Y-101157971D01*
X176731203Y-101157971D02*
X176731203Y-100586542D01*
X176731203Y-100586542D02*
X176802632Y-100443685D01*
X176802632Y-100443685D02*
X176874061Y-100372257D01*
X176874061Y-100372257D02*
X177016918Y-100300828D01*
X177016918Y-100300828D02*
X177302632Y-100300828D01*
X177302632Y-100300828D02*
X177445489Y-100372257D01*
X177445489Y-100372257D02*
X177516918Y-100443685D01*
X177516918Y-100443685D02*
X177588346Y-100586542D01*
X177588346Y-100586542D02*
X177588346Y-100943685D01*
X177588346Y-100943685D02*
X177516918Y-101086542D01*
X177516918Y-101086542D02*
X177445489Y-101157971D01*
X177445489Y-101157971D02*
X177302632Y-101229400D01*
X177302632Y-101229400D02*
X177016918Y-101229400D01*
X177016918Y-101229400D02*
X176874061Y-101157971D01*
X176874061Y-101157971D02*
X176802632Y-101086542D01*
X176802632Y-101086542D02*
X176731203Y-100943685D01*
X178159774Y-106800828D02*
X179016917Y-106800828D01*
X178588346Y-106800828D02*
X178588346Y-105300828D01*
X178588346Y-105300828D02*
X178731203Y-105515114D01*
X178731203Y-105515114D02*
X178874060Y-105657971D01*
X178874060Y-105657971D02*
X179016917Y-105729400D01*
X177231203Y-105300828D02*
X177088346Y-105300828D01*
X177088346Y-105300828D02*
X176945489Y-105372257D01*
X176945489Y-105372257D02*
X176874061Y-105443685D01*
X176874061Y-105443685D02*
X176802632Y-105586542D01*
X176802632Y-105586542D02*
X176731203Y-105872257D01*
X176731203Y-105872257D02*
X176731203Y-106229400D01*
X176731203Y-106229400D02*
X176802632Y-106515114D01*
X176802632Y-106515114D02*
X176874061Y-106657971D01*
X176874061Y-106657971D02*
X176945489Y-106729400D01*
X176945489Y-106729400D02*
X177088346Y-106800828D01*
X177088346Y-106800828D02*
X177231203Y-106800828D01*
X177231203Y-106800828D02*
X177374061Y-106729400D01*
X177374061Y-106729400D02*
X177445489Y-106657971D01*
X177445489Y-106657971D02*
X177516918Y-106515114D01*
X177516918Y-106515114D02*
X177588346Y-106229400D01*
X177588346Y-106229400D02*
X177588346Y-105872257D01*
X177588346Y-105872257D02*
X177516918Y-105586542D01*
X177516918Y-105586542D02*
X177445489Y-105443685D01*
X177445489Y-105443685D02*
X177374061Y-105372257D01*
X177374061Y-105372257D02*
X177231203Y-105300828D01*
X178159774Y-111800828D02*
X179016917Y-111800828D01*
X178588346Y-111800828D02*
X178588346Y-110300828D01*
X178588346Y-110300828D02*
X178731203Y-110515114D01*
X178731203Y-110515114D02*
X178874060Y-110657971D01*
X178874060Y-110657971D02*
X179016917Y-110729400D01*
X176731203Y-111800828D02*
X177588346Y-111800828D01*
X177159775Y-111800828D02*
X177159775Y-110300828D01*
X177159775Y-110300828D02*
X177302632Y-110515114D01*
X177302632Y-110515114D02*
X177445489Y-110657971D01*
X177445489Y-110657971D02*
X177588346Y-110729400D01*
X104909774Y-85300828D02*
X104766917Y-85300828D01*
X104766917Y-85300828D02*
X104624060Y-85372257D01*
X104624060Y-85372257D02*
X104552632Y-85443685D01*
X104552632Y-85443685D02*
X104481203Y-85586542D01*
X104481203Y-85586542D02*
X104409774Y-85872257D01*
X104409774Y-85872257D02*
X104409774Y-86229400D01*
X104409774Y-86229400D02*
X104481203Y-86515114D01*
X104481203Y-86515114D02*
X104552632Y-86657971D01*
X104552632Y-86657971D02*
X104624060Y-86729400D01*
X104624060Y-86729400D02*
X104766917Y-86800828D01*
X104766917Y-86800828D02*
X104909774Y-86800828D01*
X104909774Y-86800828D02*
X105052632Y-86729400D01*
X105052632Y-86729400D02*
X105124060Y-86657971D01*
X105124060Y-86657971D02*
X105195489Y-86515114D01*
X105195489Y-86515114D02*
X105266917Y-86229400D01*
X105266917Y-86229400D02*
X105266917Y-85872257D01*
X105266917Y-85872257D02*
X105195489Y-85586542D01*
X105195489Y-85586542D02*
X105124060Y-85443685D01*
X105124060Y-85443685D02*
X105052632Y-85372257D01*
X105052632Y-85372257D02*
X104909774Y-85300828D01*
X103052632Y-85300828D02*
X103766918Y-85300828D01*
X103766918Y-85300828D02*
X103838346Y-86015114D01*
X103838346Y-86015114D02*
X103766918Y-85943685D01*
X103766918Y-85943685D02*
X103624061Y-85872257D01*
X103624061Y-85872257D02*
X103266918Y-85872257D01*
X103266918Y-85872257D02*
X103124061Y-85943685D01*
X103124061Y-85943685D02*
X103052632Y-86015114D01*
X103052632Y-86015114D02*
X102981203Y-86157971D01*
X102981203Y-86157971D02*
X102981203Y-86515114D01*
X102981203Y-86515114D02*
X103052632Y-86657971D01*
X103052632Y-86657971D02*
X103124061Y-86729400D01*
X103124061Y-86729400D02*
X103266918Y-86800828D01*
X103266918Y-86800828D02*
X103624061Y-86800828D01*
X103624061Y-86800828D02*
X103766918Y-86729400D01*
X103766918Y-86729400D02*
X103838346Y-86657971D01*
X104909774Y-90300828D02*
X104766917Y-90300828D01*
X104766917Y-90300828D02*
X104624060Y-90372257D01*
X104624060Y-90372257D02*
X104552632Y-90443685D01*
X104552632Y-90443685D02*
X104481203Y-90586542D01*
X104481203Y-90586542D02*
X104409774Y-90872257D01*
X104409774Y-90872257D02*
X104409774Y-91229400D01*
X104409774Y-91229400D02*
X104481203Y-91515114D01*
X104481203Y-91515114D02*
X104552632Y-91657971D01*
X104552632Y-91657971D02*
X104624060Y-91729400D01*
X104624060Y-91729400D02*
X104766917Y-91800828D01*
X104766917Y-91800828D02*
X104909774Y-91800828D01*
X104909774Y-91800828D02*
X105052632Y-91729400D01*
X105052632Y-91729400D02*
X105124060Y-91657971D01*
X105124060Y-91657971D02*
X105195489Y-91515114D01*
X105195489Y-91515114D02*
X105266917Y-91229400D01*
X105266917Y-91229400D02*
X105266917Y-90872257D01*
X105266917Y-90872257D02*
X105195489Y-90586542D01*
X105195489Y-90586542D02*
X105124060Y-90443685D01*
X105124060Y-90443685D02*
X105052632Y-90372257D01*
X105052632Y-90372257D02*
X104909774Y-90300828D01*
X103124061Y-90800828D02*
X103124061Y-91800828D01*
X103481203Y-90229400D02*
X103838346Y-91300828D01*
X103838346Y-91300828D02*
X102909775Y-91300828D01*
X104909774Y-95300828D02*
X104766917Y-95300828D01*
X104766917Y-95300828D02*
X104624060Y-95372257D01*
X104624060Y-95372257D02*
X104552632Y-95443685D01*
X104552632Y-95443685D02*
X104481203Y-95586542D01*
X104481203Y-95586542D02*
X104409774Y-95872257D01*
X104409774Y-95872257D02*
X104409774Y-96229400D01*
X104409774Y-96229400D02*
X104481203Y-96515114D01*
X104481203Y-96515114D02*
X104552632Y-96657971D01*
X104552632Y-96657971D02*
X104624060Y-96729400D01*
X104624060Y-96729400D02*
X104766917Y-96800828D01*
X104766917Y-96800828D02*
X104909774Y-96800828D01*
X104909774Y-96800828D02*
X105052632Y-96729400D01*
X105052632Y-96729400D02*
X105124060Y-96657971D01*
X105124060Y-96657971D02*
X105195489Y-96515114D01*
X105195489Y-96515114D02*
X105266917Y-96229400D01*
X105266917Y-96229400D02*
X105266917Y-95872257D01*
X105266917Y-95872257D02*
X105195489Y-95586542D01*
X105195489Y-95586542D02*
X105124060Y-95443685D01*
X105124060Y-95443685D02*
X105052632Y-95372257D01*
X105052632Y-95372257D02*
X104909774Y-95300828D01*
X103909775Y-95300828D02*
X102981203Y-95300828D01*
X102981203Y-95300828D02*
X103481203Y-95872257D01*
X103481203Y-95872257D02*
X103266918Y-95872257D01*
X103266918Y-95872257D02*
X103124061Y-95943685D01*
X103124061Y-95943685D02*
X103052632Y-96015114D01*
X103052632Y-96015114D02*
X102981203Y-96157971D01*
X102981203Y-96157971D02*
X102981203Y-96515114D01*
X102981203Y-96515114D02*
X103052632Y-96657971D01*
X103052632Y-96657971D02*
X103124061Y-96729400D01*
X103124061Y-96729400D02*
X103266918Y-96800828D01*
X103266918Y-96800828D02*
X103695489Y-96800828D01*
X103695489Y-96800828D02*
X103838346Y-96729400D01*
X103838346Y-96729400D02*
X103909775Y-96657971D01*
X104909774Y-100300828D02*
X104766917Y-100300828D01*
X104766917Y-100300828D02*
X104624060Y-100372257D01*
X104624060Y-100372257D02*
X104552632Y-100443685D01*
X104552632Y-100443685D02*
X104481203Y-100586542D01*
X104481203Y-100586542D02*
X104409774Y-100872257D01*
X104409774Y-100872257D02*
X104409774Y-101229400D01*
X104409774Y-101229400D02*
X104481203Y-101515114D01*
X104481203Y-101515114D02*
X104552632Y-101657971D01*
X104552632Y-101657971D02*
X104624060Y-101729400D01*
X104624060Y-101729400D02*
X104766917Y-101800828D01*
X104766917Y-101800828D02*
X104909774Y-101800828D01*
X104909774Y-101800828D02*
X105052632Y-101729400D01*
X105052632Y-101729400D02*
X105124060Y-101657971D01*
X105124060Y-101657971D02*
X105195489Y-101515114D01*
X105195489Y-101515114D02*
X105266917Y-101229400D01*
X105266917Y-101229400D02*
X105266917Y-100872257D01*
X105266917Y-100872257D02*
X105195489Y-100586542D01*
X105195489Y-100586542D02*
X105124060Y-100443685D01*
X105124060Y-100443685D02*
X105052632Y-100372257D01*
X105052632Y-100372257D02*
X104909774Y-100300828D01*
X103838346Y-100443685D02*
X103766918Y-100372257D01*
X103766918Y-100372257D02*
X103624061Y-100300828D01*
X103624061Y-100300828D02*
X103266918Y-100300828D01*
X103266918Y-100300828D02*
X103124061Y-100372257D01*
X103124061Y-100372257D02*
X103052632Y-100443685D01*
X103052632Y-100443685D02*
X102981203Y-100586542D01*
X102981203Y-100586542D02*
X102981203Y-100729400D01*
X102981203Y-100729400D02*
X103052632Y-100943685D01*
X103052632Y-100943685D02*
X103909775Y-101800828D01*
X103909775Y-101800828D02*
X102981203Y-101800828D01*
X104909774Y-105300828D02*
X104766917Y-105300828D01*
X104766917Y-105300828D02*
X104624060Y-105372257D01*
X104624060Y-105372257D02*
X104552632Y-105443685D01*
X104552632Y-105443685D02*
X104481203Y-105586542D01*
X104481203Y-105586542D02*
X104409774Y-105872257D01*
X104409774Y-105872257D02*
X104409774Y-106229400D01*
X104409774Y-106229400D02*
X104481203Y-106515114D01*
X104481203Y-106515114D02*
X104552632Y-106657971D01*
X104552632Y-106657971D02*
X104624060Y-106729400D01*
X104624060Y-106729400D02*
X104766917Y-106800828D01*
X104766917Y-106800828D02*
X104909774Y-106800828D01*
X104909774Y-106800828D02*
X105052632Y-106729400D01*
X105052632Y-106729400D02*
X105124060Y-106657971D01*
X105124060Y-106657971D02*
X105195489Y-106515114D01*
X105195489Y-106515114D02*
X105266917Y-106229400D01*
X105266917Y-106229400D02*
X105266917Y-105872257D01*
X105266917Y-105872257D02*
X105195489Y-105586542D01*
X105195489Y-105586542D02*
X105124060Y-105443685D01*
X105124060Y-105443685D02*
X105052632Y-105372257D01*
X105052632Y-105372257D02*
X104909774Y-105300828D01*
X102981203Y-106800828D02*
X103838346Y-106800828D01*
X103409775Y-106800828D02*
X103409775Y-105300828D01*
X103409775Y-105300828D02*
X103552632Y-105515114D01*
X103552632Y-105515114D02*
X103695489Y-105657971D01*
X103695489Y-105657971D02*
X103838346Y-105729400D01*
X104909774Y-110300828D02*
X104766917Y-110300828D01*
X104766917Y-110300828D02*
X104624060Y-110372257D01*
X104624060Y-110372257D02*
X104552632Y-110443685D01*
X104552632Y-110443685D02*
X104481203Y-110586542D01*
X104481203Y-110586542D02*
X104409774Y-110872257D01*
X104409774Y-110872257D02*
X104409774Y-111229400D01*
X104409774Y-111229400D02*
X104481203Y-111515114D01*
X104481203Y-111515114D02*
X104552632Y-111657971D01*
X104552632Y-111657971D02*
X104624060Y-111729400D01*
X104624060Y-111729400D02*
X104766917Y-111800828D01*
X104766917Y-111800828D02*
X104909774Y-111800828D01*
X104909774Y-111800828D02*
X105052632Y-111729400D01*
X105052632Y-111729400D02*
X105124060Y-111657971D01*
X105124060Y-111657971D02*
X105195489Y-111515114D01*
X105195489Y-111515114D02*
X105266917Y-111229400D01*
X105266917Y-111229400D02*
X105266917Y-110872257D01*
X105266917Y-110872257D02*
X105195489Y-110586542D01*
X105195489Y-110586542D02*
X105124060Y-110443685D01*
X105124060Y-110443685D02*
X105052632Y-110372257D01*
X105052632Y-110372257D02*
X104909774Y-110300828D01*
X103481203Y-110300828D02*
X103338346Y-110300828D01*
X103338346Y-110300828D02*
X103195489Y-110372257D01*
X103195489Y-110372257D02*
X103124061Y-110443685D01*
X103124061Y-110443685D02*
X103052632Y-110586542D01*
X103052632Y-110586542D02*
X102981203Y-110872257D01*
X102981203Y-110872257D02*
X102981203Y-111229400D01*
X102981203Y-111229400D02*
X103052632Y-111515114D01*
X103052632Y-111515114D02*
X103124061Y-111657971D01*
X103124061Y-111657971D02*
X103195489Y-111729400D01*
X103195489Y-111729400D02*
X103338346Y-111800828D01*
X103338346Y-111800828D02*
X103481203Y-111800828D01*
X103481203Y-111800828D02*
X103624061Y-111729400D01*
X103624061Y-111729400D02*
X103695489Y-111657971D01*
X103695489Y-111657971D02*
X103766918Y-111515114D01*
X103766918Y-111515114D02*
X103838346Y-111229400D01*
X103838346Y-111229400D02*
X103838346Y-110872257D01*
X103838346Y-110872257D02*
X103766918Y-110586542D01*
X103766918Y-110586542D02*
X103695489Y-110443685D01*
X103695489Y-110443685D02*
X103624061Y-110372257D01*
X103624061Y-110372257D02*
X103481203Y-110300828D01*
D12*
X164601471Y-94935527D02*
X164601471Y-96366359D01*
X164601471Y-96366359D02*
X164696859Y-96652526D01*
X164696859Y-96652526D02*
X164887637Y-96843304D01*
X164887637Y-96843304D02*
X165173803Y-96938692D01*
X165173803Y-96938692D02*
X165364581Y-96938692D01*
X162598306Y-96938692D02*
X163742971Y-96938692D01*
X163170638Y-96938692D02*
X163170638Y-94935527D01*
X163170638Y-94935527D02*
X163361416Y-95221694D01*
X163361416Y-95221694D02*
X163552194Y-95412471D01*
X163552194Y-95412471D02*
X163742971Y-95507860D01*
D13*
%TO.C,J1*%
X171517500Y-98590000D02*
X110557500Y-98590000D01*
X110557500Y-98590000D02*
X110557500Y-131610000D01*
X110557500Y-131610000D02*
X171517500Y-131610000D01*
X171517500Y-131610000D02*
X171517500Y-98590000D01*
D14*
X173037500Y-111290000D02*
G75*
G02*
X172537500Y-111290000I-250000J0D01*
G01*
X172537500Y-111290000D02*
G75*
G02*
X173037500Y-111290000I250000J0D01*
G01*
%TD*%
M02*
