%TF.GenerationSoftware,KiCad,Pcbnew,9.0.6*%
%TF.CreationDate,2026-02-06T01:00:39-05:00*%
%TF.ProjectId,SteeringWheel,53746565-7269-46e6-9757-6865656c2e6b,rev?*%
%TF.SameCoordinates,Original*%
%TF.FileFunction,Soldermask,Top*%
%TF.FilePolarity,Negative*%
%FSLAX46Y46*%
G04 Gerber Fmt 4.6, Leading zero omitted, Abs format (unit mm)*
G04 Created by KiCad (PCBNEW 9.0.6) date 2026-02-06 01:00:39*
%MOMM*%
%LPD*%
G01*
G04 APERTURE LIST*
G04 Aperture macros list*
%AMRoundRect*
0 Rectangle with rounded corners*
0 $1 Rounding radius*
0 $2 $3 $4 $5 $6 $7 $8 $9 X,Y pos of 4 corners*
0 Add a 4 corners polygon primitive as box body*
4,1,4,$2,$3,$4,$5,$6,$7,$8,$9,$2,$3,0*
0 Add four circle primitives for the rounded corners*
1,1,$1+$1,$2,$3*
1,1,$1+$1,$4,$5*
1,1,$1+$1,$6,$7*
1,1,$1+$1,$8,$9*
0 Add four rect primitives between the rounded corners*
20,1,$1+$1,$2,$3,$4,$5,0*
20,1,$1+$1,$4,$5,$6,$7,0*
20,1,$1+$1,$6,$7,$8,$9,0*
20,1,$1+$1,$8,$9,$2,$3,0*%
G04 Aperture macros list end*
%ADD10C,2.500000*%
%ADD11RoundRect,0.250000X0.750000X0.750000X-0.750000X0.750000X-0.750000X-0.750000X0.750000X-0.750000X0*%
%ADD12RoundRect,0.102000X0.892500X0.892500X-0.892500X0.892500X-0.892500X-0.892500X0.892500X-0.892500X0*%
%ADD13C,1.989000*%
%ADD14C,2.990000*%
%ADD15C,1.600000*%
%ADD16RoundRect,0.250000X-0.550000X-0.550000X0.550000X-0.550000X0.550000X0.550000X-0.550000X0.550000X0*%
%ADD17C,3.500000*%
%ADD18R,2.000000X1.905000*%
%ADD19O,2.000000X1.905000*%
%ADD20R,1.800000X1.800000*%
%ADD21C,1.800000*%
%ADD22C,1.850000*%
%ADD23RoundRect,0.102000X-0.937500X-0.937500X0.937500X-0.937500X0.937500X0.937500X-0.937500X0.937500X0*%
%ADD24C,2.079000*%
%ADD25C,5.600000*%
%ADD26RoundRect,0.102000X-0.600000X-0.600000X0.600000X-0.600000X0.600000X0.600000X-0.600000X0.600000X0*%
%ADD27C,1.512000*%
G04 APERTURE END LIST*
D10*
%TO.C,J5*%
X165000000Y-106625000D03*
D11*
X165000000Y-118625000D03*
%TD*%
D10*
%TO.C,J4*%
X118000000Y-107125000D03*
D11*
X118000000Y-119125000D03*
%TD*%
D10*
%TO.C,J3*%
X122500000Y-107125000D03*
D11*
X122500000Y-119125000D03*
%TD*%
D10*
%TO.C,J2*%
X160500000Y-106600000D03*
D11*
X160500000Y-118600000D03*
%TD*%
D12*
%TO.C,J1*%
X151512500Y-111545000D03*
D13*
X147322500Y-111545000D03*
X143132500Y-111545000D03*
X138942500Y-111545000D03*
X134752500Y-111545000D03*
X130562500Y-111545000D03*
X130562500Y-118655000D03*
X134752500Y-118655000D03*
X138942500Y-118655000D03*
X143132500Y-118655000D03*
X147322500Y-118655000D03*
X151512500Y-118655000D03*
D14*
X158447500Y-127800000D03*
X158447500Y-102400000D03*
X123627500Y-102400000D03*
X123627500Y-127800000D03*
%TD*%
D15*
%TO.C,U1*%
X137620000Y-52000000D03*
X137620000Y-54540000D03*
X137620000Y-57080000D03*
X137620000Y-59620000D03*
X137620000Y-62160000D03*
X137620000Y-64700000D03*
X137620000Y-67240000D03*
X130000000Y-67240000D03*
X130000000Y-64700000D03*
X130000000Y-62160000D03*
X130000000Y-59620000D03*
X130000000Y-57080000D03*
X130000000Y-54540000D03*
D16*
X130000000Y-52000000D03*
%TD*%
D15*
%TO.C,R6*%
X99000000Y-106000000D03*
X109160000Y-106000000D03*
%TD*%
%TO.C,R10*%
X99080000Y-86000000D03*
X109240000Y-86000000D03*
%TD*%
%TO.C,R7*%
X99000000Y-101000000D03*
X109160000Y-101000000D03*
%TD*%
%TO.C,R5*%
X99000000Y-111000000D03*
X109160000Y-111000000D03*
%TD*%
%TO.C,R8*%
X99000000Y-96000000D03*
X109160000Y-96000000D03*
%TD*%
%TO.C,R9*%
X99000000Y-91000000D03*
X109160000Y-91000000D03*
%TD*%
D17*
%TO.C,U2*%
X125570000Y-77000000D03*
D18*
X142230000Y-79540000D03*
D19*
X142230000Y-77000000D03*
X142230000Y-74460000D03*
%TD*%
D15*
%TO.C,R17*%
X158000000Y-58000000D03*
X158000000Y-68160000D03*
%TD*%
D20*
%TO.C,D1*%
X166000000Y-58000000D03*
D21*
X163460000Y-58000000D03*
%TD*%
D15*
%TO.C,C8*%
X146250000Y-74500000D03*
X153750000Y-74500000D03*
%TD*%
%TO.C,C7*%
X146250000Y-79500000D03*
X153750000Y-79500000D03*
%TD*%
%TO.C,C3*%
X126250000Y-68000000D03*
X126250000Y-60500000D03*
%TD*%
%TO.C,R13*%
X172920000Y-96000000D03*
X183080000Y-96000000D03*
%TD*%
%TO.C,C1*%
X126000000Y-52000000D03*
X126000000Y-44500000D03*
%TD*%
D22*
%TO.C,S1*%
X104000000Y-42500000D03*
X104000000Y-51500000D03*
D23*
X97750000Y-44500000D03*
D24*
X110250000Y-44500000D03*
X97750000Y-49500000D03*
X110250000Y-49500000D03*
%TD*%
D25*
%TO.C,H1*%
X178000000Y-77000000D03*
%TD*%
D15*
%TO.C,R16*%
X172840000Y-111000000D03*
X183000000Y-111000000D03*
%TD*%
%TO.C,R15*%
X172920000Y-106000000D03*
X183080000Y-106000000D03*
%TD*%
%TO.C,R3*%
X114000000Y-57920000D03*
X114000000Y-68080000D03*
%TD*%
%TO.C,R2*%
X118000000Y-41920000D03*
X118000000Y-52080000D03*
%TD*%
%TO.C,R1*%
X114000000Y-41920000D03*
X114000000Y-52080000D03*
%TD*%
%TO.C,R12*%
X172920000Y-91000000D03*
X183080000Y-91000000D03*
%TD*%
%TO.C,C2*%
X122000000Y-52000000D03*
X122000000Y-44500000D03*
%TD*%
D16*
%TO.C,U3*%
X146000000Y-52000000D03*
D15*
X146000000Y-54540000D03*
X146000000Y-57080000D03*
X146000000Y-59620000D03*
X146000000Y-62160000D03*
X146000000Y-64700000D03*
X146000000Y-67240000D03*
X153620000Y-67240000D03*
X153620000Y-64700000D03*
X153620000Y-62160000D03*
X153620000Y-59620000D03*
X153620000Y-57080000D03*
X153620000Y-54540000D03*
X153620000Y-52000000D03*
%TD*%
%TO.C,C5*%
X142000000Y-51750000D03*
X142000000Y-44250000D03*
%TD*%
D25*
%TO.C,H2*%
X104000000Y-77000000D03*
%TD*%
D15*
%TO.C,C4*%
X122000000Y-68000000D03*
X122000000Y-60500000D03*
%TD*%
D22*
%TO.C,S2*%
X104000000Y-58500000D03*
X104000000Y-67500000D03*
D23*
X97750000Y-60500000D03*
D24*
X110250000Y-60500000D03*
X97750000Y-65500000D03*
X110250000Y-65500000D03*
%TD*%
D15*
%TO.C,C6*%
X158000000Y-51750000D03*
X158000000Y-44250000D03*
%TD*%
D26*
%TO.C,S3*%
X139447100Y-99295600D03*
D27*
X138000000Y-98696200D03*
X136757400Y-97742600D03*
X135000000Y-93500000D03*
X135803800Y-90500000D03*
X136757400Y-89257400D03*
X141000000Y-87500000D03*
X144000000Y-88303800D03*
X145242600Y-89257400D03*
X147000000Y-93500000D03*
X146196200Y-96500000D03*
X145242600Y-97742600D03*
X141000000Y-99500000D03*
%TD*%
D22*
%TO.C,S5*%
X178000000Y-58500000D03*
X178000000Y-67500000D03*
D23*
X171750000Y-60500000D03*
D24*
X184250000Y-60500000D03*
X171750000Y-65500000D03*
X184250000Y-65500000D03*
%TD*%
D15*
%TO.C,R14*%
X172920000Y-101000000D03*
X183080000Y-101000000D03*
%TD*%
%TO.C,R11*%
X172920000Y-86000000D03*
X183080000Y-86000000D03*
%TD*%
D22*
%TO.C,S4*%
X178000000Y-42500000D03*
X178000000Y-51500000D03*
D23*
X171750000Y-44500000D03*
D24*
X184250000Y-44500000D03*
X171750000Y-49500000D03*
X184250000Y-49500000D03*
%TD*%
D15*
%TO.C,R4*%
X118000000Y-57920000D03*
X118000000Y-68080000D03*
%TD*%
M02*
