M48
; DRILL file {KiCad 9.0.6} date 2026-02-06T01:00:36-0500
; FORMAT={-:-/ absolute / metric / decimal}
; #@! TF.CreationDate,2026-02-06T01:00:36-05:00
; #@! TF.GenerationSoftware,Kicad,Pcbnew,9.0.6
; #@! TF.FileFunction,Plated,1,2,PTH
FMAT,2
METRIC
; #@! TA.AperFunction,Plated,PTH,ComponentDrill
T1C0.800
; #@! TA.AperFunction,Plated,PTH,ComponentDrill
T2C0.850
; #@! TA.AperFunction,Plated,PTH,ComponentDrill
T3C0.900
; #@! TA.AperFunction,Plated,PTH,ComponentDrill
T4C1.100
; #@! TA.AperFunction,Plated,PTH,ComponentDrill
T5C1.190
; #@! TA.AperFunction,Plated,PTH,ComponentDrill
T6C1.250
; #@! TA.AperFunction,Plated,PTH,ComponentDrill
T7C3.200
%
G90
G05
T1
X99.0Y-91.0
X99.0Y-96.0
X99.0Y-101.0
X99.0Y-106.0
X99.0Y-111.0
X99.08Y-86.0
X109.16Y-91.0
X109.16Y-96.0
X109.16Y-101.0
X109.16Y-106.0
X109.16Y-111.0
X109.24Y-86.0
X114.0Y-41.92
X114.0Y-52.08
X114.0Y-57.92
X114.0Y-68.08
X118.0Y-41.92
X118.0Y-52.08
X118.0Y-57.92
X118.0Y-68.08
X122.0Y-44.5
X122.0Y-52.0
X122.0Y-60.5
X122.0Y-68.0
X126.0Y-44.5
X126.0Y-52.0
X126.25Y-60.5
X126.25Y-68.0
X130.0Y-52.0
X130.0Y-54.54
X130.0Y-57.08
X130.0Y-59.62
X130.0Y-62.16
X130.0Y-64.7
X130.0Y-67.24
X135.0Y-93.5
X135.804Y-90.5
X136.757Y-89.257
X136.757Y-97.743
X137.62Y-52.0
X137.62Y-54.54
X137.62Y-57.08
X137.62Y-59.62
X137.62Y-62.16
X137.62Y-64.7
X137.62Y-67.24
X138.0Y-98.696
X139.447Y-99.296
X141.0Y-87.5
X141.0Y-99.5
X142.0Y-44.25
X142.0Y-51.75
X144.0Y-88.304
X145.243Y-89.257
X145.243Y-97.743
X146.0Y-52.0
X146.0Y-54.54
X146.0Y-57.08
X146.0Y-59.62
X146.0Y-62.16
X146.0Y-64.7
X146.0Y-67.24
X146.196Y-96.5
X146.25Y-74.5
X146.25Y-79.5
X147.0Y-93.5
X153.62Y-52.0
X153.62Y-54.54
X153.62Y-57.08
X153.62Y-59.62
X153.62Y-62.16
X153.62Y-64.7
X153.62Y-67.24
X153.75Y-74.5
X153.75Y-79.5
X158.0Y-44.25
X158.0Y-51.75
X158.0Y-58.0
X158.0Y-68.16
X172.84Y-111.0
X172.92Y-86.0
X172.92Y-91.0
X172.92Y-96.0
X172.92Y-101.0
X172.92Y-106.0
X183.0Y-111.0
X183.08Y-86.0
X183.08Y-91.0
X183.08Y-96.0
X183.08Y-101.0
X183.08Y-106.0
T2
X118.0Y-119.125
X122.5Y-119.125
X160.5Y-118.6
X165.0Y-118.625
T3
X163.46Y-58.0
X166.0Y-58.0
T4
X142.23Y-74.46
X142.23Y-77.0
X142.23Y-79.54
T5
X130.562Y-111.545
X130.562Y-118.655
X134.752Y-111.545
X134.752Y-118.655
X138.942Y-111.545
X138.942Y-118.655
X143.132Y-111.545
X143.132Y-118.655
X147.322Y-111.545
X147.322Y-118.655
X151.512Y-111.545
X151.512Y-118.655
T6
X97.75Y-44.5
X97.75Y-49.5
X97.75Y-60.5
X97.75Y-65.5
X110.25Y-44.5
X110.25Y-49.5
X110.25Y-60.5
X110.25Y-65.5
X171.75Y-44.5
X171.75Y-49.5
X171.75Y-60.5
X171.75Y-65.5
X184.25Y-44.5
X184.25Y-49.5
X184.25Y-60.5
X184.25Y-65.5
T7
X104.0Y-77.0
X178.0Y-77.0
M30
